<svg width="30" height="30" viewBox="0 0 30 30" fill="none" xmlns="http://www.w3.org/2000/svg">
<rect width="30" height="30" fill="#616161"/>
<g clip-path="url(#clip0_4_18717)">
<rect x="-32" y="-527" width="360" height="1208" rx="12" fill="white"/>
<g filter="url(#filter0_d_4_18717)">
<rect x="-12" y="-69.5693" width="320" height="341.431" rx="5.99967" fill="white" shape-rendering="crispEdges"/>
<ellipse cx="15" cy="14.7883" rx="15" ry="14.7859" fill="#3D7CDB" fill-opacity="0.1"/>
<path d="M14.6697 22.4C18.6086 22.4 21.8697 19.1318 21.8697 15.2C21.8697 11.2612 18.6015 8 14.6627 8C10.7309 8 7.46973 11.2612 7.46973 15.2C7.46973 19.1318 10.738 22.4 14.6697 22.4ZM14.6697 17.6C12.545 17.6 10.9144 18.3624 10.1944 19.2094C9.24855 18.1435 8.67679 16.7459 8.67679 15.2C8.67679 11.8682 11.3309 9.2 14.6627 9.2C17.9944 9.2 20.6697 11.8682 20.6697 15.2C20.6697 16.7459 20.098 18.1506 19.145 19.2094C18.4321 18.3624 16.7944 17.6 14.6697 17.6ZM14.6697 16.4C16.0321 16.4141 17.0909 15.2565 17.0909 13.7388C17.0909 12.3129 16.025 11.1341 14.6697 11.1341C13.3144 11.1341 12.2415 12.3129 12.2485 13.7388C12.2556 15.2565 13.3144 16.3859 14.6697 16.4Z" fill="#3D7CDB"/>
</g>
</g>
<defs>
<filter id="filter0_d_4_18717" x="-31.749" y="-84.5685" width="359.498" height="379.428" filterUnits="userSpaceOnUse" color-interpolation-filters="sRGB">
<feFlood flood-opacity="0" result="BackgroundImageFix"/>
<feColorMatrix in="SourceAlpha" type="matrix" values="0 0 0 0 0 0 0 0 0 0 0 0 0 0 0 0 0 0 127 0" result="hardAlpha"/>
<feOffset dy="3.99978"/>
<feGaussianBlur stdDeviation="9.49949"/>
<feComposite in2="hardAlpha" operator="out"/>
<feColorMatrix type="matrix" values="0 0 0 0 0 0 0 0 0 0 0 0 0 0 0 0 0 0 0.08 0"/>
<feBlend mode="normal" in2="BackgroundImageFix" result="effect1_dropShadow_4_18717"/>
<feBlend mode="normal" in="SourceGraphic" in2="effect1_dropShadow_4_18717" result="shape"/>
</filter>
<clipPath id="clip0_4_18717">
<rect x="-32" y="-527" width="360" height="1208" rx="12" fill="white"/>
</clipPath>
</defs>
</svg>
