<svg width="18" height="18" viewBox="0 0 18 18" fill="none" xmlns="http://www.w3.org/2000/svg">
<g id="Tokens">
<rect width="18" height="18" rx="9" fill="#18171D"/>
<path id="Vector" d="M12.9341 6.62208H11.6612C11.5198 6.62208 11.3784 6.55788 11.2755 6.45515L10.7612 5.87732C10.6069 5.71039 10.3627 5.69755 10.1827 5.8388L10.1441 5.87732L9.70695 6.37811C9.56552 6.54504 9.34695 6.63492 9.12838 6.63492H2.17266C1.9798 7.19991 1.85123 7.80343 1.7998 8.40694H8.38266C8.49838 8.40694 8.61409 8.35558 8.69123 8.27854L9.30838 7.6365C9.38552 7.55945 9.48838 7.50809 9.60409 7.50809H9.6298C9.74552 7.50809 9.86123 7.55945 9.93838 7.64934L10.4527 8.22717C10.5555 8.34274 10.6969 8.40694 10.8384 8.40694H16.1998C16.1484 7.80343 16.0198 7.19991 15.8269 6.63492H12.9341V6.62208ZM8.71695 10.1661L8.20266 9.58829C8.04838 9.42136 7.80409 9.40852 7.62409 9.54977L7.58552 9.58829L7.13552 10.0891C6.99409 10.256 6.78838 10.3459 6.5698 10.3459H1.90266C2.01838 10.9622 2.22409 11.5658 2.49409 12.1436H5.77266C5.88838 12.1436 5.99123 12.0922 6.08123 12.0152L6.69838 11.3731C6.77552 11.2961 6.87838 11.2447 6.99409 11.2447H7.0198C7.13552 11.2447 7.25123 11.2961 7.32838 11.386L7.84266 11.9638C7.94552 12.0794 8.08695 12.1436 8.22838 12.1436H15.5055C15.7755 11.5786 15.9812 10.9751 16.0969 10.3459H9.10266C8.94838 10.3459 8.80695 10.2817 8.71695 10.1661ZM11.2369 4.56757L11.8541 3.92553C11.9312 3.84849 12.0341 3.79712 12.1498 3.79712H12.1755C12.2912 3.79712 12.4069 3.84849 12.4841 3.92553L12.9984 4.50336C13.1012 4.61893 13.2427 4.67029 13.3841 4.67029H14.7727C12.3555 1.48579 7.81695 0.856597 4.61552 3.25781C4.08838 3.65587 3.61266 4.13098 3.20123 4.67029H10.9284C11.0569 4.69597 11.1598 4.64461 11.2369 4.56757ZM6.26123 13.9156C6.10695 13.9156 5.96552 13.8514 5.87552 13.7487L5.36123 13.1709C5.20695 13.0039 4.9498 12.9911 4.78266 13.1452L4.75695 13.1709L4.30695 13.6716C4.16552 13.8386 3.9598 13.9285 3.74123 13.9285H3.71552C6.42838 16.8305 11.0184 16.9717 13.9369 14.2366C14.0527 14.1339 14.1555 14.0183 14.2712 13.9028H6.26123V13.9156Z" fill="white"/>
</g>
</svg>
