<svg width="81" height="20" viewBox="0 0 81 20" fill="none" xmlns="http://www.w3.org/2000/svg">
<g clip-path="url(#clip0_0_75)">
<path d="M61.8575 6.72148H60.1942C60.0007 6.72148 59.8164 6.63781 59.6875 6.4924L59.0133 5.72799C58.9131 5.61425 58.7682 5.54846 58.6168 5.54846C58.4653 5.54846 58.3206 5.61343 58.2202 5.72799L57.6414 6.38436C57.452 6.59883 57.1801 6.7223 56.8944 6.7223H47.7921C47.533 7.46397 47.364 8.24709 47.2967 9.06024H55.8899C56.0413 9.06024 56.1853 8.99852 56.2899 8.88884L57.0903 8.05132C57.1898 7.94652 57.3282 7.88722 57.4724 7.88722H57.5056C57.6568 7.88722 57.8017 7.95222 57.9022 8.06675L58.5764 8.83118C58.705 8.97658 58.8888 9.06024 59.083 9.06024H66.0971C66.0298 8.24709 65.8609 7.46397 65.6017 6.7223H61.8575V6.72148Z" fill="black"/>
<path d="M52.4945 13.9764C52.6459 13.9764 52.7899 13.9146 52.8945 13.805L53.6948 12.9674C53.7944 12.8626 53.9328 12.8033 54.0768 12.8033H54.1102C54.2614 12.8033 54.4063 12.8683 54.5068 12.9829L55.181 13.7473C55.3096 13.8927 55.4932 13.9764 55.6876 13.9764H65.193C65.549 13.2379 65.8098 12.4451 65.965 11.6157H56.8418C56.6483 11.6157 56.4637 11.532 56.3352 11.3866L55.661 10.6222C55.5605 10.5084 55.4156 10.4426 55.2641 10.4426C55.1129 10.4426 54.968 10.5076 54.8675 10.6222L54.289 11.2785C54.0996 11.493 53.8275 11.6165 53.542 11.6165H47.4237C47.5792 12.4467 47.8398 13.2387 48.196 13.9772H52.4945V13.9764Z" fill="black"/>
<path d="M59.24 4.16702C59.3914 4.16702 59.5354 4.10527 59.6399 3.99562L60.4403 3.15807C60.5398 3.05327 60.6783 2.99398 60.8223 2.99398H60.8557C61.0068 2.99398 61.1518 3.05897 61.2523 3.1735L61.9264 3.93794C62.055 4.08335 62.2387 4.16702 62.4331 4.16702H64.2404C62.5189 1.8705 59.7808 0.384705 56.697 0.384705C53.6133 0.384705 50.8751 1.8705 49.1535 4.16702H59.241H59.24Z" fill="black"/>
<path d="M55.6066 16.3159H53.1348C52.9413 16.3159 52.7567 16.2322 52.6281 16.0868L51.9539 15.3224C51.8535 15.2087 51.7088 15.1429 51.5574 15.1429C51.4059 15.1429 51.261 15.2079 51.1608 15.3224L50.582 15.9788C50.3926 16.1933 50.1207 16.3167 49.835 16.3167H49.796C51.5184 18.1689 53.97 19.3281 56.6938 19.3281C59.4172 19.3281 61.8689 18.1689 63.5913 16.3167H55.6066V16.3159Z" fill="black"/>
<path d="M14.9835 18.7145L13.0637 14.0345H4.48662L2.56677 18.7145H0.347443L8.76258 0.99707L17.2028 18.7145H14.9835ZM5.20939 12.2579H12.3158L8.75126 4.70953L5.21021 12.2579H5.20939Z" fill="black"/>
<path d="M20.2673 18.7145V0.99707H25.1795C29.0192 0.99707 31.0387 2.77368 31.0387 6.1019C31.0387 9.4301 28.8945 11.1572 25.1543 11.1572H22.3369V18.7145H20.2673ZM22.3369 9.30499H24.6808C27.648 9.30499 28.9447 8.32937 28.9447 6.1019C28.9447 3.87443 27.623 2.84843 24.6808 2.84843H22.3369V9.30499Z" fill="black"/>
<path d="M38.5558 2.89879H32.4726V0.99707H46.7096V2.89879H40.6255V18.7145H38.5558V2.89879Z" fill="black"/>
<path d="M69.0068 15.4853L70.7893 14.2717L70.9268 14.5592C72.0235 16.5609 73.2205 17.3618 75.041 17.3618C77.0602 17.3618 78.4817 15.9605 78.4817 14.2587C78.4817 12.6567 77.6834 11.5811 74.4922 10.2546C70.8273 8.72815 69.5801 7.15137 69.5801 4.89953C69.5801 2.44703 71.4998 0.520142 74.8157 0.520142C77.2594 0.520142 78.9299 1.57133 79.8776 3.27321L78.4314 4.27402L78.0072 4.1741C77.2594 2.99781 76.3367 2.32194 74.7657 2.32194C72.8458 2.32194 71.724 3.3983 71.724 4.84917C71.724 6.20011 72.4468 6.97591 75.5637 8.40239C79.6277 10.2546 80.6256 11.781 80.6256 14.2335C80.6256 16.911 78.3319 19.188 75.0652 19.188C72.322 19.188 70.4273 18.1368 69.0061 15.4845L69.0068 15.4853Z" fill="black"/>
</g>
<defs>
<clipPath id="clip0_0_75">
<rect width="81" height="19.9498" fill="white"/>
</clipPath>
</defs>
</svg>
