<svg width="25" height="25" viewBox="0 0 25 25" fill="none"
    xmlns="http://www.w3.org/2000/svg">
    <path fill-rule="evenodd" clip-rule="evenodd" d="M12.5 24.9997C19.4035 24.9997 24.9999 19.4033 24.9999 12.4999C24.9999 5.59638 19.4035 0 12.5 0C5.59643 0 0 5.59638 0 12.4999C0 19.4033 5.59643 24.9997 12.5 24.9997ZM12.6454 8.01213C12.4106 7.75919 12.0151 7.74454 11.7622 7.97941C11.5092 8.21429 11.4946 8.60974 11.7295 8.86268L14.8167 12.1874H8.12497C7.7798 12.1874 7.49997 12.4672 7.49997 12.8124C7.49997 13.1575 7.7798 13.4374 8.12497 13.4374H14.8167L11.7295 16.762C11.4946 17.015 11.5092 17.4104 11.7622 17.6453C12.0151 17.8802 12.4106 17.8655 12.6454 17.6126L17.1028 12.8124L12.6454 8.01213Z" fill="#0B5A95"/>
</svg>
