<svg xmlns="http://www.w3.org/2000/svg" width="25" height="24" viewBox="0 0 25 24" fill="none">
  <path fill-rule="evenodd" clip-rule="evenodd" d="M12.5729 23.9997C19.2003 23.9997 24.5728 18.6272 24.5728 11.9999C24.5728 5.37252 19.2003 0 12.5729 0C5.94551 0 0.572937 5.37252 0.572937 11.9999C0.572937 18.6272 5.94551 23.9997 12.5729 23.9997ZM12.7126 7.69164C12.4871 7.44882 12.1075 7.43476 11.8646 7.66024C11.6218 7.88572 11.6077 8.26535 11.8332 8.50818L14.797 11.6999H8.37291C8.04154 11.6999 7.77291 11.9685 7.77291 12.2999C7.77291 12.6312 8.04154 12.8999 8.37291 12.8999H14.797L11.8332 16.0916C11.6077 16.3344 11.6218 16.714 11.8646 16.9395C12.1075 17.165 12.4871 17.1509 12.7126 16.9081L16.9917 12.2999L12.7126 7.69164Z" fill="#FDA600"/>
</svg>