<svg width="15" height="14" viewBox="0 0 15 14" fill="none" xmlns="http://www.w3.org/2000/svg">
<path d="M13.7457 6.22602H3.02967L7.35167 1.90402C7.48295 1.77274 7.55671 1.59468 7.55671 1.40902C7.55671 1.22336 7.48295 1.0453 7.35167 0.91402C7.22039 0.782738 7.04233 0.708984 6.85667 0.708984C6.67101 0.708984 6.49295 0.782738 6.36167 0.91402L0.842672 6.43002C0.712111 6.56168 0.638855 6.7396 0.638855 6.92502C0.638855 7.11044 0.712111 7.28836 0.842672 7.42002L6.36267 12.94C6.49395 13.0713 6.67201 13.1451 6.85767 13.1451C7.04333 13.1451 7.22139 13.0713 7.35267 12.94C7.48395 12.8087 7.55771 12.6307 7.55771 12.445C7.55771 12.2594 7.48395 12.0813 7.35267 11.95L3.02967 7.62502H13.7457C13.9313 7.62502 14.1094 7.55127 14.2406 7.41999C14.3719 7.28872 14.4457 7.11067 14.4457 6.92502C14.4457 6.73937 14.3719 6.56132 14.2406 6.43005C14.1094 6.29877 13.9313 6.22502 13.7457 6.22502V6.22602Z" fill="#646470"/>
</svg>
