<svg width="41" height="40" viewBox="0 0 41 40" fill="none" xmlns="http://www.w3.org/2000/svg">
<rect width="40.7595" height="40" rx="11.4286" fill="#FAFAFA"/>
<path d="M10.1126 25.286C10.1126 26.0135 10.6706 26.4918 11.6173 26.4918H15.8225C15.9022 28.415 17.4069 30.0991 19.5095 30.0991C21.6221 30.0991 23.1268 28.425 23.2065 26.4918H27.4117C28.3484 26.4918 28.9164 26.0135 28.9164 25.286C28.9164 24.2895 27.9 23.3927 27.043 22.5058C26.3853 21.8182 26.2059 20.4032 26.1262 19.2573C26.0564 15.3311 25.04 12.8 22.3893 11.8434C22.0505 10.5379 20.9843 9.51156 19.5095 9.51156C18.0446 9.51156 16.9684 10.5379 16.6396 11.8434C13.9889 12.8 12.9725 15.3311 12.9027 19.2573C12.823 20.4032 12.6437 21.8182 11.986 22.5058C11.119 23.3927 10.1126 24.2895 10.1126 25.286ZM12.0458 24.9871V24.8675C12.2251 24.5785 12.823 23.9906 13.3412 23.4126C14.0587 22.6154 14.3975 21.33 14.4872 19.3868C14.5669 15.0321 15.8623 13.647 17.5663 13.1787C17.8154 13.1189 17.955 12.9993 17.9649 12.7402C17.9948 11.7038 18.5927 10.9764 19.5095 10.9764C20.4362 10.9764 21.0242 11.7038 21.064 12.7402C21.074 12.9993 21.2035 13.1189 21.4526 13.1787C23.1666 13.647 24.4621 15.0321 24.5418 19.3868C24.6315 21.33 24.9703 22.6154 25.6778 23.4126C26.2059 23.9906 26.7938 24.5785 26.9732 24.8675V24.9871H12.0458ZM17.377 26.4918H21.6519C21.5722 27.847 20.7152 28.694 19.5095 28.694C18.3137 28.694 17.4467 27.847 17.377 26.4918Z" fill="black"/>
</svg>
