<svg width="59" height="59" viewBox="0 0 59 59" fill="none" xmlns="http://www.w3.org/2000/svg">
<path d="M26.8105 17.1361C31.482 13.7602 35.8085 9.72818 38.5671 4.6221C40.4145 1.20287 41.7562 1.70687 44.4329 3.52355C46.106 4.65912 50.5737 9.35288 49.5213 12.2983C47.8641 16.9357 37.4366 21.1499 28.5827 21.8174C27.712 21.8829 26.8674 21.4905 26.3452 20.7911L26.2546 20.7473C25.3987 19.6015 25.651 17.9739 26.8105 17.1361Z" fill="#FD6806"/>
<path d="M32.3921 12.5309C30.65 14.2006 28.7615 15.7269 26.8105 17.1369C25.651 17.9752 25.3987 19.6028 26.2546 20.7492L26.3446 20.7919C26.8668 21.4913 27.712 21.8842 28.5827 21.8187C35.1473 21.3233 42.5735 18.8785 46.6522 15.7571C40.2329 15.986 34.4172 13.507 32.3921 12.5309Z" fill="#E84614"/>
<path d="M35.8511 19.8061C35.8511 19.8061 30.2078 12.2343 24.9303 5.69178C19.5439 -0.986486 16.9904 -1.47865 13.13 2.60426C9.27019 6.68717 7.386 12.0555 11.7374 14.6602C16.0888 17.2649 29.1792 23.4521 30.6528 22.6076C32.1269 21.7631 35.8511 19.8061 35.8511 19.8061Z" fill="#FF8A20"/>
<path d="M28.6791 10.4218C25.9218 14.8816 15.407 15.3464 13.0237 15.3947C18.2278 18.2644 29.3041 23.3811 30.653 22.6077C32.1272 21.7631 35.8507 19.8061 35.8507 19.8061C35.8507 19.8061 32.5739 15.4093 28.6791 10.4218Z" fill="#FD6806"/>
<path d="M47.5529 58.6254H10.865C7.43788 58.6254 4.65906 55.8466 4.65906 52.4195V25.8887C4.65906 22.4611 7.43788 19.6834 10.865 19.6834H47.5529C50.9806 19.6834 53.7588 22.4611 53.7588 25.8887V52.4195C53.7588 55.8466 50.9806 58.6254 47.5529 58.6254Z" fill="#FAB021"/>
<path d="M23.3458 58.6252H35.0727V19.6833H23.3458V58.6252Z" fill="#FD6806"/>
<g opacity="0.2">
<path d="M4.51392 27.6658V36.0017L53.6131 39.6384V27.6658C53.6131 26.9301 53.478 26.2277 53.2427 25.5731H4.88435C4.64904 26.2277 4.51392 26.9301 4.51392 27.6658Z" fill="#BA0800"/>
</g>
<path d="M54.2706 31.3009H3.97387C1.77865 31.3009 -0.00012207 29.5215 -0.00012207 27.3275V20.5886C-0.00012207 18.394 1.77865 16.6152 3.97387 16.6152H54.2706C56.4652 16.6152 58.244 18.394 58.244 20.5886V27.3275C58.244 29.5215 56.4652 31.3009 54.2706 31.3009Z" fill="#FFC93E"/>
<path d="M22.941 31.3009H35.3039V16.6152H22.941V31.3009Z" fill="#FF8A20"/>
</svg>
