<svg width="32" height="32" viewBox="0 0 32 32" fill="none" xmlns="http://www.w3.org/2000/svg">
<path d="M25.8057 12.6171C24.8914 8.02286 20.8457 4.57143 16 4.57143C12.1371 4.57143 8.8 6.76572 7.13143 9.96572C3.10857 10.3771 0 13.7829 0 17.8971C0 22.3086 3.58857 25.8971 8 25.8971H25.3257C29.0057 25.8971 32 22.9029 32 19.2229C32 15.7257 29.2571 12.8686 25.8057 12.6171ZM19.9086 15.7714C19.68 16 19.3829 16.0914 19.1086 16.0914C18.8343 16.0914 18.5143 16 18.2857 15.7714L17.1429 14.6057V20.32C17.1429 20.96 16.64 21.4629 16 21.4629C15.36 21.4629 14.8571 20.96 14.8571 20.32V14.6286L13.7143 15.7714C13.4857 16 13.1886 16.1143 12.8914 16.1143C12.5943 16.1143 12.32 16 12.0914 15.7714C11.6343 15.3143 11.6343 14.6057 12.0914 14.1486L15.1771 11.0629C15.2914 10.9486 15.4057 10.88 15.5429 10.8114C15.7029 10.7657 15.84 10.72 16 10.72C16.16 10.72 16.2971 10.7429 16.4343 10.8114C16.5714 10.8571 16.6857 10.9486 16.7771 11.04C16.7771 11.04 16.8 11.04 16.8 11.0629L19.9086 14.1486C20.3657 14.5829 20.3657 15.3143 19.9086 15.7714Z" fill="#34526E"/>
</svg>
