<svg width="28" height="28" viewBox="0 0 28 28" fill="none" xmlns="http://www.w3.org/2000/svg">
<path fill-rule="evenodd" clip-rule="evenodd" d="M22.08 9.54H28C28 4.78 25.16 2 20.32 2H7.68C2.84 2 0 4.78 0 9.48V19.74C0 24.44 2.84 27.22 7.68 27.22H20.32C25.14 27.22 28 24.44 28 19.74V19.28H22.08C19.34 19.28 17.1 17.1 17.1 14.42C17.1 11.76 19.32 9.54 22.08 9.54ZM22.08 11.62H26.96C27.54 11.62 28 12.08 28 12.64V16.18C28 16.74 27.52 17.2 26.96 17.2H22.2C20.8 17.22 19.6 16.28 19.28 14.96C19.12 14.14 19.34 13.3 19.88 12.64C20.42 12.02 21.22 11.64 22.08 11.62ZM22.28 15.34H22.74C23.34 15.34 23.82 14.88 23.82 14.3C23.82 13.72 23.34 13.26 22.74 13.26H22.28C22 13.26 21.72 13.36 21.52 13.56C21.32 13.76 21.2 14.02 21.2 14.3C21.22 14.86 21.7 15.34 22.28 15.34ZM6.64 9.54H14.54C15.14 9.54 15.62 9.08 15.62 8.5C15.62 7.92 15.14 7.46 14.54 7.46H6.64C6.06 7.46 5.58 7.92 5.56 8.5C5.56 9.06 6.04 9.52 6.64 9.54Z" fill="#34526E"/>
</svg>
