<?xml version="1.0" encoding="UTF-8"?>
<svg width="700pt" height="700pt" version="1.1" viewBox="0 0 700 700" xmlns="http://www.w3.org/2000/svg">
 <g>
  <path d="m275.33 224c0 20.617-16.715 37.332-37.332 37.332s-37.332-16.715-37.332-37.332 16.715-37.332 37.332-37.332 37.332 16.715 37.332 37.332"/>
  <path d="m460.28 112-11.066 37.332h87.453v280h-170.41l-11.07 37.336h218.81v-354.67z"/>
  <path d="m371.79 410.67h146.21v-53.332c-37.277-51.82-55.141-124.27-91.148-132.5z"/>
  <path d="m406.77 32.031-23.707 79.969h-257.06v354.67h152l-20.57 69.367 35.801 10.602 149.33-504zm-88.312 298.03c-12.469-16.07-25.012-26.059-38.453-26.059-36.492 0-49.914 77.598-98 93.316v13.348h112.58l-5.5234 18.668-125.72-0.003907v-280h208.69z"/>
 </g>
</svg>
