<svg width="27" height="28" viewBox="0 0 27 28" fill="none" xmlns="http://www.w3.org/2000/svg">
<path d="M26.9873 11.4109L16.1373 11.4068L16.1415 0.556846L11.3815 0.555048L11.3773 11.405L0.527312 11.4009L0.525486 16.1609L11.3755 16.165L11.3713 27.015L16.1313 27.0168L16.1355 16.1668L26.9855 16.1709L26.9873 11.4109Z" fill="#838078"/>
<path d="M26.9873 11.4109L27.7873 11.4112L27.7876 10.6112L26.9876 10.6109L26.9873 11.4109ZM16.1373 11.4068L15.3373 11.4065L15.337 12.2065L16.137 12.2068L16.1373 11.4068ZM16.1415 0.556846L16.9415 0.557148L16.9418 -0.242852L16.1418 -0.243154L16.1415 0.556846ZM11.3815 0.555048L11.3818 -0.244952L10.5818 -0.245254L10.5815 0.554746L11.3815 0.555048ZM11.3773 11.405L11.377 12.205L12.177 12.2053L12.1773 11.4053L11.3773 11.405ZM0.527312 11.4009L0.527619 10.6009L-0.272381 10.6006L-0.272688 11.4006L0.527312 11.4009ZM0.525486 16.1609L-0.274514 16.1606L-0.274821 16.9606L0.525179 16.9609L0.525486 16.1609ZM11.3755 16.165L12.1755 16.1653L12.1758 15.3653L11.3758 15.365L11.3755 16.165ZM11.3713 27.015L10.5713 27.0147L10.571 27.8147L11.371 27.815L11.3713 27.015ZM16.1313 27.0168L16.131 27.8168L16.931 27.8171L16.9313 27.0171L16.1313 27.0168ZM16.1355 16.1668L16.1358 15.3668L15.3358 15.3665L15.3355 16.1665L16.1355 16.1668ZM26.9855 16.1709L26.9852 16.9709L27.7852 16.9712L27.7855 16.1712L26.9855 16.1709ZM26.9876 10.6109L16.1376 10.6068L16.137 12.2068L26.987 12.2109L26.9876 10.6109ZM16.9373 11.4071L16.9415 0.557148L15.3415 0.556544L15.3373 11.4065L16.9373 11.4071ZM16.1418 -0.243154L11.3818 -0.244952L11.3812 1.35505L16.1412 1.35685L16.1418 -0.243154ZM10.5815 0.554746L10.5773 11.4047L12.1773 11.4053L12.1815 0.55535L10.5815 0.554746ZM11.3776 10.605L0.527619 10.6009L0.527005 12.2009L11.377 12.205L11.3776 10.605ZM-0.272688 11.4006L-0.274514 16.1606L1.32549 16.1613L1.32731 11.4012L-0.272688 11.4006ZM0.525179 16.9609L11.3752 16.965L11.3758 15.365L0.525793 15.3609L0.525179 16.9609ZM10.5755 16.1647L10.5713 27.0147L12.1713 27.0153L12.1755 16.1653L10.5755 16.1647ZM11.371 27.815L16.131 27.8168L16.1316 26.2168L11.3716 26.215L11.371 27.815ZM16.9313 27.0171L16.9355 16.1671L15.3355 16.1665L15.3313 27.0165L16.9313 27.0171ZM16.1352 16.9668L26.9852 16.9709L26.9858 15.3709L16.1358 15.3668L16.1352 16.9668ZM27.7855 16.1712L27.7873 11.4112L26.1873 11.4106L26.1855 16.1706L27.7855 16.1712Z" fill="#FAFAFA"/>
</svg>
