<svg width="31" height="31" viewBox="0 0 31 31" fill="none" xmlns="http://www.w3.org/2000/svg">
<rect width="31" height="31" fill="#626262"/>
<g filter="url(#filter0_d_107_3136)">
<rect width="360" height="1149.42" rx="11.4282" transform="matrix(1 0.000377775 -0.000383566 1 -29.9131 -531.695)" fill="white"/>
</g>
<g filter="url(#filter1_d_107_3136)">
<rect x="-11.6519" y="-64.2812" width="321.573" height="272.869" rx="5.99967" fill="white"/>
</g>
<ellipse cx="15.1685" cy="15.5085" rx="15" ry="14.7859" fill="#FF0909" fill-opacity="0.1"/>
<path fill-rule="evenodd" clip-rule="evenodd" d="M14.0828 7.66668C12.1288 8.07689 11.1658 9.30582 11.0459 11.5424C11.0032 12.3394 10.9724 12.3092 11.827 12.3092C12.6535 12.3092 12.6326 12.3252 12.6326 11.6926C12.6326 9.94903 13.4312 9.18369 15.2505 9.18369C17.0573 9.18369 17.7774 9.8341 17.8532 11.5345C17.8896 12.3518 17.8446 12.3092 18.6698 12.3092C19.528 12.3092 19.4968 12.3394 19.4565 11.5462C19.3055 8.56912 17.1605 7.02059 14.0828 7.66668ZM10.7584 12.8429C10.4295 12.9 10.1353 13.0589 9.90035 13.3064C9.48416 13.7449 9.50889 13.524 9.49212 16.9488L9.47705 20.0124L9.60378 20.288C9.78896 20.6908 9.98087 20.8893 10.3604 21.0704L10.6978 21.2314H15.2505H19.8032L20.1407 21.0704C20.5202 20.8893 20.7121 20.6908 20.8973 20.288L21.024 20.0124L21.0089 16.9488C20.9941 13.923 20.9925 13.8826 20.8782 13.6715C20.7187 13.3768 20.4035 13.0858 20.0857 12.9395L19.8185 12.8167L15.4108 12.8086C12.9866 12.8042 10.893 12.8196 10.7584 12.8429ZM12.4874 16.0694C13.3273 16.4298 13.31 17.6414 12.4599 17.9966C11.9207 18.2219 11.242 17.8675 11.0832 17.2778C10.8717 16.4922 11.7371 15.7474 12.4874 16.0694ZM15.6077 16.0522C16.1519 16.257 16.4296 16.9623 16.1674 17.4737C15.7581 18.272 14.7424 18.2709 14.3326 17.4716C13.9231 16.6729 14.7654 15.7352 15.6077 16.0522ZM18.8728 16.1102C19.4709 16.3997 19.6287 17.1869 19.1889 17.6876C18.6707 18.2778 17.8119 18.1653 17.4886 17.4649C17.0765 16.5721 17.9867 15.6812 18.8728 16.1102Z" fill="#FF0000"/>
<defs>
<filter id="filter0_d_107_3136" x="-97.0141" y="-569.785" width="474.714" height="1263.83" filterUnits="userSpaceOnUse" color-interpolation-filters="sRGB">
<feFlood flood-opacity="0" result="BackgroundImageFix"/>
<feColorMatrix in="SourceAlpha" type="matrix" values="0 0 0 0 0 0 0 0 0 0 0 0 0 0 0 0 0 0 127 0" result="hardAlpha"/>
<feOffset dx="-9.5235" dy="19.047"/>
<feGaussianBlur stdDeviation="28.5705"/>
<feComposite in2="hardAlpha" operator="out"/>
<feColorMatrix type="matrix" values="0 0 0 0 0 0 0 0 0 0 0 0 0 0 0 0 0 0 0.1 0"/>
<feBlend mode="normal" in2="BackgroundImageFix" result="effect1_dropShadow_107_3136"/>
<feBlend mode="normal" in="SourceGraphic" in2="effect1_dropShadow_107_3136" result="shape"/>
</filter>
<filter id="filter1_d_107_3136" x="-30.6508" y="-79.2804" width="359.571" height="310.867" filterUnits="userSpaceOnUse" color-interpolation-filters="sRGB">
<feFlood flood-opacity="0" result="BackgroundImageFix"/>
<feColorMatrix in="SourceAlpha" type="matrix" values="0 0 0 0 0 0 0 0 0 0 0 0 0 0 0 0 0 0 127 0" result="hardAlpha"/>
<feOffset dy="3.99978"/>
<feGaussianBlur stdDeviation="9.49949"/>
<feComposite in2="hardAlpha" operator="out"/>
<feColorMatrix type="matrix" values="0 0 0 0 0 0 0 0 0 0 0 0 0 0 0 0 0 0 0.08 0"/>
<feBlend mode="normal" in2="BackgroundImageFix" result="effect1_dropShadow_107_3136"/>
<feBlend mode="normal" in="SourceGraphic" in2="effect1_dropShadow_107_3136" result="shape"/>
</filter>
</defs>
</svg>
