<svg width="16" height="16" viewBox="0 0 16 16" fill="none" xmlns="http://www.w3.org/2000/svg">
<g clip-path="url(#clip0_1031_3690)">
<path d="M13.0913 1L2.90867 1C2.41867 1 1.9765 1.19133 1.637 1.49467C1.25083 1.84467 1 2.3475 1 2.90867L1 13.0913C1 14.1437 1.85633 15 2.90867 15L13.0913 15C14.1437 15 15 14.1437 15 13.0913L15 2.90867C15 1.85633 14.1437 1 13.0913 1ZM11.5455 6.31533L7.36067 10.4967C7.30754 10.5501 7.24437 10.5925 7.17479 10.6215C7.10522 10.6504 7.0306 10.6653 6.95525 10.6653C6.87989 10.6653 6.80528 10.6504 6.73571 10.6215C6.66613 10.5925 6.60296 10.5501 6.54983 10.4967L4.45683 8.40833C4.34902 8.30064 4.28824 8.15462 4.28781 8.00223C4.28737 7.84984 4.3473 7.70348 4.4545 7.59517C4.56251 7.48766 4.70869 7.42731 4.86108 7.42731C5.01347 7.42731 5.15966 7.48766 5.26767 7.59517L6.95583 9.281L10.7323 5.50333C10.841 5.39981 10.9859 5.34288 11.136 5.34471C11.2861 5.34654 11.4296 5.40698 11.5357 5.51313C11.6419 5.61928 11.7023 5.76272 11.7041 5.91282C11.706 6.06292 11.649 6.2078 11.5455 6.3165L11.5455 6.31533Z" fill="#0A0A14"/>
</g>
<rect x="0.5" y="0.5" width="15" height="15" rx="2.5" stroke="black"/>
<defs>
<clipPath id="clip0_1031_3690">
<rect width="14" height="14" fill="white" transform="translate(1 1)"/>
</clipPath>
</defs>
</svg>
