<svg width="14" height="14" viewBox="0 0 14 14" fill="none" xmlns="http://www.w3.org/2000/svg">
<path d="M6.01997 10.22L10.9549 5.28497L9.97495 4.30498L6.01997 8.25996L4.02498 6.26497L3.04499 7.24497L6.01997 10.22ZM6.99997 13.9999C6.03164 13.9999 5.12164 13.8161 4.26998 13.4483C3.41832 13.0811 2.67749 12.5824 2.04749 11.9524C1.41749 11.3224 0.918862 10.5816 0.551597 9.72995C0.183866 8.87829 0 7.96829 0 6.99997C0 6.03164 0.183866 5.12164 0.551597 4.26998C0.918862 3.41832 1.41749 2.67749 2.04749 2.04749C2.67749 1.41749 3.41832 0.918629 4.26998 0.550897C5.12164 0.183632 6.03164 0 6.99997 0C7.96829 0 8.87829 0.183632 9.72995 0.550897C10.5816 0.918629 11.3224 1.41749 11.9524 2.04749C12.5824 2.67749 13.0811 3.41832 13.4483 4.26998C13.8161 5.12164 13.9999 6.03164 13.9999 6.99997C13.9999 7.96829 13.8161 8.87829 13.4483 9.72995C13.0811 10.5816 12.5824 11.3224 11.9524 11.9524C11.3224 12.5824 10.5816 13.0811 9.72995 13.4483C8.87829 13.8161 7.96829 13.9999 6.99997 13.9999Z" fill="#31D0AA" fill-opacity="0.9"/>
</svg>
