<svg width="12" height="12" viewBox="0 0 12 12" fill="none" xmlns="http://www.w3.org/2000/svg">
<path d="M11.7759 11.6763C12.0747 11.3776 12.0747 10.8797 11.7759 10.6805L6.99585 6L11.5768 1.3195C11.8755 1.02075 11.8755 0.522822 11.5768 0.224066C11.278 -0.0746888 10.7801 -0.0746888 10.4813 0.224066L5.90041 5.00415L1.3195 0.323651C1.02075 0.0248962 0.522822 0.0248962 0.224066 0.323651C-0.0746888 0.622407 -0.0746888 1.02075 0.224066 1.3195L4.90456 6L0.224066 10.6805C-0.0746888 10.9793 -0.0746888 11.4772 0.224066 11.7759C0.522822 12.0747 1.02075 12.0747 1.21992 11.7759L5.90041 7.09544L10.5809 11.6763C10.8797 11.9751 11.3776 11.9751 11.7759 11.6763Z" fill="white"/>
</svg>
