<svg width="11" height="10" viewBox="0 0 11 10" fill="none" xmlns="http://www.w3.org/2000/svg">
<path d="M10.4539 9.28673C10.7029 9.05735 10.7029 8.67505 10.4539 8.52213L6.4705 4.9285L10.2879 1.33487C10.5369 1.10549 10.5369 0.723193 10.2879 0.493813C10.039 0.264432 9.62403 0.264432 9.37506 0.493813L5.55764 4.1639L1.74021 0.570273C1.49125 0.340892 1.07631 0.340892 0.827347 0.570273C0.578384 0.799653 0.578384 1.10549 0.827347 1.33487L4.72776 4.9285L0.827347 8.52213C0.578384 8.75151 0.578384 9.13381 0.827347 9.36319C1.07631 9.59257 1.49125 9.59257 1.65722 9.36319L5.55764 5.76957L9.45805 9.28673C9.70702 9.51611 10.122 9.51611 10.4539 9.28673Z" fill="#838078"/>
</svg>
