<svg width="41" height="41" viewBox="0 0 41 41" fill="none" xmlns="http://www.w3.org/2000/svg">
<rect x="0.863037" y="0.290039" width="40" height="40" rx="20" fill="#FAFAFA"/>
<path d="M26.639 25.9664C26.9377 25.6676 26.9377 25.1697 26.639 24.9705L21.8589 20.29L26.4398 15.6095C26.7386 15.3108 26.7386 14.8129 26.4398 14.5141C26.141 14.2154 25.6431 14.2154 25.3444 14.5141L20.7635 19.2942L16.1825 14.6137C15.8838 14.3149 15.3859 14.3149 15.0871 14.6137C14.7883 14.9124 14.7883 15.3108 15.0871 15.6095L19.7676 20.29L15.0871 24.9705C14.7883 25.2693 14.7883 25.7672 15.0871 26.066C15.3859 26.3647 15.8838 26.3647 16.083 26.066L20.7635 21.3855L25.4439 25.9664C25.7427 26.2651 26.2406 26.2651 26.639 25.9664Z" fill="#838078"/>
</svg>
