<svg xmlns="http://www.w3.org/2000/svg" width="16" height="16" fill="none" viewBox="0 0 16 16">
  <circle cx="8" cy="8" r="8" fill="#F3BF24" fill-opacity=".2"/>
  <g clip-path="url(#a)">
    <path fill="#FCC62D" fill-rule="evenodd" d="M11.165 8.028v.175c0 .969-1.612 1.752-3.605 1.752a5.728 5.728 0 0 1-2.746-.618c.227.875 1.741 1.597 3.58 1.597 1.994 0 3.606-.85 3.606-1.819a1.34 1.34 0 0 0-.83-1.082" clip-rule="evenodd"/>
    <path fill="#E4AF18" fill-rule="evenodd" d="M8.394 10.934c-1.994 0-3.606-.85-3.606-1.819V10.3c0 .963 1.612 1.751 3.606 1.751 1.993 0 3.606-.788 3.606-1.751V9.115c0 .969-1.613 1.819-3.606 1.819Z" clip-rule="evenodd"/>
    <path fill="#CE9912" fill-rule="evenodd" d="M5.2 11.124c.088.078.18.149.279.212v-1.154a2.308 2.308 0 0 1-.278-.227v1.17Zm6.11-.942v1.154c.098-.063.191-.134.278-.212V9.955c-.086.083-.18.159-.278.227ZM5.757 11.5l.278.13v-1.14a3.488 3.488 0 0 1-.278-.133V11.5Zm4.997.13.278-.13v-1.148l-.278.134v1.143Zm-4.44.107.278.088v-1.133l-.279-.093v1.138Zm3.883.088.279-.088v-1.143a2.39 2.39 0 0 1-.279.087v1.144Zm-3.188.098.273.051v-1.123l-.273-.051v1.123Zm2.493.051.278-.051v-1.128c-.09.02-.182.037-.278.051v1.128Zm-1.664.062.278.016v-1.118l-.278-.016v1.118Zm.835.016.278-.016v-1.118l-.278.016v1.118Z" clip-rule="evenodd"/>
    <path fill="#E4AF18" fill-rule="evenodd" d="M7.56 8.837c-1.989 0-3.606-.85-3.606-1.818v1.185c0 .968 1.617 1.751 3.606 1.751 1.988 0 3.606-.783 3.606-1.751V7.019c0 .968-1.613 1.818-3.606 1.818Z" clip-rule="evenodd"/>
    <path fill="#CE9912" fill-rule="evenodd" d="M4.366 9.028c.089.077.183.148.283.21V8.086a2.318 2.318 0 0 1-.278-.227l-.005 1.17Zm6.11-.943V9.24c.097-.063.19-.134.277-.211v-1.17c-.086.083-.18.159-.278.227ZM4.926 9.41l.273.124V8.389a2.88 2.88 0 0 1-.273-.134v1.154Zm4.992.124c.1-.042.192-.085.278-.13V8.256a2.607 2.607 0 0 1-.278.134v1.144Zm-4.44.108.278.087V8.595l-.278-.093v1.139Zm3.884.087.278-.087v-1.14a3.3 3.3 0 0 1-.278.093v1.133Zm-3.189.098.278.052V8.755a6.075 6.075 0 0 1-.278-.052v1.123Zm2.498.046.278-.046V8.698l-.278.052v1.122Zm-1.664.067c.088.01.18.01.274.016V8.842c-.093 0-.186-.01-.274-.015v1.112Zm.83.016.278-.016V8.822l-.278.015v1.118Z" clip-rule="evenodd"/>
    <path fill="#FFD949" fill-rule="evenodd" d="M11.073 8.6c-.371.773-1.803 1.355-3.513 1.355a6.769 6.769 0 0 1-1.757-.221 4.73 4.73 0 0 0 2.591.638c1.901 0 3.055-.741 3.055-1.257a.7.7 0 0 0-.376-.515Zm-2.818-.04c-1.993 0-3.606-.784-3.606-1.752v-.799a1.252 1.252 0 0 0-.695 1.015c0 .968 1.617 1.813 3.606 1.813a5.82 5.82 0 0 0 2.477-.51 6.743 6.743 0 0 1-1.782.232Z" clip-rule="evenodd"/>
    <path fill="#E4AF18" fill-rule="evenodd" d="M8.255 7.441c-1.994 0-3.606-.85-3.606-1.818v1.185c0 .963 1.612 1.751 3.606 1.751 1.993 0 3.606-.788 3.606-1.751V5.623c0 .968-1.613 1.818-3.606 1.818Z" clip-rule="evenodd"/>
    <path fill="#CE9912" fill-rule="evenodd" d="M5.061 7.627c.087.08.18.152.278.216V6.684a2.317 2.317 0 0 1-.278-.221v1.164Zm6.104-.943v1.16c.1-.065.195-.137.284-.217V6.463c-.087.08-.18.155-.279.221h-.005ZM5.617 8.008l.279.129V6.993l-.279-.139v1.154Zm4.997.129.278-.129V6.854l-.278.14v1.143Zm-4.44.108c.09.031.182.059.278.083V7.194l-.278-.087v1.138Zm3.884.083c.096-.024.189-.052.278-.083V7.107l-.278.087v1.134Zm-3.189.103.278.051V7.35a6.075 6.075 0 0 1-.278-.052v1.134Zm2.493.051.279-.051V7.297a3.33 3.33 0 0 1-.279.052v1.133ZM7.7 8.544l.278.015V7.442L7.7 7.426v1.118Zm.834.015.278-.015V7.426l-.278.016v1.117Z" clip-rule="evenodd"/>
    <path fill="#FCC62D" fill-rule="evenodd" d="M11.86 5.623c0 .968-1.612 1.818-3.605 1.818-1.994 0-3.606-.85-3.606-1.818 0-.969 1.612-1.674 3.606-1.674 1.993 0 3.606.705 3.606 1.674Z" clip-rule="evenodd"/>
    <path fill="#FFD949" fill-rule="evenodd" d="M8.255 6.88c-1.9 0-3.054-.742-3.054-1.257 0-.51 1.154-1.257 3.054-1.257 1.901 0 3.055.747 3.055 1.257 0 .515-1.154 1.256-3.055 1.256Z" clip-rule="evenodd"/>
    <path fill="#F0C41B" fill-rule="evenodd" d="M9.198 5.813c.113-.02.18-.092.154-.175l-.026-.087a.257.257 0 0 0-.185-.14c-.129-.267-.448-.365-.922-.365h-.062a1.205 1.205 0 0 1-.453-.052.5.5 0 0 1-.119-.061c-.01-.01-.041 0-.041.005a.439.439 0 0 0 0 .072c.02.103 0 .087-.103.196a.706.706 0 0 0-.14.206.257.257 0 0 0-.185.144l-.025.082c-.026.083.04.155.154.175a.618.618 0 0 0 .474.49l-.015.144a.124.124 0 0 1-.088.093l-.608.221c.399.081.804.121 1.21.119.404.003.806-.035 1.201-.114l-.598-.226a.124.124 0 0 1-.082-.093l-.02-.144a.618.618 0 0 0 .479-.49Z" clip-rule="evenodd"/>
  </g>
  <defs>
    <clipPath id="a">
      <path fill="#fff" d="M0 0h8.046v8.103H0z" transform="translate(3.954 3.949)"/>
    </clipPath>
  </defs>
</svg>
