<svg width="14" height="14" viewBox="0 0 14 14" fill="none" xmlns="http://www.w3.org/2000/svg">
<g clip-path="url(#clip0_9_285)">
<path d="M9.6 3.41016H0.99C0.44 3.41016 0 3.86016 0 4.40016V13.0102C0 13.5602 0.44 14.0002 0.99 14.0002H9.6C10.14 14.0002 10.58 13.5602 10.58 13.0102V4.40016C10.58 3.86016 10.14 3.41016 9.6 3.41016Z" fill="#34526E"/>
<path d="M13.0199 0H4.40992C3.85992 0 3.41992 0.45 3.41992 0.99V2.5H10.4699C11.0099 2.5 11.4499 2.95 11.4499 3.49V10.59H13.0199C13.5599 10.59 13.9999 10.15 13.9999 9.6V0.99C13.9999 0.45 13.5599 0 13.0199 0Z" fill="#34526E"/>
</g>
<defs>
<clipPath id="clip0_9_285">
<rect width="14" height="14" fill="white"/>
</clipPath>
</defs>
</svg>
