<svg width="10" height="13" viewBox="0 0 10 13" fill="none" xmlns="http://www.w3.org/2000/svg">
<path d="M9.30645 0.646973H2.48556C2.42956 0.646973 2.38375 0.692785 2.38375 0.748777V1.46141C2.38375 1.5174 2.42956 1.56321 2.48556 1.56321H8.79743V10.3184C8.79743 10.3744 8.84324 10.4202 8.89923 10.4202H9.61186C9.66785 10.4202 9.71367 10.3744 9.71367 10.3184V1.05419C9.71367 0.828948 9.53169 0.646973 9.30645 0.646973ZM7.67758 2.27584H1.1621C0.936858 2.27584 0.754883 2.45782 0.754883 2.68306V9.43651C0.754883 9.54467 0.79815 9.64775 0.874503 9.7241L3.07984 11.9294C3.10784 11.9574 3.13965 11.9803 3.17401 11.9994V12.0236H3.22746C3.272 12.0402 3.31908 12.0491 3.36744 12.0491H7.67758C7.90282 12.0491 8.0848 11.8671 8.0848 11.6418V2.68306C8.0848 2.45782 7.90282 2.27584 7.67758 2.27584ZM3.17274 10.7281L2.07707 9.63121H3.17274V10.7281ZM7.16856 11.1328H3.98717V9.32579C3.98717 9.04456 3.75938 8.81677 3.47815 8.81677H1.67112V3.19208H7.16856V11.1328Z" fill="#838078"/>
</svg>
