<svg width="13" height="13" viewBox="0 0 13 13" fill="none" xmlns="http://www.w3.org/2000/svg">
<path d="M12.6389 11.9664C12.9377 11.6676 12.9377 11.1697 12.6389 10.9705L7.85883 6.29004L12.4397 1.60954C12.7385 1.31079 12.7385 0.812861 12.4397 0.514105C12.141 0.21535 11.6431 0.21535 11.3443 0.514105L6.76339 5.29419L2.18248 0.61369C1.88372 0.314935 1.3858 0.314935 1.08704 0.61369C0.788287 0.912446 0.788287 1.31079 1.08704 1.60954L5.76754 6.29004L1.08704 10.9705C0.788287 11.2693 0.788287 11.7672 1.08704 12.066C1.3858 12.3647 1.88372 12.3647 2.08289 12.066L6.76339 7.38548L11.4439 11.9664C11.7426 12.2651 12.2406 12.2651 12.6389 11.9664Z" fill="#838078"/>
</svg>
