<svg width="20" height="20" viewBox="0 0 20 20" fill="none" xmlns="http://www.w3.org/2000/svg">
<path d="M10 20C15.4706 20 20 15.4608 20 10C20 4.52941 15.4608 0 9.9902 0C4.52941 0 0 4.52941 0 10C0 15.4608 4.53922 20 10 20ZM10 18.3333C5.37255 18.3333 1.67647 14.6275 1.67647 10C1.67647 5.37255 5.36275 1.66667 9.9902 1.66667C14.6176 1.66667 18.3333 5.37255 18.3333 10C18.3333 14.6275 14.6275 18.3333 10 18.3333ZM7.46078 15.7745H12.5294C13.1863 15.7745 13.5882 15.402 13.6176 14.7451L13.951 6.9902H14.7255C14.9608 6.9902 15.1373 6.80392 15.1471 6.57843C15.1569 6.34314 14.9608 6.15686 14.7255 6.15686H12.3726V5.36275C12.3726 4.54902 11.8333 4.03922 10.9706 4.03922H8.9902C8.13726 4.03922 7.60784 4.54902 7.60784 5.36275V6.15686H5.2451C5.01961 6.15686 4.82353 6.34314 4.82353 6.57843C4.82353 6.80392 5.01961 6.9902 5.2451 6.9902H6.04902L6.39216 14.7451C6.41177 15.402 6.79412 15.7745 7.46078 15.7745ZM8.59804 6.15686V5.41177C8.59804 5.15686 8.78431 4.9902 9.04902 4.9902H10.9118C11.1765 4.9902 11.3627 5.15686 11.3627 5.41177V6.15686H8.59804ZM8.30392 14.2549C8.10784 14.2549 7.95098 14.1176 7.95098 13.9216L7.7451 8.19608C7.7451 7.9902 7.87255 7.85294 8.10784 7.85294C8.30392 7.85294 8.46078 7.98039 8.46078 8.19608L8.64706 13.9216C8.64706 14.1176 8.51961 14.2549 8.30392 14.2549ZM9.98039 14.2549C9.76471 14.2549 9.61765 14.1176 9.61765 13.9216V8.19608C9.61765 7.9902 9.7549 7.85294 9.98039 7.85294C10.1961 7.85294 10.3431 7.9902 10.3431 8.19608V13.9216C10.3431 14.1176 10.1961 14.2549 9.98039 14.2549ZM11.6471 14.2549C11.4314 14.2549 11.3039 14.1176 11.3039 13.9216L11.4902 8.19608C11.5 7.98039 11.6471 7.85294 11.8529 7.85294C12.0784 7.85294 12.2059 7.9902 12.2059 8.19608L12 13.9216C12 14.1176 11.8431 14.2549 11.6471 14.2549Z" fill="#E1251A"/>
</svg>
