<svg width="31" height="30" viewBox="0 0 31 30" fill="none" xmlns="http://www.w3.org/2000/svg">
<rect width="31" height="30" fill="#626262"/>
<g filter="url(#filter0_d_107_3136)">
<rect width="360" height="1149.42" rx="11.4282" transform="matrix(1 0.000377775 -0.000383566 1 -29.9131 -909.695)" fill="white"/>
</g>
<g filter="url(#filter1_d_107_3136)">
<rect x="-11.7251" y="-124.633" width="321.573" height="223.474" rx="5.99967" fill="white"/>
</g>
<ellipse cx="15.1685" cy="15.1218" rx="15" ry="14.7859" fill="#5566E3" fill-opacity="0.1"/>
<path fill-rule="evenodd" clip-rule="evenodd" d="M12.7458 9.33049C11.7871 9.53184 10.7872 9.84468 10.042 10.1765C9.50737 10.4146 8.33671 12.7835 7.89002 14.5313C7.53694 15.9127 7.35794 18.4676 7.57465 19.0323C7.6451 19.2159 9.34662 20.1972 10.2462 20.573C11.3851 21.0489 11.4279 21.0514 11.6899 20.6594C12.2297 19.8516 12.2933 19.6783 12.0835 19.5873C11.4378 19.3074 11.0197 19.0628 11.0506 18.9831C11.1213 18.8003 11.2934 18.7822 11.6207 18.9231C13.7945 19.8588 16.3908 19.8815 18.5684 18.9839C19.0665 18.7785 19.0754 18.7774 19.2151 18.9055C19.3733 19.0505 19.1273 19.226 18.2739 19.5769C18.054 19.6674 18.0645 19.7098 18.4687 20.3657C18.9228 21.1024 18.8297 21.0885 20.0366 20.6002C20.9506 20.2303 22.7208 19.2137 22.7787 19.0253C22.814 18.9103 22.8569 18.1727 22.8569 17.6816C22.8569 15.2146 22.1861 12.9341 20.8132 10.7343C20.4634 10.1739 19.9159 9.90076 18.342 9.50172C17.3157 9.2415 17.3425 9.23649 17.1092 9.7313C16.9282 10.115 16.9194 10.1215 16.6418 10.0781C15.8907 9.96071 14.5227 9.96029 13.7248 10.0773C13.4349 10.1198 13.4235 10.1124 13.2697 9.78336C13.1151 9.45254 13.0048 9.29433 12.9318 9.29893C12.9038 9.3007 12.8201 9.31489 12.7458 9.33049ZM13.1497 14.3013C14.087 14.7399 14.2966 16.0846 13.5507 16.8741C12.8068 17.6615 11.5294 17.2157 11.2899 16.0851C11.0324 14.87 12.1252 13.8219 13.1497 14.3013ZM18.2852 14.3202C19.1963 14.7705 19.3955 16.0949 18.667 16.8587C17.89 17.6733 16.6362 17.2264 16.3881 16.0464C16.1349 14.8421 17.2634 13.8152 18.2852 14.3202Z" fill="#5566E3"/>
<defs>
<filter id="filter0_d_107_3136" x="-97.0141" y="-947.785" width="474.714" height="1263.83" filterUnits="userSpaceOnUse" color-interpolation-filters="sRGB">
<feFlood flood-opacity="0" result="BackgroundImageFix"/>
<feColorMatrix in="SourceAlpha" type="matrix" values="0 0 0 0 0 0 0 0 0 0 0 0 0 0 0 0 0 0 127 0" result="hardAlpha"/>
<feOffset dx="-9.5235" dy="19.047"/>
<feGaussianBlur stdDeviation="28.5705"/>
<feComposite in2="hardAlpha" operator="out"/>
<feColorMatrix type="matrix" values="0 0 0 0 0 0 0 0 0 0 0 0 0 0 0 0 0 0 0.1 0"/>
<feBlend mode="normal" in2="BackgroundImageFix" result="effect1_dropShadow_107_3136"/>
<feBlend mode="normal" in="SourceGraphic" in2="effect1_dropShadow_107_3136" result="shape"/>
</filter>
<filter id="filter1_d_107_3136" x="-30.7241" y="-139.632" width="359.571" height="261.472" filterUnits="userSpaceOnUse" color-interpolation-filters="sRGB">
<feFlood flood-opacity="0" result="BackgroundImageFix"/>
<feColorMatrix in="SourceAlpha" type="matrix" values="0 0 0 0 0 0 0 0 0 0 0 0 0 0 0 0 0 0 127 0" result="hardAlpha"/>
<feOffset dy="3.99978"/>
<feGaussianBlur stdDeviation="9.49949"/>
<feComposite in2="hardAlpha" operator="out"/>
<feColorMatrix type="matrix" values="0 0 0 0 0 0 0 0 0 0 0 0 0 0 0 0 0 0 0.08 0"/>
<feBlend mode="normal" in2="BackgroundImageFix" result="effect1_dropShadow_107_3136"/>
<feBlend mode="normal" in="SourceGraphic" in2="effect1_dropShadow_107_3136" result="shape"/>
</filter>
</defs>
</svg>
