<svg width="20" height="20" viewBox="0 0 20 20" fill="none" xmlns="http://www.w3.org/2000/svg">
<path d="M10 20C15.4706 20 20 15.4608 20 10C20 4.52941 15.4608 0 9.9902 0C4.52941 0 0 4.52941 0 10C0 15.4608 4.53922 20 10 20ZM10 18.3333C5.37255 18.3333 1.67647 14.6275 1.67647 10C1.67647 5.37255 5.36275 1.66667 9.9902 1.66667C14.6176 1.66667 18.3333 5.37255 18.3333 10C18.3333 14.6275 14.6275 18.3333 10 18.3333ZM13.8726 7.2549L14.5784 6.53922C14.8922 6.20588 14.9216 5.85294 14.6275 5.55882L14.402 5.33333C14.1078 5.03922 13.7451 5.06863 13.4314 5.38235L12.7157 6.08824L13.8726 7.2549ZM6.85294 14.2451L13.2843 7.83333L12.1275 6.67647L5.70588 13.0784L5.14706 14.3824C5.04902 14.6275 5.28431 14.8333 5.5 14.7549L6.85294 14.2451Z" fill="#1293F5"/>
</svg>
