<svg width="12" height="13" viewBox="0 0 12 13" fill="none" xmlns="http://www.w3.org/2000/svg">
<g clip-path="url(#clip0_757_3308)">
<path d="M8.97 9.75908C8.1153 10.4106 7.07455 10.7715 6 10.7891C2.5 10.7891 0.5 6.78907 0.5 6.78907C1.12194 5.63002 1.98457 4.61738 3.03 3.81908M4.95 2.90907C5.29417 2.82851 5.64653 2.78824 6 2.78908C9.5 2.78908 11.5 6.78907 11.5 6.78907C11.1965 7.35688 10.8345 7.89144 10.42 8.38407M7.06 7.84907C6.92268 7.99645 6.75707 8.11465 6.57308 8.19664C6.38908 8.27862 6.19045 8.3227 5.98905 8.32626C5.78764 8.32981 5.58758 8.29276 5.4008 8.21732C5.21403 8.14188 5.04436 8.02959 4.90192 7.88715C4.75949 7.74471 4.6472 7.57505 4.57175 7.38827C4.49631 7.20149 4.45926 7.00144 4.46282 6.80003C4.46637 6.59862 4.51045 6.4 4.59244 6.216C4.67442 6.032 4.79263 5.8664 4.94 5.72908" stroke="#1293F5" stroke-linecap="round" stroke-linejoin="round"/>
<path d="M0.5 1.28906L11.5 12.2891" stroke="#1293F5" stroke-linecap="round" stroke-linejoin="round"/>
</g>
<defs>
<clipPath id="clip0_757_3308">
<rect width="12" height="12" fill="white" transform="translate(0 0.789062)"/>
</clipPath>
</defs>
</svg>
