<svg width="16" height="12" viewBox="0 0 16 12" fill="none" xmlns="http://www.w3.org/2000/svg">
<path fill-rule="evenodd" clip-rule="evenodd" d="M12.2121 1.04945C11.9663 1.29202 11.1949 2.04734 10.4979 2.72792C8.19441 4.97689 3.81255 9.25955 2.92376 10.1306C2.35651 10.6865 2.36759 10.5765 2.83206 11.0414C3.30031 11.5101 3.17564 11.5318 3.8551 10.8633C4.37564 10.3511 5.57491 9.17454 9.87405 4.95835C13.0406 1.85289 13.4865 1.41111 13.4919 1.37346C13.4993 1.32242 12.7591 0.608398 12.6988 0.608398C12.6721 0.608398 12.5109 0.754515 12.2121 1.04945ZM7.52892 1.76358C4.7837 1.96267 2.21646 3.49845 0.722308 5.83543C0.54561 6.11178 0.543681 6.07513 0.751508 6.38913C1.45045 7.4451 2.9321 8.89458 3.17581 8.76081C3.19841 8.74841 3.72629 8.23456 4.34888 7.61892L5.48086 6.4996L5.46471 6.38612C5.24576 4.84751 6.49404 3.50187 8.14847 3.49302L8.54107 3.49092L8.91442 3.12323C10.2181 1.83927 10.1053 1.97355 9.91537 1.93268C9.2155 1.78202 8.23371 1.71246 7.52892 1.76358ZM12.2127 3.68614C10.8033 5.05032 10.6218 5.22872 10.6118 5.26034C10.6059 5.27895 10.6217 5.3654 10.6468 5.45246C11.2091 7.39581 9.27661 9.27024 7.34539 8.65475C7.26524 8.62922 7.1801 8.60832 7.15618 8.60832C7.10286 8.60832 5.72279 9.97909 5.72279 10.032C5.72279 10.0829 6.0464 10.1767 6.58584 10.2822C9.98435 10.9466 13.5207 9.40067 15.4995 6.3855C15.707 6.0694 15.7064 6.10732 15.5084 5.80474C14.9418 4.93908 14.2041 4.1597 13.3684 3.54403C13.1061 3.35082 12.8153 3.16157 12.7806 3.16157C12.7663 3.16157 12.5108 3.39763 12.2127 3.68614Z" fill="#FF0000"/>
</svg>
