<svg width="14" height="14" viewBox="0 0 14 14" fill="none" xmlns="http://www.w3.org/2000/svg">
<path d="M7 14C10.8294 14 14 10.8225 14 7C14 3.17059 10.8225 0 6.99314 0C3.17059 0 0 3.17059 0 7C0 10.8225 3.17745 14 7 14ZM6.23137 10.3559C5.99804 10.3559 5.80588 10.2598 5.62745 10.0196L3.9049 7.90588C3.80196 7.76863 3.7402 7.61765 3.7402 7.4598C3.7402 7.15098 3.98039 6.89706 4.28922 6.89706C4.48823 6.89706 4.63922 6.95882 4.81078 7.18529L6.20392 8.98333L9.13431 4.27549C9.26471 4.06961 9.44314 3.9598 9.62157 3.9598C9.92353 3.9598 10.2049 4.16569 10.2049 4.48823C10.2049 4.63922 10.1157 4.79706 10.0333 4.94118L6.80784 10.0196C6.66373 10.2461 6.46471 10.3559 6.23137 10.3559Z" fill="#31D0AA" fill-opacity="0.9"/>
</svg>
