<svg width="29" height="28" viewBox="0 0 29 28" fill="none" xmlns="http://www.w3.org/2000/svg">
<g id="vuesax/bold/tick-circle">
<g id="vuesax/bold/tick-circle_2">
<g id="tick-circle">
<path id="Vector" d="M14.6527 2.63135C8.35556 2.63135 3.22412 7.76278 3.22412 14.0599C3.22412 20.3571 8.35556 25.4885 14.6527 25.4885C20.9499 25.4885 26.0813 20.3571 26.0813 14.0599C26.0813 7.76278 20.9499 2.63135 14.6527 2.63135ZM20.1156 11.4314L13.6356 17.9114C13.4756 18.0714 13.2584 18.1628 13.0298 18.1628C12.8013 18.1628 12.5841 18.0714 12.4241 17.9114L9.18984 14.6771C8.85841 14.3456 8.85841 13.7971 9.18984 13.4656C9.52127 13.1342 10.0698 13.1342 10.4013 13.4656L13.0298 16.0942L18.9041 10.2199C19.2356 9.8885 19.7841 9.8885 20.1156 10.2199C20.447 10.5514 20.447 11.0885 20.1156 11.4314Z" fill="#1B8B4F"/>
</g>
</g>
</g>
</svg>
