<svg width="36" height="36" viewBox="0 0 36 36" fill="none" xmlns="http://www.w3.org/2000/svg">
<circle cx="18" cy="18" r="18" fill="#23A26D" fill-opacity="0.12"/>
<path d="M18 7C11.939 7 7 11.939 7 18C7 24.061 11.939 29 18 29C24.061 29 29 24.061 29 18C29 11.939 24.061 7 18 7ZM23.258 15.47L17.021 21.707C16.867 21.861 16.658 21.949 16.438 21.949C16.218 21.949 16.009 21.861 15.855 21.707L12.742 18.594C12.423 18.275 12.423 17.747 12.742 17.428C13.061 17.109 13.589 17.109 13.908 17.428L16.438 19.958L22.092 14.304C22.411 13.985 22.939 13.985 23.258 14.304C23.577 14.623 23.577 15.14 23.258 15.47Z" fill="#23A26D"/>
</svg>
