<svg width="18" height="18" viewBox="0 0 18 18" fill="none" xmlns="http://www.w3.org/2000/svg">
<path d="M9.00008 0.666748C4.40008 0.666748 0.666748 4.40008 0.666748 9.00008C0.666748 13.6001 4.40008 17.3334 9.00008 17.3334C13.6001 17.3334 17.3334 13.6001 17.3334 9.00008C17.3334 4.40008 13.6001 0.666748 9.00008 0.666748ZM9.00008 15.6667C5.32508 15.6667 2.33341 12.6751 2.33341 9.00008C2.33341 5.32508 5.32508 2.33341 9.00008 2.33341C12.6751 2.33341 15.6667 5.32508 15.6667 9.00008C15.6667 12.6751 12.6751 15.6667 9.00008 15.6667ZM12.8251 5.31675L7.33341 10.8084L5.17508 8.65841L4.00008 9.83341L7.33341 13.1667L14.0001 6.50008L12.8251 5.31675Z" fill="#008849"/>
</svg>
