<svg width="31" height="30" viewBox="0 0 31 30" fill="none" xmlns="http://www.w3.org/2000/svg">
<ellipse cx="15.0371" cy="15.1765" rx="15" ry="14.7859" fill="#FAFAFA"/>
<path fill-rule="evenodd" clip-rule="evenodd" d="M10.2507 9.59197C9.7374 9.6909 9.22952 10.1878 9.08857 10.729C9.02617 10.9686 9.02661 18.6963 9.08904 18.9611C9.21692 19.5035 9.65297 19.9333 10.1913 20.0474C10.4677 20.106 20.0558 20.106 20.3322 20.0474C20.8705 19.9333 21.3065 19.5035 21.4344 18.9611C21.4969 18.6963 21.4973 10.9686 21.4349 10.729C21.2907 10.1753 20.7833 9.68816 20.248 9.58939C20.059 9.55451 10.4321 9.557 10.2507 9.59197ZM20.1727 10.5402C20.4374 10.6016 20.5054 10.7228 20.5197 11.1585C20.532 11.5313 20.5157 11.5668 20.3548 11.5206C20.294 11.5032 18.4401 11.4932 15.2617 11.4932C12.0833 11.4932 10.2295 11.5032 10.1687 11.5206C10.0077 11.5668 9.99151 11.5313 10.0037 11.1585C10.0178 10.73 10.088 10.6005 10.3381 10.5414C10.4716 10.5099 20.0368 10.5087 20.1727 10.5402ZM20.2998 12.4941C20.6058 12.6484 20.6321 13.5002 20.3287 13.4301C20.1209 13.3822 10.4026 13.3822 10.1947 13.4301C9.8914 13.5002 9.91769 12.6484 10.2236 12.4941C10.3741 12.4182 20.1494 12.4182 20.2998 12.4941ZM20.2998 14.3977C20.4545 14.4757 20.5007 14.5868 20.5178 14.9227C20.5392 15.3413 20.6802 15.3004 19.2126 15.3009C17.465 15.3015 17.1206 15.42 16.7574 16.1456C16.0315 17.5961 14.4919 17.5961 13.766 16.1456C13.4037 15.4216 13.0546 15.3015 11.3109 15.3009C9.84328 15.3004 9.98429 15.3413 10.0056 14.9227C10.0228 14.5868 10.0689 14.4757 10.2236 14.3977C10.3741 14.3218 20.1494 14.3218 20.2998 14.3977Z" fill="#838078"/>
</svg>
