<svg width="15" height="14" viewBox="0 0 15 14" fill="none" xmlns="http://www.w3.org/2000/svg">
<path d="M7.28122 8.68C7.63309 8.68 7.86735 8.4672 7.86735 8.148V7.72333C7.86735 7.29773 8.04282 6.92533 8.39469 6.76573C9.27389 6.34107 9.74242 5.43667 9.56695 4.5332C9.39055 3.68293 8.62895 2.99133 7.69095 2.83173C6.98815 2.72533 6.28442 2.88493 5.75709 3.31053C5.22975 3.73613 4.93669 4.3204 4.93669 4.9588C4.93669 5.27707 5.17095 5.4908 5.52282 5.4908C5.87469 5.4908 6.10895 5.27707 6.10895 4.9588C6.10895 4.6396 6.28442 4.3204 6.51962 4.1608C6.81175 3.948 7.16362 3.8948 7.51549 3.948C7.98402 4.0012 8.39469 4.3736 8.45349 4.7992C8.57015 5.22387 8.33589 5.70267 7.86735 5.91547C7.16362 6.28787 6.69509 6.97947 6.69509 7.77653V8.148C6.69509 8.4672 6.92935 8.68 7.28122 8.68ZM8.20335 10.4953C8.20335 9.8952 7.77682 9.52 7.26535 9.52C6.75202 9.52 6.33669 9.8952 6.33669 10.36C6.33669 10.8248 6.75202 11.2 7.26535 11.2C7.77682 11.2 8.19215 10.8248 8.20335 10.4953ZM0.27002 7C0.27002 3.13973 3.40975 0 7.27002 0C11.1303 0 14.27 3.13973 14.27 7C14.27 10.8603 11.1303 14 7.27002 14C3.40975 14 0.27002 10.8603 0.27002 7Z" fill="#838078"/>
</svg>
