<svg width="30" height="30" viewBox="0 0 30 30" fill="none" xmlns="http://www.w3.org/2000/svg">
<ellipse cx="15" cy="14.7859" rx="15" ry="14.7859" fill="#EDF3E6"/>
<path d="M7 19.5122V9.56098L15.2927 5L24 9.56098V19.5122L15.7073 24.4878L7 19.5122Z" fill="#D4FAA9" stroke="#1A253C" stroke-width="0.5"/>
<path d="M19.3958 14.8427C19.4227 14.8761 19.4392 14.9166 19.4392 14.9604C19.4392 15.0481 19.3753 15.1227 19.2852 15.1514C18.9205 15.3745 16.9688 16.6391 15.5073 18.9654C15.4786 19.0273 15.4182 19.077 15.3422 19.0919C15.3224 19.0961 15.3026 19.0974 15.2828 19.0974C15.2028 19.0974 15.128 19.0656 15.0865 19.0051C15.0754 18.9909 15.0667 18.9754 15.0601 18.9587C14.8705 18.6411 13.6137 16.6332 11.2898 15.14C11.2054 15.109 11.1464 15.0367 11.1464 14.9525V14.948C11.1454 14.9093 11.157 14.8704 11.1815 14.8362C11.2094 14.7975 11.2511 14.7684 11.2992 14.7527C11.6009 14.5707 13.5752 13.323 15.0651 10.9633C15.0882 10.8727 15.1825 10.8047 15.295 10.8047C15.3413 10.8047 15.3844 10.8163 15.4208 10.836C15.471 10.8605 15.5095 10.9004 15.5281 10.9486C15.6727 11.1948 16.9287 13.253 19.3116 14.7767C19.3456 14.7926 19.3748 14.8152 19.3958 14.8427Z" stroke="#1A253C" stroke-width="0.497561"/>
</svg>
