<svg width="30" height="31" viewBox="0 0 30 31" fill="none" xmlns="http://www.w3.org/2000/svg">
<ellipse cx="15" cy="15.3581" rx="15" ry="14.7859" fill="#E6F3ED"/>
<path d="M7 20.0845V10.1332L15.2927 5.57227L24 10.1332V20.0845L15.7073 25.0601L7 20.0845Z" fill="#96CEB4" stroke="#1A253C" stroke-width="0.5"/>
<path d="M19.3958 15.415C19.4227 15.4484 19.4392 15.4889 19.4392 15.5327C19.4392 15.6204 19.3753 15.6949 19.2852 15.7236C18.9205 15.9468 16.9688 17.2114 15.5073 19.5377C15.4786 19.5996 15.4182 19.6493 15.3422 19.6641C15.3224 19.6684 15.3026 19.6696 15.2828 19.6696C15.2028 19.6696 15.128 19.6379 15.0865 19.5774C15.0754 19.5632 15.0667 19.5477 15.0601 19.531C14.8705 19.2134 13.6137 17.2054 11.2898 15.7122C11.2054 15.6813 11.1464 15.609 11.1464 15.5247V15.5202C11.1454 15.4816 11.157 15.4427 11.1815 15.4085C11.2094 15.3698 11.2511 15.3407 11.2992 15.325C11.6009 15.143 13.5752 13.8953 15.0651 11.5356C15.0882 11.445 15.1825 11.377 15.295 11.377C15.3413 11.377 15.3844 11.3886 15.4208 11.4083C15.471 11.4327 15.5095 11.4726 15.5281 11.5209C15.6727 11.7671 16.9287 13.8253 19.3116 15.349C19.3456 15.3649 19.3748 15.3875 19.3958 15.415Z" stroke="#1A253C" stroke-width="0.497561"/>
</svg>
