<svg xmlns="http://www.w3.org/2000/svg" width="16" height="18" viewBox="0 0 16 18" fill="none">
<path d="M1.00049 12.911V4.74077L7.80896 0.996094L14.9579 4.74077V12.911L8.14939 16.9961L1.00049 12.911Z" fill="#D4FAA9" stroke="#1A253C" stroke-width="0.410513"/>
<path d="M11.1773 9.07704C11.1994 9.10446 11.2129 9.13772 11.2129 9.17366C11.2129 9.24571 11.1605 9.30689 11.0865 9.33046C10.7871 9.51367 9.18471 10.5519 7.98478 12.4619C7.96115 12.5127 7.91157 12.5535 7.84921 12.5657C7.83295 12.5692 7.81668 12.5702 7.80041 12.5702C7.73476 12.5702 7.67337 12.5442 7.63928 12.4945C7.63018 12.4828 7.62302 12.4701 7.61759 12.4564C7.46189 12.1956 6.43005 10.5471 4.52209 9.3211C4.45276 9.29569 4.40434 9.23635 4.40434 9.16714V9.16347C4.40357 9.13171 4.41306 9.09978 4.4332 9.07169C4.45605 9.03993 4.49033 9.01603 4.52983 9.00316C4.77753 8.85372 6.39849 7.82935 7.62166 5.89194C7.64064 5.81755 7.7181 5.76172 7.81048 5.76172C7.84844 5.76172 7.88388 5.77125 7.9137 5.78746C7.95495 5.80752 7.98652 5.84028 8.00182 5.8799C8.12054 6.082 9.15179 7.77184 11.1082 9.02288C11.1361 9.03592 11.1601 9.05448 11.1773 9.07704Z" stroke="#1A253C" stroke-width="0.40851"/>
</svg>