<svg width="31" height="31" viewBox="0 0 31 31" fill="none" xmlns="http://www.w3.org/2000/svg">
<rect width="31" height="31" fill="#626262"/>
<g filter="url(#filter0_d_107_3136)">
<rect width="360" height="1149.42" rx="11.4282" transform="matrix(1 0.000377775 -0.000383566 1 -29.9131 -325.695)" fill="white"/>
</g>
<g filter="url(#filter1_d_107_3136)">
<rect x="-11.7251" y="-236.596" width="321.573" height="338.004" rx="5.99967" fill="white"/>
</g>
<ellipse cx="15.1685" cy="15.6902" rx="15" ry="14.7859" fill="#3D7CDB" fill-opacity="0.1"/>
<path fill-rule="evenodd" clip-rule="evenodd" d="M9.82891 10.1113C9.28201 10.2168 8.74084 10.7463 8.59064 11.3229C8.52415 11.5782 8.52463 19.8125 8.59115 20.0946C8.72741 20.6726 9.19204 21.1305 9.76561 21.2521C10.0602 21.3145 20.2768 21.3145 20.5713 21.2521C21.1449 21.1305 21.6095 20.6726 21.7458 20.0946C21.8123 19.8125 21.8128 11.5782 21.7463 11.3229C21.5926 10.7329 21.052 10.2138 20.4816 10.1086C20.2802 10.0714 10.0222 10.0741 9.82891 10.1113ZM20.4013 11.1217C20.6834 11.1872 20.7559 11.3163 20.7711 11.7806C20.7841 12.1778 20.7669 12.2156 20.5954 12.1664C20.5306 12.1479 18.5552 12.1372 15.1685 12.1372C11.7817 12.1372 9.80636 12.1479 9.74154 12.1664C9.57005 12.2156 9.55277 12.1778 9.56581 11.7806C9.58079 11.324 9.65557 11.186 9.92207 11.1231C10.0644 11.0895 20.2566 11.0882 20.4013 11.1217ZM20.5368 13.2037C20.8628 13.3681 20.8908 14.2757 20.5676 14.2011C20.3461 14.15 9.9908 14.15 9.76931 14.2011C9.4461 14.2757 9.47411 13.3681 9.80009 13.2037C9.9604 13.1228 20.3765 13.1228 20.5368 13.2037ZM20.5368 15.2321C20.7017 15.3153 20.7508 15.4336 20.7691 15.7915C20.7918 16.2375 20.9421 16.194 19.3783 16.1945C17.5162 16.1951 17.1492 16.3214 16.7622 17.0946C15.9887 18.6401 14.3482 18.6401 13.5747 17.0946C13.1886 16.3231 12.8167 16.1951 10.9586 16.1945C9.39483 16.194 9.54508 16.2375 9.56784 15.7915C9.58612 15.4336 9.63525 15.3153 9.80009 15.2321C9.9604 15.1512 20.3765 15.1512 20.5368 15.2321Z" fill="#3D7CDB"/>
<defs>
<filter id="filter0_d_107_3136" x="-97.0141" y="-363.785" width="474.714" height="1263.83" filterUnits="userSpaceOnUse" color-interpolation-filters="sRGB">
<feFlood flood-opacity="0" result="BackgroundImageFix"/>
<feColorMatrix in="SourceAlpha" type="matrix" values="0 0 0 0 0 0 0 0 0 0 0 0 0 0 0 0 0 0 127 0" result="hardAlpha"/>
<feOffset dx="-9.5235" dy="19.047"/>
<feGaussianBlur stdDeviation="28.5705"/>
<feComposite in2="hardAlpha" operator="out"/>
<feColorMatrix type="matrix" values="0 0 0 0 0 0 0 0 0 0 0 0 0 0 0 0 0 0 0.1 0"/>
<feBlend mode="normal" in2="BackgroundImageFix" result="effect1_dropShadow_107_3136"/>
<feBlend mode="normal" in="SourceGraphic" in2="effect1_dropShadow_107_3136" result="shape"/>
</filter>
<filter id="filter1_d_107_3136" x="-30.7241" y="-251.595" width="359.571" height="376.002" filterUnits="userSpaceOnUse" color-interpolation-filters="sRGB">
<feFlood flood-opacity="0" result="BackgroundImageFix"/>
<feColorMatrix in="SourceAlpha" type="matrix" values="0 0 0 0 0 0 0 0 0 0 0 0 0 0 0 0 0 0 127 0" result="hardAlpha"/>
<feOffset dy="3.99978"/>
<feGaussianBlur stdDeviation="9.49949"/>
<feComposite in2="hardAlpha" operator="out"/>
<feColorMatrix type="matrix" values="0 0 0 0 0 0 0 0 0 0 0 0 0 0 0 0 0 0 0.08 0"/>
<feBlend mode="normal" in2="BackgroundImageFix" result="effect1_dropShadow_107_3136"/>
<feBlend mode="normal" in="SourceGraphic" in2="effect1_dropShadow_107_3136" result="shape"/>
</filter>
</defs>
</svg>
