<svg width="88" height="87" viewBox="0 0 88 87" fill="none" xmlns="http://www.w3.org/2000/svg">
<ellipse cx="44.2305" cy="43.144" rx="43.5196" ry="42.8984" fill="#3D7CDB" fill-opacity="0.1"/>
<svg xmlns="http://www.w3.org/2000/svg" x="24.7305" y="26.144" width="39" height="34" viewBox="0 0 39 34" fill="none">
<path fill-rule="evenodd" clip-rule="evenodd" d="M3.73999 0.958108C2.15327 1.26396 0.583156 2.80023 0.147399 4.47333C-0.0455109 5.21399 -0.044126 29.1041 0.148871 29.9227C0.544211 31.5996 1.89225 32.9281 3.55634 33.2808C4.4109 33.462 34.0524 33.462 34.907 33.2808C36.5711 32.9281 37.9191 31.5996 38.3144 29.9227C38.5074 29.1041 38.5088 5.21399 38.3159 4.47333C37.87 2.76146 36.3016 1.25548 34.6466 0.950147C34.0623 0.842311 4.30081 0.850013 3.73999 0.958108ZM34.4138 3.8895C35.2323 4.07938 35.4425 4.45395 35.4867 5.80111C35.5245 6.95338 35.4744 7.0633 34.9768 6.92058C34.7888 6.86666 29.0576 6.83577 19.2317 6.83577C9.4057 6.83577 3.67457 6.86666 3.4865 6.92058C2.98895 7.0633 2.93884 6.95338 2.97666 5.80111C3.02011 4.47636 3.23708 4.07591 4.01028 3.89339C4.4231 3.79594 33.9938 3.79213 34.4138 3.8895ZM34.8069 9.92995C35.7527 10.407 35.834 13.0402 34.8962 12.8238C34.2536 12.6754 4.20968 12.6754 3.56708 12.8238C2.62935 13.0402 2.71062 10.407 3.65639 9.92995C4.12149 9.69523 34.3418 9.69523 34.8069 9.92995ZM34.8069 15.815C35.2852 16.0563 35.4277 16.3996 35.4808 17.438C35.5468 18.7321 35.9827 18.6057 31.4457 18.6073C26.0431 18.609 24.9783 18.9754 23.8556 21.2185C21.6115 25.7026 16.8518 25.7026 14.6077 21.2185C13.4875 18.9803 12.4085 18.609 7.01765 18.6073C2.48058 18.6057 2.91651 18.7321 2.98255 17.438C3.0356 16.3996 3.17814 16.0563 3.65639 15.815C4.12149 15.5803 34.3418 15.5803 34.8069 15.815Z" fill="#3D7CDB"/>
</svg>
</svg>
