<svg width="16" height="16" viewBox="0 0 16 16" fill="none" xmlns="http://www.w3.org/2000/svg">
<path d="M8 16C12.3765 16 16 12.3686 16 8C16 3.62353 12.3686 0 7.99216 0C3.62353 0 0 3.62353 0 8C0 12.3686 3.63137 16 8 16ZM7.92941 5.21569C7.34118 5.21569 6.87059 4.7451 6.87059 4.14902C6.87059 3.55294 7.34118 3.08235 7.92941 3.08235C8.51765 3.08235 8.98039 3.55294 8.98039 4.14902C8.98039 4.7451 8.51765 5.21569 7.92941 5.21569ZM6.58824 12.5412C6.25098 12.5412 5.99216 12.298 5.99216 11.9608C5.99216 11.6471 6.25098 11.3882 6.58824 11.3882H7.58431V7.70196H6.72157C6.39216 7.70196 6.13333 7.45882 6.13333 7.12157C6.13333 6.80784 6.39216 6.54902 6.72157 6.54902H8.24314C8.65882 6.54902 8.87843 6.84706 8.87843 7.28627V11.3882H9.87451C10.2118 11.3882 10.4706 11.6471 10.4706 11.9608C10.4706 12.298 10.2118 12.5412 9.87451 12.5412H6.58824Z" fill="#1293F5"/>
</svg>
