<svg width="15" height="15" viewBox="0 0 15 15" fill="none" xmlns="http://www.w3.org/2000/svg">
<path fill-rule="evenodd" clip-rule="evenodd" d="M7.27904 0.140625C6.35979 0.140691 5.44955 0.321816 4.60029 0.67366C3.75104 1.0255 2.9794 1.54117 2.32944 2.19123C1.01678 3.50408 0.279408 5.28461 0.279541 7.14112C0.279674 8.99764 1.0173 10.7781 2.33015 12.0907C3.643 13.4034 5.42353 14.1408 7.28004 14.1406C9.13656 14.1405 10.917 13.4029 12.2296 12.09C13.5423 10.7772 14.2797 8.99664 14.2795 7.14012C14.2794 5.28361 13.5418 3.50318 12.2289 2.19052C10.9161 0.877863 9.13556 0.140492 7.27904 0.140625V0.140625ZM9.01192 10.2809C8.28997 10.9609 7.77501 11.3848 7.43803 11.5768C7.09005 11.7768 6.80807 11.8728 6.57609 11.8728C6.47862 11.877 6.38137 11.8603 6.29084 11.8239C6.20032 11.7876 6.11859 11.7323 6.05113 11.6618C5.92214 11.5238 5.85714 11.3348 5.85714 11.0998C5.85714 10.4359 6.23911 8.875 7.02406 6.33018C7.05555 6.23194 7.07141 6.12937 7.07106 6.0262H7.06406C6.96206 6.03465 6.86427 6.07058 6.78108 6.1302C6.64609 6.21419 5.72415 6.59216 5.54116 6.66716C5.51363 6.6792 5.48278 6.68133 5.45386 6.67319C5.42493 6.66504 5.39972 6.64713 5.38252 6.6225C5.36531 6.59787 5.35717 6.56803 5.35947 6.53807C5.36178 6.50812 5.3744 6.47988 5.39518 6.45817C5.91814 5.88321 6.4031 5.46624 6.83907 5.22026C7.28904 4.96728 7.66501 4.84429 7.98999 4.84429C8.18498 4.84429 8.33996 4.89029 8.45196 4.98228C8.50987 5.03016 8.55609 5.09063 8.58711 5.15907C8.61813 5.22752 8.63312 5.30214 8.63094 5.37725C8.63094 5.48124 8.57795 5.79722 8.12298 7.31911C7.58302 9.13198 7.31004 10.2339 7.31004 10.5969C7.31004 10.6409 7.32004 10.6749 7.33904 10.7009C7.34604 10.7109 7.35204 10.7169 7.35604 10.7209C7.49803 10.6929 8.22597 10.3709 8.86593 10.0689C8.89395 10.055 8.92607 10.0516 8.95638 10.0594C8.98669 10.0673 9.01315 10.0858 9.03091 10.1116C9.04866 10.1373 9.05652 10.1687 9.05303 10.1998C9.04954 10.2309 9.03494 10.2597 9.01192 10.2809ZM8.92692 3.92435C8.74394 4.12434 8.53295 4.22633 8.29997 4.22633C8.20987 4.22834 8.12036 4.2113 8.0373 4.17632C7.95425 4.14134 7.87952 4.08921 7.818 4.02335C7.68891 3.88327 7.62059 3.69773 7.62802 3.50738C7.62802 3.2424 7.71501 3.01342 7.886 2.82743C7.96416 2.73708 8.0609 2.66466 8.16963 2.61513C8.27835 2.5656 8.39648 2.54013 8.51595 2.54045C8.71194 2.54045 8.87593 2.60745 9.00492 2.73844C9.13191 2.86843 9.1969 3.03642 9.1969 3.2364C9.1969 3.49639 9.10591 3.72637 8.92692 3.92435Z" fill="#FF0000"/>
</svg>
