<svg width="15" height="14" viewBox="0 0 15 14" fill="none"
    xmlns="http://www.w3.org/2000/svg">
    <g id="info">
        <path id="Vector" d="M6.50567 9.97059H7.93214V6.30882H6.50567V9.97059ZM7.2069 5.58824C7.43059 5.58824 7.61964 5.51258 7.77405 5.36126C7.92846 5.20995 8.00567 5.02245 8.00567 4.79876C8.00567 4.57508 7.93001 4.38603 7.77869 4.23162C7.62738 4.07721 7.43988 4 7.2162 4C6.99251 4 6.80346 4.07566 6.64905 4.22697C6.49464 4.37828 6.41743 4.56578 6.41743 4.78947C6.41743 5.01316 6.49309 5.20221 6.6444 5.35662C6.79571 5.51103 6.98321 5.58824 7.2069 5.58824ZM7.21561 13C6.38048 13 5.59945 12.8439 4.87253 12.5317C4.14561 12.2194 3.50976 11.7905 2.96499 11.2447C2.42021 10.699 1.99178 10.0632 1.67969 9.33738C1.3676 8.61157 1.21155 7.8302 1.21155 6.99326C1.21155 6.15553 1.36766 5.37565 1.67989 4.65363C1.99211 3.93161 2.42109 3.29822 2.96683 2.75344C3.51257 2.20867 4.14835 1.78024 4.87417 1.46815C5.59998 1.15605 6.38135 1 7.21828 1C8.05602 1 8.8359 1.15611 9.55792 1.46834C10.2799 1.78055 10.9133 2.20953 11.4581 2.75528C12.0029 3.30102 12.4313 3.93566 12.7434 4.65918C13.0555 5.3827 13.2115 6.16162 13.2115 6.99594C13.2115 7.83107 13.0554 8.61209 12.7432 9.33901C12.431 10.0659 12.002 10.7018 11.4563 11.2466C10.9105 11.7913 10.2759 12.2198 9.55237 12.5319C8.82885 12.844 8.04993 13 7.21561 13Z" fill="#9399A3"/>
    </g>
</svg>
