<svg width="20" height="20" viewBox="0 0 20 20" fill="none" xmlns="http://www.w3.org/2000/svg">
<path d="M5.14852 10.6667C5.60876 10.6667 5.98185 10.2936 5.98185 9.83333C5.98185 9.3731 5.60876 9 5.14852 9C4.68828 9 4.31519 9.3731 4.31519 9.83333C4.31519 10.2936 4.68828 10.6667 5.14852 10.6667Z" fill="#616973" stroke="#616973" stroke-width="0.833333" stroke-linecap="round" stroke-linejoin="round"/>
<path d="M9.81527 10.6667C10.2755 10.6667 10.6486 10.2936 10.6486 9.83333C10.6486 9.3731 10.2755 9 9.81527 9C9.35503 9 8.98193 9.3731 8.98193 9.83333C8.98193 10.2936 9.35503 10.6667 9.81527 10.6667Z" fill="#616973" stroke="#616973" stroke-width="0.833333" stroke-linecap="round" stroke-linejoin="round"/>
<path d="M14.4818 10.6667C14.942 10.6667 15.3151 10.2936 15.3151 9.83333C15.3151 9.3731 14.942 9 14.4818 9C14.0215 9 13.6484 9.3731 13.6484 9.83333C13.6484 10.2936 14.0215 10.6667 14.4818 10.6667Z" fill="#616973" stroke="#616973" stroke-width="0.833333" stroke-linecap="round" stroke-linejoin="round"/>
<rect x="0.5" y="0.5" width="19" height="19" rx="9.5" stroke="#616973"/>
</svg>
