<svg width="13" height="12" viewBox="0 0 13 12" fill="none" xmlns="http://www.w3.org/2000/svg">
<path fill-rule="evenodd" clip-rule="evenodd" d="M6.96737 0.173284C5.00587 0.726774 4.19901 3.10163 5.34294 4.95459C5.55672 5.30088 5.53015 5.33951 4.09332 6.77073C2.54029 8.31764 2.6699 8.24541 2.21656 7.81664C1.75451 7.37974 1.73672 7.38522 0.903612 8.22071C0.0717978 9.05485 0.0666389 9.07162 0.501602 9.5316C0.885169 9.93716 0.883621 9.92568 0.600653 10.2644C0.105524 10.857 0.339418 11.6535 1.04742 11.7864C1.49457 11.8703 1.58878 11.7923 4.20927 9.17118C5.59238 7.78775 6.77184 6.65588 6.8304 6.65588C6.88895 6.65588 7.15115 6.75764 7.41297 6.88197C9.83748 8.03338 12.1836 6.62583 12.0256 4.11458C11.8699 1.64087 9.18377 -0.452108 6.96737 0.173284ZM8.74784 2.13684C10.6071 3.07951 10.7516 5.68696 8.93279 5.47326C7.40342 5.29353 6.13375 3.38408 6.84026 2.32637C7.18004 1.8177 7.96465 1.73973 8.74784 2.13684Z" fill="#3D7CDB"/>
</svg>
