<svg width="18" height="18" viewBox="0 0 18 18" fill="none" xmlns="http://www.w3.org/2000/svg">
<g id="link-outside" clip-path="url(#clip0_2972_17955)">
<path id="Vector" d="M2.25244 9.00006L2.25244 13.4994C2.25244 14.7418 3.25965 15.749 4.50209 15.749H9.0014C10.2438 15.749 11.2511 14.7418 11.2511 13.4994V9.00006C11.2511 7.75762 10.2438 6.75041 9.0014 6.75041H4.50209C3.25965 6.75041 2.25244 7.75762 2.25244 9.00006Z" stroke="#B2B7BE" stroke-width="1.25981" stroke-linecap="square"/>
<path id="Vector_2" d="M4.50244 13.4996L8.35899 9.64307" stroke="#B2B7BE" stroke-width="1.25981"/>
<path id="Vector_3" d="M5.25195 9.75H8.25149V12.7495" stroke="#B2B7BE" stroke-width="1.25981" stroke-linecap="square"/>
<path id="Vector_4" d="M6.75195 4.50063C6.75195 3.90398 6.98897 3.33178 7.41086 2.90988C7.83275 2.48799 8.40496 2.25098 9.00161 2.25098H13.5009C14.0976 2.25098 14.6698 2.48799 15.0917 2.90988C15.5135 3.33178 15.7506 3.90398 15.7506 4.50063V8.99994C15.7506 9.59658 15.5135 10.1688 15.0917 10.5907C14.6698 11.0126 14.0976 11.2496 13.5009 11.2496" stroke="#B2B7BE" stroke-width="1.25981" stroke-linecap="square"/>
</g>
<defs>
<clipPath id="clip0_2972_17955">
<rect width="17.9972" height="17.9972" fill="white" transform="translate(0.00292969 0.00146484)"/>
</clipPath>
</defs>
</svg>
