<svg width="21" height="21" viewBox="0 0 21 21" fill="none" xmlns="http://www.w3.org/2000/svg">
<g id="lock-martian" clip-path="url(#clip0_3853_2233)">
<path id="Vector" d="M14.6667 8.35596H6.33337C4.95266 8.35596 3.83337 9.47524 3.83337 10.856V15.0226C3.83337 16.4033 4.95266 17.5226 6.33337 17.5226H14.6667C16.0474 17.5226 17.1667 16.4033 17.1667 15.0226V10.856C17.1667 9.47524 16.0474 8.35596 14.6667 8.35596Z" stroke="#1293F5" stroke-width="1.42857" stroke-linecap="square"/>
<path id="Vector_2" d="M7.16664 8.35579V5.43913C7.16664 4.66558 7.47393 3.92371 8.02091 3.37673C8.56789 2.82975 9.30976 2.52246 10.0833 2.52246H10.9166C11.6902 2.52246 12.4321 2.82975 12.979 3.37673C13.526 3.92371 13.8333 4.66558 13.8333 5.43913V8.35579" stroke="#1293F5" stroke-width="1.42857" stroke-linecap="square"/>
<path id="Vector_3" d="M7.16664 14.189H13.8333" stroke="#1293F5" stroke-width="1.42857" stroke-linecap="square"/>
</g>
<defs>
<clipPath id="clip0_3853_2233">
<rect width="20" height="20" fill="white" transform="translate(0.5 0.0224609)"/>
</clipPath>
</defs>
</svg>
