<svg width="87" height="86" viewBox="0 0 87 86" fill="none" xmlns="http://www.w3.org/2000/svg">
<rect x="0.5" width="86" height="86" rx="43" fill="black"/>
<path fill-rule="evenodd" clip-rule="evenodd" d="M50.7773 14.3374C50.7432 14.3647 50.5996 14.5713 50.4583 14.7965C48.9479 17.2046 44.9915 22.5234 43.5618 24.0681C43.4856 24.1504 43.4518 24.1157 42.6263 23.1086C40.2353 20.1919 38.0723 17.2534 36.5905 14.9091C36.1387 14.1942 36.2453 14.1304 32.5809 17.3111C27.7842 21.4747 27.8865 21.345 28.8987 21.9811C30.5299 23.0063 32.1877 24.16 34.0739 25.5824C35.9919 27.0289 38.7998 29.3072 38.7998 29.417C38.7998 29.6864 30.2401 38.2383 29.9705 38.2383C29.8864 38.2383 29.175 37.3995 27.8519 35.7405C25.6429 32.9707 23.9194 30.567 22.4645 28.2269C22.046 27.5539 22.0069 27.5042 21.9212 27.5371C21.8675 27.5578 20.4895 29.04 19.5287 30.1104C15.2819 34.8427 14.7403 35.5844 15.2826 35.9261C17.8409 37.5386 21.9305 40.5754 24.3675 42.6724C24.729 42.9834 24.778 42.9022 23.6924 43.7928C20.673 46.27 17.6387 48.4961 15.1056 50.0923C14.9626 50.1824 14.8403 50.2845 14.8337 50.3192C14.8008 50.4924 19.4354 55.8471 21.5656 58.0973C21.9681 58.5223 21.9334 58.534 22.3646 57.828C23.9672 55.2048 26.4647 51.8002 29.2632 48.4238C30.0766 47.4423 29.7071 47.1912 34.4856 51.9736C39.227 56.7188 38.991 56.3815 38.0941 57.1274C34.7492 59.9093 31.5059 62.3003 28.7822 63.992C28.3693 64.2484 28.0209 64.4858 28.008 64.5197C27.9231 64.7411 35.8848 71.7557 36.1187 71.6658C36.1507 71.6535 36.3013 71.4471 36.4533 71.2069C37.8802 68.952 39.6973 66.4389 41.8024 63.8093C42.5739 62.8455 43.4041 61.8401 43.4534 61.8095C43.5113 61.7737 43.5483 61.8135 44.248 62.6629C46.575 65.4871 49.0363 68.8257 50.3989 71.0057C50.5348 71.2233 50.6221 71.323 50.6761 71.323C50.9736 71.323 58.7085 64.5104 58.6334 64.3146C58.6203 64.2802 58.3362 64.0799 58.0022 63.8695C55.2826 62.1555 52.1173 59.8162 48.9565 57.1846C48.0622 56.4399 48.1085 56.5134 48.3607 56.2386C50.8345 53.5422 56.7693 47.656 57.0142 47.656C57.0545 47.656 57.3967 48.0352 57.8359 48.5671C60.4804 51.7684 62.8228 54.9521 64.4114 57.5036C64.8101 58.144 64.8484 58.192 64.9248 58.1459C65.1197 58.0279 68.1043 54.7276 69.6529 52.9175C72.2925 49.8325 72.1664 50.2965 70.6407 49.2816C68.0883 47.584 64.5419 44.9096 62.5808 43.2036C62.2547 42.9199 62.2144 42.999 63.0308 42.3203C65.9015 39.9335 68.927 37.6933 71.4872 36.0592C72.1807 35.6166 72.2221 35.5768 72.1316 35.4414C71.9661 35.1942 70.2521 33.1451 69.0787 31.7915C67.7699 30.282 65.2632 27.5347 65.1231 27.4562C65.031 27.4046 65.0123 27.4288 64.4625 28.3088C63.076 30.5281 61.2351 33.0936 59.1846 35.6643C58.1717 36.9342 57.0588 38.2792 57.0211 38.2792C56.7769 38.2792 48.169 29.6556 48.169 29.411C48.169 29.3062 51.3005 26.7798 53.2218 25.3345C54.9659 24.0226 57.4389 22.3362 58.6526 21.6309C59.0348 21.4089 59.0402 21.3631 58.7202 21.0668C55.049 17.6676 50.953 14.1975 50.7773 14.3374ZM44.413 25.2481C45.28 26.2582 46.8463 28.0268 47.6311 28.882C48.1523 29.4499 48.1866 29.3422 47.2178 30.1755C46.27 30.9907 44.7822 32.3094 44.0467 32.9863C43.4472 33.5377 43.5299 33.5288 43.0536 33.0931C42.269 32.3752 40.431 30.7468 39.6877 30.111C38.7656 29.3224 38.7556 29.5341 39.7675 28.4214C40.6162 27.488 42.1623 25.7295 42.9896 24.7567C43.5406 24.1087 43.3906 24.0569 44.413 25.2481ZM44.6387 34.5727C46.0066 35.8492 50.4213 40.2609 51.6462 41.5754C52.1497 42.116 52.6443 42.6448 52.7451 42.7506L52.9285 42.9432L52.5638 43.3414C50.6133 45.4701 46.931 49.1754 44.5582 51.3974C43.9785 51.94 43.5091 52.3967 43.5149 52.4122C43.5395 52.4787 45.9519 54.6361 47.2382 55.7419C48.2093 56.5767 48.2065 56.3843 47.2631 57.4217C46.3388 58.438 45.0314 59.9223 44.1797 60.9226C43.539 61.6751 43.5079 61.7074 43.4558 61.6751C43.4379 61.6641 43.0418 61.2093 42.5755 60.6644C41.7161 59.6603 40.1499 57.8921 39.3587 57.0327C38.8283 56.4566 38.8268 56.5194 39.3801 56.0496C40.6526 54.9689 43.464 52.4601 43.464 52.4052C43.464 52.3907 42.9162 51.8648 42.2467 51.2366C41.5773 50.6083 40.0155 49.0805 38.7762 47.8412C36.7278 45.7932 35.9883 45.0317 34.5294 43.4678L34.0437 42.9471L34.5704 42.3853C37.299 39.4755 39.8454 36.9245 42.8502 34.0909C43.566 33.4159 43.3313 33.3526 44.6387 34.5727ZM30.7025 39.1903C31.4646 40.0776 32.723 41.5009 33.5224 42.3795C34.0993 43.0136 34.0747 42.9201 33.7549 43.2636C33.0322 44.0404 31.1144 46.2111 30.3176 47.1544C29.9422 47.5991 29.975 47.5904 29.6818 47.3214C28.4342 46.1766 26.6802 44.6215 25.4722 43.5891C24.6205 42.8612 24.5834 43.0708 25.7381 42.0818C26.7883 41.1823 28.5676 39.6027 29.3897 38.8404C30.0198 38.2559 29.8647 38.2145 30.7025 39.1903ZM57.5382 38.7977C58.3708 39.5654 60.1487 41.1432 61.1921 42.0402C61.7503 42.5202 62.2014 42.9352 62.1945 42.9625C62.1875 42.9898 61.7124 43.4156 61.1385 43.9086C60.0406 44.8521 58.7622 45.9845 57.7018 46.9533C56.9304 47.658 57.1307 47.7048 56.1812 46.5991C55.3238 45.6006 54.2761 44.4169 53.4583 43.5223C53.1812 43.2193 52.9594 42.958 52.9654 42.9414C52.9714 42.9248 53.3563 42.4909 53.8207 41.9771C54.7531 40.9457 56.0081 39.5168 56.5977 38.8154C57.057 38.2689 56.9666 38.2706 57.5382 38.7977Z" fill="white"/>
</svg>
