<svg width="256" height="256" viewBox="0 0 256 256" fill="none"
   xmlns="http://www.w3.org/2000/svg">
   <rect width="256" height="256" rx="128" fill="#EAF7FF"/>
   <path fill-rule="evenodd" clip-rule="evenodd" d="M166.557 115.261L166.554 115.267C172.82 123.125 176.565 133.077 176.565 143.901C176.565 154.886 172.708 164.973 166.272 172.883L165.719 173.565L165.572 172.699C165.446 171.963 165.3 171.219 165.129 170.47C161.908 156.32 151.415 144.185 134.144 134.36C122.481 127.744 115.805 119.777 114.052 110.725C112.92 104.871 113.762 98.9917 115.388 93.9559C117.014 88.9217 119.433 84.7038 121.487 82.1644L128.207 73.9477C129.385 72.5071 131.59 72.5071 132.769 73.9477L166.557 115.261ZM177.183 107.053L132.152 51.9885C131.293 50.9372 129.683 50.9372 128.823 51.9885L83.7906 107.051L83.6453 107.235C75.3585 117.518 70.3994 130.586 70.3994 144.811C70.3994 177.942 97.3013 204.8 130.488 204.8C163.674 204.8 190.576 177.942 190.576 144.811C190.576 130.586 185.617 117.518 177.33 107.235L177.183 107.053ZM94.5655 115.083L98.5952 110.156L98.7169 111.065C98.8133 111.786 98.9303 112.51 99.069 113.236C101.675 126.91 110.985 138.312 126.551 147.142C140.081 154.843 147.958 163.697 150.228 173.409C151.175 177.462 151.344 181.449 150.934 184.935L150.909 185.151L150.713 185.246C144.607 188.23 137.742 189.904 130.486 189.904C105.038 189.904 84.4075 169.308 84.4075 143.901C84.4075 132.992 88.2107 122.969 94.5655 115.083Z" fill="#48A2FF"/>
</svg>
