<svg width="31" height="30" viewBox="0 0 31 30" fill="none" xmlns="http://www.w3.org/2000/svg">
<rect width="31" height="30" fill="#626262"/>
<g filter="url(#filter0_d_107_3136)">
<rect width="360" height="1149.42" rx="11.4282" transform="matrix(1 0.000377775 -0.000383566 1 -29.9131 -477.695)" fill="white"/>
</g>
<g filter="url(#filter1_d_107_3136)">
<rect x="-11.6519" y="-10.2812" width="321.573" height="272.869" rx="5.99967" fill="white"/>
</g>
<ellipse cx="15.1685" cy="15.0007" rx="15" ry="14.7859" fill="#3D7CDB" fill-opacity="0.1"/>
<path fill-rule="evenodd" clip-rule="evenodd" d="M14.623 8.03307C8.25363 8.55975 5.41958 16.241 9.93695 20.7339C13.8352 24.6111 20.4822 23.0328 22.225 17.8161C23.8995 12.8043 19.8557 7.60036 14.623 8.03307ZM14.722 10.6103C14.7289 12.4044 14.7477 12.2508 14.5229 12.2354C12.4781 12.0959 12.1586 12.0083 12.3094 11.6286C12.8466 10.2758 14.0191 8.96867 14.6462 9.02344L14.716 9.02953L14.722 10.6103ZM16.0508 9.14634C16.794 9.50566 17.4526 10.2952 17.9495 11.4229C18.1063 11.7786 18.1448 11.9065 18.1029 11.9324C17.9296 12.0396 15.7779 12.2918 15.6633 12.2185C15.6305 12.1975 15.6191 9.0641 15.6516 9.03137C15.6848 8.99806 15.8315 9.04032 16.0508 9.14634ZM12.3565 9.62603C12.3565 9.64084 12.2953 9.74284 12.2205 9.85268C11.9184 10.2963 11.6727 10.7667 11.4425 11.3425C11.2807 11.7472 11.3391 11.7398 10.5665 11.4531C10.1014 11.2804 10.1067 11.3121 10.4794 10.9305C11.1126 10.2822 12.3565 9.41772 12.3565 9.62603ZM18.316 9.73896C19.1258 10.1892 20.2701 11.1907 20.1149 11.3133C20.0393 11.373 19.1916 11.668 19.0957 11.668C19.0378 11.668 19.0258 11.6494 18.9345 11.4181C18.6964 10.8147 18.4845 10.3997 18.1654 9.9111C17.9163 9.52967 17.9239 9.52091 18.316 9.73896ZM10.0158 12.2171C10.1973 12.289 10.4869 12.3946 10.6595 12.4519C11.0745 12.5895 11.0521 12.5575 10.9756 12.9027C10.8548 13.4476 10.7293 14.4066 10.7293 14.7845C10.7293 15.0332 10.81 15.0154 9.68438 15.0154C8.51545 15.0154 8.63431 15.0669 8.70249 14.5896C8.81765 13.7834 9.03791 13.0929 9.39722 12.4118C9.60184 12.024 9.56097 12.0369 10.0158 12.2171ZM20.7768 12.1271C21.0981 12.4929 21.5501 13.828 21.6548 14.7204C21.6931 15.0457 21.7957 15.0154 20.6554 15.0154C19.516 15.0154 19.6407 15.0628 19.6098 14.6182C19.5689 14.0305 19.5 13.5254 19.3847 12.9697C19.318 12.6478 19.3145 12.5987 19.3572 12.5723C19.3732 12.5624 19.5731 12.4901 19.8014 12.4117C20.0296 12.3332 20.3125 12.2284 20.4301 12.1788C20.6709 12.0771 20.7258 12.0689 20.7768 12.1271ZM12.3112 12.8867C12.9423 13.0082 13.6001 13.0915 14.2627 13.1337C14.4864 13.148 14.6826 13.1705 14.6985 13.1838C14.7397 13.2179 14.7408 14.9464 14.6997 14.9875C14.6518 15.0354 11.6977 15.027 11.6577 14.9788C11.5835 14.8895 11.7896 13.2178 11.9156 12.8865C11.9418 12.8173 11.9508 12.8173 12.3112 12.8867ZM18.4228 12.875C18.5293 13.074 18.7616 14.8467 18.698 14.9747C18.6723 15.0265 15.7136 15.039 15.6621 14.9875C15.6204 14.9458 15.6222 13.2179 15.664 13.1832C15.6804 13.1695 15.8713 13.147 16.0882 13.1331C16.7733 13.0891 17.7372 12.9618 18.1796 12.857C18.3315 12.821 18.3965 12.8258 18.4228 12.875ZM10.7014 15.9499C10.7175 15.966 10.7293 16.0432 10.7293 16.1326C10.7293 16.5068 10.8552 17.4684 10.975 18.0088C11.054 18.3651 11.0765 18.3334 10.6444 18.476C10.4418 18.543 10.1348 18.6541 9.96215 18.7231C9.55957 18.8839 9.52347 18.8524 9.17487 18.0357C8.88265 17.3512 8.58187 16.0795 8.68327 15.9573C8.72211 15.9105 10.6549 15.9034 10.7014 15.9499ZM14.6911 15.9585C14.723 15.9904 14.7276 16.104 14.7276 16.8522V17.7093L14.6759 17.7455C14.6403 17.7704 14.5699 17.7817 14.4493 17.7818C14.0224 17.7822 12.9865 17.9034 12.3566 18.0268C11.9851 18.0995 11.9429 18.0996 11.9156 18.0277C11.7914 17.701 11.5853 16.0458 11.658 15.9582C11.7039 15.9029 14.6357 15.9032 14.6911 15.9585ZM18.6987 16.0731C18.7184 16.4304 18.517 17.8632 18.4222 18.0403C18.3914 18.0978 18.3344 18.0958 17.9704 18.0245C17.3568 17.9043 16.6193 17.8144 16.041 17.7895C15.5885 17.77 15.6342 17.8767 15.6342 16.8413C15.6342 15.7793 15.3936 15.9205 17.1907 15.9277L18.6911 15.9336L18.6987 16.0731ZM21.6553 15.9573C21.7567 16.0795 21.4559 17.3512 21.1637 18.0357C20.8106 18.8628 20.7848 18.884 20.3427 18.7098C20.1515 18.6345 19.8516 18.525 19.6761 18.4665C19.2764 18.3333 19.295 18.3583 19.3649 18.0471C19.4757 17.5542 19.568 16.8966 19.6089 16.3087C19.6212 16.1315 19.6433 15.9719 19.658 15.9542C19.6999 15.9038 21.6133 15.9067 21.6553 15.9573ZM14.7017 18.7199C14.7207 18.7429 14.7263 19.1802 14.722 20.3181L14.716 21.8846L14.6202 21.8828C13.9471 21.8703 12.8432 20.6299 12.31 19.2872C12.1746 18.9464 12.4295 18.8548 13.8443 18.7356C14.0041 18.7221 14.1714 18.7076 14.2162 18.7034C14.4461 18.6817 14.6765 18.6896 14.7017 18.7199ZM16.3548 18.7224C17.0243 18.7776 18.018 18.9335 18.0922 18.9951C18.2081 19.0913 17.6246 20.2462 17.1666 20.8269C16.747 21.359 16.0495 21.8724 15.733 21.882L15.6458 21.8846L15.6398 20.3181C15.6326 18.4322 15.5329 18.6547 16.3548 18.7224ZM11.4425 19.5716C11.6727 20.1475 11.9184 20.6179 12.2205 21.0615C12.4295 21.3684 12.4009 21.3857 12.0272 21.1778C11.2085 20.7225 10.0869 19.7422 10.2362 19.6124C10.3182 19.5411 11.1675 19.2427 11.2614 19.2522C11.3099 19.2571 11.3333 19.2985 11.4425 19.5716ZM19.4769 19.3617C19.8994 19.5057 20.1017 19.5874 20.1236 19.6228C20.2168 19.7737 19.0758 20.7527 18.3114 21.1778C17.9244 21.393 17.9167 21.3838 18.1654 21.0031C18.4816 20.5187 18.6663 20.1614 18.8933 19.5949C19.0598 19.1794 19.0056 19.201 19.4769 19.3617Z" fill="#3D7CDB"/>
<defs>
<filter id="filter0_d_107_3136" x="-97.0141" y="-515.785" width="474.714" height="1263.83" filterUnits="userSpaceOnUse" color-interpolation-filters="sRGB">
<feFlood flood-opacity="0" result="BackgroundImageFix"/>
<feColorMatrix in="SourceAlpha" type="matrix" values="0 0 0 0 0 0 0 0 0 0 0 0 0 0 0 0 0 0 127 0" result="hardAlpha"/>
<feOffset dx="-9.5235" dy="19.047"/>
<feGaussianBlur stdDeviation="28.5705"/>
<feComposite in2="hardAlpha" operator="out"/>
<feColorMatrix type="matrix" values="0 0 0 0 0 0 0 0 0 0 0 0 0 0 0 0 0 0 0.1 0"/>
<feBlend mode="normal" in2="BackgroundImageFix" result="effect1_dropShadow_107_3136"/>
<feBlend mode="normal" in="SourceGraphic" in2="effect1_dropShadow_107_3136" result="shape"/>
</filter>
<filter id="filter1_d_107_3136" x="-30.6508" y="-25.2804" width="359.571" height="310.867" filterUnits="userSpaceOnUse" color-interpolation-filters="sRGB">
<feFlood flood-opacity="0" result="BackgroundImageFix"/>
<feColorMatrix in="SourceAlpha" type="matrix" values="0 0 0 0 0 0 0 0 0 0 0 0 0 0 0 0 0 0 127 0" result="hardAlpha"/>
<feOffset dy="3.99978"/>
<feGaussianBlur stdDeviation="9.49949"/>
<feComposite in2="hardAlpha" operator="out"/>
<feColorMatrix type="matrix" values="0 0 0 0 0 0 0 0 0 0 0 0 0 0 0 0 0 0 0.08 0"/>
<feBlend mode="normal" in2="BackgroundImageFix" result="effect1_dropShadow_107_3136"/>
<feBlend mode="normal" in="SourceGraphic" in2="effect1_dropShadow_107_3136" result="shape"/>
</filter>
</defs>
</svg>
