<?xml version="1.0" standalone="no"?>
<!DOCTYPE svg PUBLIC "-//W3C//DTD SVG 20010904//EN"
 "http://www.w3.org/TR/2001/REC-SVG-20010904/DTD/svg10.dtd">
<svg version="1.0" xmlns="http://www.w3.org/2000/svg"
 width="256.000000pt" height="256.000000pt" viewBox="0 0 256.000000 256.000000"
 preserveAspectRatio="xMidYMid meet">

<g transform="translate(0.000000,256.000000) scale(0.100000,-0.100000)" stroke="none">
<path d="M1217 2549 c-31 -18 -47 -65 -47 -136 l0 -68 -71 -17 c-217 -52 -402
-205 -500 -413 -57 -121 -69 -199 -69 -442 0 -226 -8 -302 -45 -406 -34 -99
-79 -170 -166 -262 -89 -94 -109 -128 -109 -189 0 -82 39 -142 115 -177 38
-18 85 -19 955 -19 870 0 917 1 955 19 76 35 115 95 115 177 0 59 -26 107 -95
174 -66 64 -127 149 -160 225 -51 114 -57 155 -65 450 -6 250 -9 287 -30 350
-82 259 -285 452 -538 513 l-72 17 0 68 c0 73 -17 119 -49 137 -25 13 -101 13
-124 -1z"/>
<path d="M895 275 c30 -101 110 -191 215 -243 50 -25 65 -27 170 -27 105 0
120 2 170 27 105 52 185 142 215 243 l14 45 -399 0 -399 0 14 -45z"/>
</g>
</svg>
