<svg width="26" height="31" viewBox="0 0 26 31" fill="none" xmlns="http://www.w3.org/2000/svg">
<path d="M25.4627 14.4112L25.4642 15.8701C25.4652 16.8427 25.3691 17.9775 25.176 19.2746C25.0152 20.5391 24.6599 21.8201 24.1101 23.1174C23.5927 24.3824 22.8321 25.5827 21.8282 26.7184C20.8568 27.8542 19.5772 28.7795 17.9893 29.4944C16.2395 30.2743 14.4892 30.6651 12.7385 30.6669L12.3008 30.6674C10.2908 30.6695 8.5397 30.2823 7.04756 29.5057C5.55543 28.7292 4.30618 27.6931 3.2998 26.3973C2.2934 25.0691 1.52996 23.5624 1.00948 21.8771C0.521388 20.1593 0.276397 18.3927 0.274506 16.5772L0.273493 15.6046C0.271467 13.6594 0.512659 11.7787 0.997069 9.96271C1.48148 8.14668 2.22547 6.54111 3.22904 5.146C4.265 3.71844 5.56062 2.58239 7.1159 1.73785C8.70357 0.860858 10.5673 0.421248 12.707 0.419023L13.6796 0.418011C15.1061 0.416528 16.5978 0.755387 18.1546 1.43459C19.4196 1.98442 20.5064 2.72895 21.4152 3.66818C22.3563 4.57497 23.1193 5.61162 23.704 6.77813C24.3212 7.94462 24.7602 9.19233 25.0209 10.5213C25.3141 11.8178 25.4613 13.1144 25.4627 14.4112ZM4.84427 15.1621L4.84538 16.232C4.84862 19.3443 5.45104 21.8887 6.65265 23.8651C7.33468 25.0315 8.19476 25.9383 9.23288 26.5857C10.271 27.2006 11.2277 27.5076 12.103 27.5066L13.0756 27.5056C14.5021 27.5042 15.685 27.1139 16.6244 26.3348C17.5637 25.5233 18.3084 24.5338 18.8583 23.3661C19.4406 22.1659 19.8445 20.8849 20.07 19.523C20.2956 18.1611 20.4077 16.9128 20.4066 15.7781L20.4056 14.9028C20.4049 14.1571 20.3553 13.2981 20.2571 12.3256C20.1588 11.3531 19.9471 10.3807 19.6218 9.40841C19.329 8.40369 18.9066 7.46395 18.3545 6.58918C17.8024 5.68199 17.0884 4.95328 16.2125 4.40305C15.1744 3.75573 14.1204 3.43262 13.0505 3.43373L12.3697 3.43444C11.4295 3.43542 10.4572 3.712 9.45278 4.26419C8.54556 4.78385 7.80059 5.44924 7.21787 6.26035C6.63516 7.07146 6.16601 7.97971 5.81044 8.9851C5.45483 9.95807 5.19653 10.9796 5.03555 12.0496C4.90698 13.1196 4.84322 14.1571 4.84427 15.1621Z" fill="white"/>
</svg>
