<svg width="31" height="30" viewBox="0 0 31 30" fill="none" xmlns="http://www.w3.org/2000/svg">
<rect width="31" height="30" fill="#626262"/>
<g filter="url(#filter0_d_107_3136)">
<rect width="360" height="1149.42" rx="11.4282" transform="matrix(1 0.000377775 -0.000383566 1 -29.9131 -384.695)" fill="white"/>
</g>
<g filter="url(#filter1_d_107_3136)">
<rect x="-11.7251" y="-295.596" width="321.573" height="338.004" rx="5.99967" fill="white"/>
</g>
<ellipse cx="15.1685" cy="14.9304" rx="15" ry="14.7859" fill="#FAFAFA"/>
<path d="M19.253 12.4726H17.9361C17.8607 12.4728 17.7862 12.457 17.7173 12.4262C17.6485 12.3954 17.587 12.3504 17.5368 12.2941L17.0012 11.6939C16.9618 11.6495 16.9135 11.614 16.8595 11.5897C16.8054 11.5653 16.7467 11.5527 16.6874 11.5527C16.6281 11.5527 16.5695 11.5653 16.5154 11.5897C16.4614 11.614 16.4131 11.6495 16.3737 11.6939L15.9125 12.2073C15.8379 12.2907 15.7465 12.3574 15.6444 12.4032C15.5423 12.4489 15.4316 12.4726 15.3197 12.4726H8.12779C7.91817 13.066 7.78403 13.6834 7.72852 14.3103H14.5286C14.5878 14.3104 14.6464 14.2986 14.7009 14.2756C14.7555 14.2526 14.8048 14.2189 14.8461 14.1764L15.4809 13.5167C15.5199 13.4757 15.5668 13.4431 15.6189 13.4209C15.6709 13.3987 15.7269 13.3875 15.7835 13.3878H15.8083C15.8678 13.3878 15.9266 13.4004 15.9809 13.4247C16.0352 13.4491 16.0837 13.4847 16.1232 13.5291L16.6564 14.1293C16.7066 14.1858 16.768 14.2311 16.8368 14.2623C16.9056 14.2935 16.9802 14.3098 17.0557 14.3103H22.6084C22.5553 13.6838 22.4236 13.0664 22.2166 12.4726H19.2406H19.253Z" fill="#838078"/>
<path d="M11.8452 18.17C11.9039 18.1698 11.9621 18.1578 12.0162 18.1348C12.0702 18.1118 12.1192 18.0782 12.1601 18.0361L12.795 17.3764C12.8342 17.3357 12.8812 17.3034 12.9332 17.2812C12.9852 17.259 13.0411 17.2476 13.0976 17.2474H13.1224C13.181 17.2481 13.2389 17.2611 13.2923 17.2854C13.3457 17.3098 13.3934 17.345 13.4324 17.3888L13.9655 17.989C14.0156 18.0461 14.0774 18.0919 14.1468 18.1231C14.2161 18.1544 14.2913 18.1704 14.3673 18.17H21.894C22.1796 17.5816 22.3856 16.9577 22.5066 16.315H15.2849C15.2091 16.3152 15.1342 16.2994 15.065 16.2686C14.9957 16.2378 14.9338 16.1928 14.8831 16.1364L14.3499 15.5338C14.3106 15.4894 14.2623 15.4538 14.2082 15.4295C14.1542 15.4052 14.0955 15.3926 14.0362 15.3926C13.9769 15.3926 13.9183 15.4052 13.8642 15.4295C13.8101 15.4538 13.7618 15.4894 13.7225 15.5338L13.2637 16.0496C13.1897 16.1331 13.0988 16.1999 12.9971 16.2456C12.8953 16.2914 12.785 16.315 12.6735 16.315H7.83008C7.95108 16.9577 8.15707 17.5816 8.44263 18.17H11.8452Z" fill="#838078"/>
<path d="M17.1818 10.4701C17.2407 10.4704 17.299 10.4587 17.3531 10.4357C17.4073 10.4127 17.4562 10.3788 17.4968 10.3362L18.1441 9.67153C18.1834 9.6312 18.2305 9.59921 18.2825 9.57747C18.3344 9.55574 18.3903 9.54472 18.4466 9.54505H18.4714C18.5308 9.54459 18.5895 9.55673 18.6438 9.58067C18.6981 9.60461 18.7467 9.63981 18.7864 9.68393L19.3196 10.2866C19.3702 10.3429 19.4321 10.388 19.5014 10.4187C19.5706 10.4495 19.6456 10.4653 19.7213 10.4651H21.1523C20.4541 9.53998 19.5506 8.78957 18.513 8.273C17.4754 7.75642 16.3321 7.4878 15.173 7.48828C14.014 7.48876 12.8709 7.75833 11.8337 8.27577C10.7966 8.7932 9.89374 9.54436 9.19629 10.4701H17.1818Z" fill="#838078"/>
<path d="M14.3073 20.0078H12.3506C12.274 20.0087 12.1981 19.9932 12.128 19.9625C12.0578 19.9317 11.9951 19.8863 11.9439 19.8293L11.4107 19.2266C11.371 19.1829 11.3225 19.148 11.2685 19.1241C11.2145 19.1002 11.1561 19.0879 11.097 19.0879C11.0379 19.0879 10.9795 19.1002 10.9255 19.1241C10.8714 19.148 10.823 19.1829 10.7833 19.2266L10.3245 19.7425C10.2505 19.8259 10.1596 19.8927 10.0578 19.9385C9.95608 19.9842 9.84579 20.0078 9.73423 20.0078H9.71191C10.4115 20.7538 11.2566 21.3484 12.195 21.7549C13.1334 22.1613 14.1452 22.3711 15.1679 22.3711C16.1905 22.3711 17.2023 22.1613 18.1408 21.7549C19.0792 21.3484 19.9243 20.7538 20.6238 20.0078H14.3073Z" fill="#838078"/>
<defs>
<filter id="filter0_d_107_3136" x="-97.0141" y="-422.785" width="474.714" height="1263.83" filterUnits="userSpaceOnUse" color-interpolation-filters="sRGB">
<feFlood flood-opacity="0" result="BackgroundImageFix"/>
<feColorMatrix in="SourceAlpha" type="matrix" values="0 0 0 0 0 0 0 0 0 0 0 0 0 0 0 0 0 0 127 0" result="hardAlpha"/>
<feOffset dx="-9.5235" dy="19.047"/>
<feGaussianBlur stdDeviation="28.5705"/>
<feComposite in2="hardAlpha" operator="out"/>
<feColorMatrix type="matrix" values="0 0 0 0 0 0 0 0 0 0 0 0 0 0 0 0 0 0 0.1 0"/>
<feBlend mode="normal" in2="BackgroundImageFix" result="effect1_dropShadow_107_3136"/>
<feBlend mode="normal" in="SourceGraphic" in2="effect1_dropShadow_107_3136" result="shape"/>
</filter>
<filter id="filter1_d_107_3136" x="-30.7241" y="-310.595" width="359.571" height="376.002" filterUnits="userSpaceOnUse" color-interpolation-filters="sRGB">
<feFlood flood-opacity="0" result="BackgroundImageFix"/>
<feColorMatrix in="SourceAlpha" type="matrix" values="0 0 0 0 0 0 0 0 0 0 0 0 0 0 0 0 0 0 127 0" result="hardAlpha"/>
<feOffset dy="3.99978"/>
<feGaussianBlur stdDeviation="9.49949"/>
<feComposite in2="hardAlpha" operator="out"/>
<feColorMatrix type="matrix" values="0 0 0 0 0 0 0 0 0 0 0 0 0 0 0 0 0 0 0.08 0"/>
<feBlend mode="normal" in2="BackgroundImageFix" result="effect1_dropShadow_107_3136"/>
<feBlend mode="normal" in="SourceGraphic" in2="effect1_dropShadow_107_3136" result="shape"/>
</filter>
</defs>
</svg>
