<svg width="14" height="14" viewBox="0 0 14 14" fill="none" xmlns="http://www.w3.org/2000/svg">
<path d="M2.83888 13.2593H11.0794C12.506 13.2593 13.2125 12.5528 13.2125 11.1534V2.85851C13.2125 1.45906 12.506 0.752537 11.0794 0.752537H2.83888C1.41904 0.752537 0.705726 1.45226 0.705726 2.85851V11.1534C0.705726 12.5596 1.41904 13.2593 2.83888 13.2593ZM2.85246 12.1656C2.17312 12.1656 1.79948 11.8055 1.79948 11.099V2.91286C1.79948 2.20634 2.17312 1.84629 2.85246 1.84629H11.0658C11.7383 1.84629 12.1188 2.20634 12.1188 2.91286V11.099C12.1188 11.8055 11.7383 12.1656 11.0658 12.1656H2.85246ZM9.08888 8.68053C9.38779 8.68053 9.5916 8.44955 9.5916 8.13705V4.93053C9.5916 4.52971 9.36741 4.37346 9.02094 4.37346H5.80083C5.48154 4.37346 5.27774 4.57047 5.27774 4.86938C5.27774 5.1683 5.48833 5.36531 5.81442 5.36531H7.05083L8.05627 5.25661L6.99649 6.24167L4.48969 8.74846C4.39458 8.84357 4.33344 8.97944 4.33344 9.11531C4.33344 9.42102 4.53045 9.61803 4.82937 9.61803C4.99241 9.61803 5.12149 9.55688 5.2166 9.46178L7.7166 6.96178L8.69486 5.91558L8.59295 6.97536V8.15063C8.59295 8.46993 8.78997 8.68053 9.08888 8.68053Z" fill="#808080"/>
</svg>
