<svg width="25" height="22" viewBox="0 0 25 22" fill="none" xmlns="http://www.w3.org/2000/svg">
<path fill-rule="evenodd" clip-rule="evenodd" d="M19.7422 6.53992L24.8007 6.54183C24.8022 2.46854 22.3764 0.088688 18.2408 0.0871257L7.44027 0.0830455C3.30463 0.0814832 0.877017 2.4595 0.875475 6.48145L0.872107 15.2613C0.870564 19.2832 3.29635 21.6631 7.43199 21.6646L18.2325 21.6687C22.3511 21.6703 24.7958 19.2922 24.7973 15.2703L24.7975 14.8767L19.739 14.8748C17.3977 14.8739 15.4844 13.0076 15.4853 10.7143C15.4862 8.43804 17.3838 6.53903 19.7422 6.53992ZM19.7415 8.31984L23.9113 8.32142C24.4069 8.3216 24.7998 8.71539 24.7996 9.1946L24.7985 12.2239C24.7983 12.7031 24.388 13.0966 23.9095 13.0964L19.8422 13.0949C18.6459 13.1115 17.6209 12.3068 17.3479 11.1771C17.2114 10.4753 17.3997 9.75659 17.8613 9.19198C18.323 8.6616 19.0067 8.33668 19.7415 8.31984ZM19.9112 11.5032L20.3042 11.5034C20.8169 11.5036 21.2272 11.1101 21.2274 10.6138C21.2276 10.1174 20.8176 9.72365 20.3049 9.72346L19.9119 9.72331C19.6726 9.72322 19.4333 9.8087 19.2624 9.97978C19.0914 10.1509 18.9888 10.3733 18.9887 10.6129C19.0056 11.0921 19.4156 11.503 19.9112 11.5032ZM6.54915 6.53493L13.2995 6.53748C13.8122 6.53768 14.2225 6.1442 14.2226 5.64787C14.2228 5.15155 13.8128 4.75775 13.3002 4.75756L6.54983 4.75501C6.05424 4.75482 5.64394 5.14831 5.62666 5.64462C5.62647 6.12383 6.03647 6.51763 6.54915 6.53493Z" fill="#838078"/>
</svg>
