<svg xmlns="http://www.w3.org/2000/svg" width="24" height="24" fill="none" viewBox="0 0 24 24">
  <path fill="#000" d="M20.39 13.166A8.9 8.9 0 0 0 20.473 12c0-.394-.033-.789-.083-1.183l2.473-1.988a.617.617 0 0 0 .134-.772l-2.34-4.148a.584.584 0 0 0-.719-.258l-2.908 1.2a8.545 8.545 0 0 0-1.972-1.182L14.624.497a.627.627 0 0 0-.208-.354A.6.6 0 0 0 14.04 0H9.36a.612.612 0 0 0-.585.514L8.34 3.686a8.914 8.914 0 0 0-1.972 1.183l-2.908-1.2a.584.584 0 0 0-.719.257L.401 8.074a.616.616 0 0 0 .134.772l2.473 1.988c-.05.377-.083.772-.083 1.166 0 .394.033.789.083 1.183L.535 15.17a.617.617 0 0 0-.134.772l2.34 4.148c.15.258.451.36.719.258l2.908-1.2c.601.48 1.253.874 1.972 1.182l.434 3.172c.05.274.301.497.585.497h4.68a.611.611 0 0 0 .585-.514l.434-3.172a8.917 8.917 0 0 0 1.972-1.183l2.908 1.2c.268.103.569 0 .719-.257l2.34-4.148a.617.617 0 0 0-.134-.772l-2.473-1.988Zm-8.691 2.263c-1.838 0-3.343-1.543-3.343-3.429S9.861 8.571 11.7 8.571s3.34 1.543 3.34 3.429-1.504 3.429-3.342 3.429Z"/>
</svg>
