<svg width="24" height="25" viewBox="0 0 24 25" fill="none" xmlns="http://www.w3.org/2000/svg">
<path d="M11.9819 0.694336C5.45659 0.747722 0.231105 6.161 0.2831 12.7743C0.335145 19.3343 5.56058 24.6943 11.9819 24.6943H12.0599C15.1796 24.6677 18.1173 23.4144 20.3011 21.121C22.4849 18.8277 23.7067 15.8144 23.6808 12.6144C23.6288 6.05438 18.4034 0.694384 11.982 0.694384L11.9819 0.694336ZM19.6772 13.9477H17.2854C16.9735 13.9477 16.6875 13.7343 16.5835 13.441L15.3616 10.0276L12.9439 17.8943C12.84 18.2142 12.5799 18.4276 12.268 18.4276H12.216C11.93 18.4276 11.644 18.2408 11.5401 17.9743L8.75808 11.5743L7.43225 13.6009C7.30223 13.8142 7.0683 13.9476 6.80827 13.9476H4.18257C3.76657 13.9476 3.42874 13.6009 3.42874 13.1744C3.42874 12.7477 3.76676 12.4011 4.18257 12.4011H6.39245L8.23836 9.5477C8.39432 9.30775 8.65436 9.17438 8.94034 9.20098C9.22631 9.22758 9.46024 9.38774 9.56432 9.65429L12.0861 15.4943L14.6075 7.36095C14.7114 7.04101 14.9973 6.82767 15.3094 6.82767C15.6475 6.82767 15.9334 7.01443 16.0374 7.33438L17.8051 12.3744H19.6769C20.0929 12.3744 20.4307 12.7211 20.4307 13.1476C20.4309 13.5743 20.0929 13.9477 19.6771 13.9477H19.6772Z" fill="#B4B0A8"/>
</svg>
