<svg width="30" height="17" viewBox="0 0 30 17" fill="none" xmlns="http://www.w3.org/2000/svg">
<path fill-rule="evenodd" clip-rule="evenodd" d="M10.8595 0.877265C9.7589 1.16058 9.00261 2.00156 9.59129 2.28754C10.2748 2.61957 10.5888 2.83053 11.0533 3.26966C11.4205 3.61678 11.707 3.96334 11.6266 3.96315C11.6091 3.96311 11.4074 3.81982 11.317 3.74319C11.2044 3.64778 10.8394 3.41637 10.6417 3.31505C10.3848 3.18345 9.9671 3.0207 9.72897 2.9595C9.01284 2.77541 8.91196 2.76277 8.15116 2.76173C6.92529 2.76004 6.70719 2.84848 5.09617 4.00039C4.51234 4.41783 3.58611 5.09895 3.56167 5.1288C3.55527 5.13662 3.44017 5.22581 3.3059 5.32701C3.17162 5.4282 3.05653 5.51654 3.05013 5.52328C3.04373 5.53005 2.98095 5.57964 2.91061 5.63349C2.84027 5.68735 2.77749 5.7366 2.77109 5.74296C2.7647 5.74931 2.70208 5.7987 2.63195 5.85273C2.5618 5.90674 2.45192 5.99785 2.38777 6.0552C2.3236 6.11254 2.23972 6.1805 2.20137 6.20619C2.06303 6.2989 1.68234 6.74655 1.40835 7.13872C1.09613 7.5856 0.865474 8.05927 0.652249 8.69136C0.590499 8.87443 0.505126 9.21452 0.484242 9.36069C0.471311 9.45124 0.449959 9.5994 0.436772 9.68995C0.403015 9.92208 0.384612 10.832 0.412591 10.8865C0.425045 10.9108 0.440746 10.9948 0.447502 11.0733C0.462775 11.2511 0.498014 11.5057 0.517386 11.5785C0.525416 11.6087 0.543125 11.678 0.556715 11.7323C0.759111 12.5419 1.20229 13.4285 1.69807 14.0158C1.75559 14.0839 1.83585 14.1793 1.87645 14.2277C2.77645 15.3008 4.35433 16.1315 5.84483 16.317C6.26601 16.3694 7.52944 16.3483 7.86416 16.2832C9.45256 15.9744 10.708 15.2636 11.6702 14.1286C11.9004 13.8569 11.9442 13.7988 12.1379 13.5083C12.3529 13.1858 12.7009 12.4568 12.7821 12.1587C12.794 12.1151 12.8407 11.9511 12.8859 11.7942C12.9311 11.6373 12.9686 11.4689 12.9692 11.42C12.9714 11.2492 13.0179 11.2436 13.2647 11.3847C13.5287 11.5357 13.9282 11.6817 14.1995 11.7264C14.8877 11.8398 15.6895 11.715 16.2747 11.4033C16.535 11.2646 16.5753 11.2654 16.5856 11.4098C16.6625 12.494 17.6993 14.2022 18.7758 15.018C18.8267 15.0566 18.9289 15.1344 19.0027 15.1908C19.6415 15.6783 20.7194 16.1368 21.6276 16.3072C22.1415 16.4037 23.5049 16.4118 23.9717 16.3212C25.4217 16.0398 26.7502 15.3212 27.6088 14.3539C28.1223 13.7754 28.5269 13.1492 28.721 12.6328C28.7459 12.5664 28.7929 12.443 28.8253 12.3585C29.151 11.511 29.2433 10.4759 29.0856 9.43871C29.0596 9.26775 29.0271 9.12597 28.9673 8.92241C28.9407 8.83177 28.9095 8.72241 28.8981 8.67939C28.7493 8.12034 28.2121 7.17148 27.7411 6.63589C27.4946 6.35553 27.4662 6.327 27.3029 6.19634C27.22 6.13007 27.1366 6.06051 27.1175 6.0418C27.0984 6.02307 27.0255 5.96346 26.9554 5.90935C26.8853 5.85521 26.8227 5.80548 26.8164 5.79883C26.81 5.79217 26.7214 5.72297 26.6195 5.64502C26.5175 5.56709 26.366 5.44851 26.2829 5.38152C26.1997 5.31455 26.0916 5.23 26.0426 5.19366C25.9936 5.15731 25.7593 4.98125 25.522 4.80239C24.7807 4.24395 24.3579 3.93739 23.8391 3.58223C22.8103 2.87795 22.5567 2.79451 21.4387 2.79222C20.6893 2.79068 20.5831 2.80363 19.8716 2.98333C19.3862 3.10593 18.581 3.49165 18.3148 3.72901C17.7371 4.24428 17.9086 3.88844 18.5123 3.31951C19.008 2.85226 19.3645 2.61393 20.0531 2.28949C20.56 2.05065 19.933 1.29033 18.9568 0.959944C18.6185 0.845474 18.0928 0.795473 17.8782 0.857375C17.8412 0.86807 17.7482 0.889283 17.6716 0.90454C17.0867 1.021 16.4518 1.50296 16.1509 2.05898C16.0836 2.1833 16.0539 2.19013 15.8975 2.11719C15.6305 1.9927 15.5601 1.97036 15.2902 1.92456C15.119 1.8955 14.4674 1.88769 14.327 1.91301C14.1468 1.9455 13.9072 2.02087 13.7527 2.09361C13.5601 2.18431 13.5336 2.18475 13.4841 2.09812C13.1256 1.47068 12.5408 1.01392 11.9388 0.891103C11.8622 0.875487 11.7693 0.853838 11.7323 0.84297C11.5933 0.802153 11.0717 0.822669 10.8595 0.877265ZM7.16652 6.95545C8.52267 7.15636 9.6464 8.01661 10.1562 9.24417C10.2148 9.38528 10.2722 9.55097 10.2838 9.6124C10.2954 9.67382 10.3156 9.76855 10.3287 9.82293C10.7332 11.5005 9.65219 13.327 7.90452 13.9188C7.26467 14.1355 6.70252 14.1791 5.8849 14.0752C4.64082 13.9172 3.41179 12.9091 2.98203 11.6941C2.87811 11.4003 2.82062 11.1427 2.79079 10.8373C2.62322 9.12122 3.86458 7.44611 5.60097 7.04525C5.70879 7.02034 5.82913 6.99054 5.86836 6.97904C5.90759 6.96751 5.98595 6.95749 6.04249 6.95679C6.09903 6.95606 6.1662 6.94671 6.19175 6.93599C6.24825 6.91232 6.97295 6.92678 7.16652 6.95545ZM23.541 6.99646C23.6239 7.00948 23.7335 7.02996 23.7846 7.042C23.8356 7.05402 23.9243 7.07377 23.9818 7.08592C25.2695 7.35803 26.5132 8.62554 26.7158 9.87231C26.8171 10.4951 26.8017 11.0109 26.6677 11.4861C26.147 13.3325 24.3879 14.3837 22.271 14.1136C20.5435 13.8931 19.0424 12.133 19.1538 10.4584C19.169 10.2302 19.2015 9.99739 19.2396 9.84381C19.253 9.7895 19.2737 9.69486 19.2856 9.6335C19.4982 8.53343 20.7626 7.35033 22.0206 7.0743C22.11 7.05468 22.2209 7.02916 22.2671 7.01759C22.3133 7.00601 22.3864 6.99593 22.4296 6.9952C22.4728 6.99444 22.5291 6.98506 22.5546 6.97434C22.6145 6.94923 23.3443 6.96559 23.541 6.99646ZM15.0375 8.33905C16.1655 8.66646 15.9561 10.1874 14.7834 10.1847C14.2671 10.1835 13.9375 9.92899 13.8078 9.43144C13.6394 8.78497 14.362 8.14299 15.0375 8.33905Z" fill="#B4B0A8"/>
</svg>
