<svg width="21" height="21" viewBox="0 0 21 21" fill="none" xmlns="http://www.w3.org/2000/svg">
<path d="M8.55191 11.4914C8.85097 11.4915 9.09298 11.7341 9.09287 12.0336L9.09 19.507C9.08989 19.8065 8.84769 20.0488 8.54863 20.0487L1.08624 20.0459C1.01517 20.0459 0.944809 20.0318 0.879162 20.0046C0.813515 19.9773 0.753873 19.9374 0.70364 19.887C0.653408 19.8367 0.613569 19.7769 0.586398 19.7112C0.559227 19.6454 0.545256 19.5749 0.545284 19.5037L0.54815 12.0303C0.548265 11.7308 0.790458 11.4885 1.08952 11.4886L8.55191 11.4914ZM19.9449 11.4957C20.2439 11.4958 20.4859 11.7384 20.4858 12.0379L20.483 19.5113C20.4828 19.8108 20.2406 20.0532 19.9416 20.053L12.4792 20.0502C12.4081 20.0502 12.3378 20.0361 12.2721 20.0089C12.2065 19.9816 12.1468 19.9417 12.0966 19.8913C12.0464 19.841 12.0065 19.7812 11.9794 19.7155C11.9522 19.6497 11.9382 19.5792 11.9382 19.5081L11.9411 12.0347C11.9412 11.7351 12.1834 11.4928 12.4825 11.4929L19.9449 11.4957ZM8.55628 0.0816368C8.85535 0.0817498 9.09736 0.324299 9.09724 0.623805L9.09438 8.0972C9.09426 8.39671 8.85207 8.63908 8.553 8.63896L1.09062 8.63615C0.947091 8.63609 0.809466 8.57894 0.708017 8.47726C0.606567 8.37559 0.549605 8.23771 0.54966 8.09398L0.552526 0.620577C0.552641 0.321071 0.794835 0.0787047 1.0939 0.0788177L8.55628 0.0816368ZM19.9492 0.0859408C20.2483 0.0860538 20.4903 0.328603 20.4902 0.628109L20.4873 8.10151C20.4872 8.40102 20.245 8.64338 19.946 8.64327L12.4836 8.64045C12.4125 8.64042 12.3421 8.62638 12.2765 8.59912C12.2108 8.57186 12.1512 8.53191 12.101 8.48157C12.0507 8.43122 12.0109 8.37146 11.9837 8.3057C11.9566 8.23993 11.9426 8.16945 11.9426 8.09828L11.9455 0.624881C11.9456 0.325375 12.1878 0.0830087 12.4869 0.0831217L19.9492 0.0859408Z" fill="#B4B0A8"/>
</svg>
