<svg width="24" height="25" viewBox="0 0 24 25" fill="none" xmlns="http://www.w3.org/2000/svg">
<path d="M20.9911 13.3567C21.0412 12.9802 21.0747 12.5866 21.0749 12.1929C21.075 11.7993 21.0418 11.4056 20.992 11.012L23.4585 9.02762C23.6752 8.83944 23.742 8.51428 23.5921 8.25751L21.2612 4.11488C21.1114 3.8581 20.8115 3.7553 20.5449 3.85789L17.6455 5.05482C17.0445 4.5728 16.3835 4.1754 15.68 3.87317L15.2481 0.70679C15.2202 0.56836 15.1473 0.443795 15.0413 0.353561C14.9354 0.263326 14.8027 0.212786 14.6651 0.210245L10.0002 0.208482C9.71695 0.208375 9.46696 0.430771 9.41687 0.721702L8.98248 3.88775C8.28262 4.19555 7.61604 4.58893 7.01608 5.06792L4.1176 3.8688C3.85107 3.76601 3.55114 3.86858 3.4011 4.12525L1.06703 8.26611C0.91699 8.52278 0.983508 8.84798 1.20002 9.03632L3.66502 11.0226C3.6149 11.3991 3.58143 11.7927 3.58127 12.1863C3.58112 12.58 3.61429 12.9736 3.66412 13.3673L1.1976 15.3516C0.980941 15.5398 0.914174 15.865 1.06402 16.1217L3.39491 20.2644C3.54476 20.5211 3.84461 20.6239 4.11122 20.5214L7.01061 19.3244C7.61021 19.8039 8.25982 20.1977 8.9761 20.5061L9.40806 23.6725C9.45794 23.9463 9.70776 24.1689 9.99099 24.169L14.6559 24.1708C14.9392 24.1709 15.1892 23.9485 15.2393 23.6575L15.6737 20.4915C16.3735 20.1837 17.0401 19.7903 17.6401 19.3113L20.5385 20.5104C20.8051 20.6132 21.105 20.5107 21.255 20.254L23.5891 16.1131C23.7391 15.8565 23.6726 15.5313 23.4561 15.3429L20.9911 13.3567ZM12.3268 15.6126C10.4941 15.6119 8.99523 14.071 8.99596 12.1884C8.99668 10.3058 10.4967 8.766 12.3294 8.76669C14.162 8.76738 15.6609 10.3083 15.6602 12.1909C15.6595 14.0735 14.1594 15.6132 12.3268 15.6126Z" fill="#B4B0A8"/>
</svg>
