<svg xmlns="http://www.w3.org/2000/svg" width="20" height="20" fill="none" viewBox="0 0 20 20">
  <path fill="#000" d="M8.029 11.429c.3 0 .542.242.542.542v7.486c0 .3-.242.543-.542.543H.543A.542.542 0 0 1 0 19.457v-7.486c0-.3.243-.542.543-.542h7.486Zm11.428 0c.3 0 .543.242.543.542v7.486c0 .3-.243.543-.543.543h-7.486a.542.542 0 0 1-.542-.543v-7.486c0-.3.242-.542.542-.542h7.486ZM8.03 0c.3 0 .542.243.542.543v7.486c0 .3-.242.542-.542.542H.543A.543.543 0 0 1 0 8.03V.543C0 .243.243 0 .543 0h7.486Zm11.428 0c.3 0 .543.243.543.543v7.486c0 .3-.243.542-.543.542h-7.486a.542.542 0 0 1-.542-.542V.543c0-.3.242-.543.542-.543h7.486Z"/>
</svg>
