<svg xmlns="http://www.w3.org/2000/svg" width="24" height="24" viewBox="0 0 24 24" fill="none">
  <g opacity="0.615508">
    <path d="M11.9999 0C18.6227 0 24.0001 5.37696 24.0001 11.9997C24.0001 18.6225 18.6227 23.9995 11.9999 23.9995C5.37712 23.9995 0.000152588 18.6225 0.000152588 11.9997C0.000152588 5.37696 5.37712 0 11.9999 0Z" fill="#FF9D3B" fill-opacity="0.4"/>
  </g>
  <path d="M12.0938 3.38281C16.7669 3.38281 20.5613 7.17687 20.5613 11.85C20.5613 16.5231 16.7669 20.3172 12.0938 20.3172C7.4207 20.3172 3.62665 16.5231 3.62665 11.85C3.62665 7.17687 7.4207 3.38281 12.0938 3.38281Z" fill="#FF9D3B"/>
  <path d="M12.0938 3.38281C16.7669 3.38281 20.5611 7.17701 20.5611 11.8501C20.5611 16.5232 16.7669 20.3174 12.0938 20.3174C7.42075 20.3174 3.62656 16.5232 3.62656 11.8501C3.62656 7.17701 7.42075 3.38281 12.0938 3.38281Z" stroke="#FF9D3B" stroke-width="0.966004" stroke-miterlimit="1" stroke-linecap="round"/>
  <path d="M12.3757 8.4697C12.2977 9.45147 12.2024 10.6505 12.1072 11.8496" stroke="white" stroke-width="1.75637" stroke-linecap="round"/>
  <path d="M10.948 17.7235C10.948 17.7235 11.5043 14.9535 12.0606 12.1834" stroke="white" stroke-width="1.75637" stroke-linecap="round"/>
</svg>