<svg width="21" height="21" viewBox="0 0 21 21" fill="none" xmlns="http://www.w3.org/2000/svg">
<g id="pending">
<g id="Vector">
<path d="M10.5 1.79639C5.90001 1.79639 2.16667 5.52972 2.16667 10.1297C2.16667 14.7297 5.90001 18.4631 10.5 18.4631C15.1 18.4631 18.8333 14.7297 18.8333 10.1297C18.8333 5.52972 15.1 1.79639 10.5 1.79639ZM10.5 16.7964C6.81667 16.7964 3.83334 13.8131 3.83334 10.1297C3.83334 6.44639 6.81667 3.46305 10.5 3.46305C14.1833 3.46305 17.1667 6.44639 17.1667 10.1297C17.1667 13.8131 14.1833 16.7964 10.5 16.7964Z" fill="#FDA600"/>
<path d="M6.33334 11.3797C7.02369 11.3797 7.58334 10.8201 7.58334 10.1297C7.58334 9.43936 7.02369 8.87972 6.33334 8.87972C5.64298 8.87972 5.08334 9.43936 5.08334 10.1297C5.08334 10.8201 5.64298 11.3797 6.33334 11.3797Z" fill="#FDA600"/>
<path d="M10.5 11.3797C11.1904 11.3797 11.75 10.8201 11.75 10.1297C11.75 9.43936 11.1904 8.87972 10.5 8.87972C9.80965 8.87972 9.25 9.43936 9.25 10.1297C9.25 10.8201 9.80965 11.3797 10.5 11.3797Z" fill="#FDA600"/>
<path d="M14.6667 11.3797C15.357 11.3797 15.9167 10.8201 15.9167 10.1297C15.9167 9.43936 15.357 8.87972 14.6667 8.87972C13.9763 8.87972 13.4167 9.43936 13.4167 10.1297C13.4167 10.8201 13.9763 11.3797 14.6667 11.3797Z" fill="#FDA600"/>
</g>
</g>
</svg>
