<svg width="31" height="30" viewBox="0 0 31 30" fill="none" xmlns="http://www.w3.org/2000/svg">
<rect width="31" height="30" fill="#3A3A3A"/>
<g filter="url(#filter0_d_107_3136)">
<rect width="360" height="617.165" rx="11.4282" transform="matrix(1 0.000377775 -0.000383566 1 -29.7339 -299.779)" fill="white"/>
</g>
<g filter="url(#filter1_d_107_3136)">
<rect x="-11.8564" y="-69.1309" width="321.573" height="172.242" rx="5.99967" fill="white"/>
</g>
<ellipse cx="15.0371" cy="14.8757" rx="15" ry="14.7859" fill="#ECF2FB"/>
<path fill-rule="evenodd" clip-rule="evenodd" d="M15.8802 9.11567C13.9187 9.66916 13.1119 12.044 14.2558 13.897C14.4696 14.2433 14.443 14.2819 13.0062 15.7131C11.4531 17.26 11.5827 17.1878 11.1294 16.759C10.6674 16.3221 10.6496 16.3276 9.81645 17.1631C8.98464 17.9972 8.97948 18.014 9.41444 18.474C9.79801 18.8795 9.79646 18.8681 9.5135 19.2067C9.01837 19.7994 9.25226 20.5959 9.96026 20.7288C10.4074 20.8127 10.5016 20.7347 13.1221 18.1136C14.5052 16.7301 15.6847 15.5983 15.7432 15.5983C15.8018 15.5983 16.064 15.7 16.3258 15.8244C18.7503 16.9758 21.0965 15.5682 20.9384 13.057C20.7827 10.5833 18.0966 8.49027 15.8802 9.11567ZM17.6607 11.0792C19.52 12.0219 19.6645 14.6293 17.8456 14.4156C16.3163 14.2359 15.0466 12.3265 15.7531 11.2687C16.0929 10.7601 16.8775 10.6821 17.6607 11.0792Z" fill="#3D7CDB"/>
<defs>
<filter id="filter0_d_107_3136" x="-96.6308" y="-337.869" width="474.51" height="731.575" filterUnits="userSpaceOnUse" color-interpolation-filters="sRGB">
<feFlood flood-opacity="0" result="BackgroundImageFix"/>
<feColorMatrix in="SourceAlpha" type="matrix" values="0 0 0 0 0 0 0 0 0 0 0 0 0 0 0 0 0 0 127 0" result="hardAlpha"/>
<feOffset dx="-9.5235" dy="19.047"/>
<feGaussianBlur stdDeviation="28.5705"/>
<feComposite in2="hardAlpha" operator="out"/>
<feColorMatrix type="matrix" values="0 0 0 0 0 0 0 0 0 0 0 0 0 0 0 0 0 0 0.1 0"/>
<feBlend mode="normal" in2="BackgroundImageFix" result="effect1_dropShadow_107_3136"/>
<feBlend mode="normal" in="SourceGraphic" in2="effect1_dropShadow_107_3136" result="shape"/>
</filter>
<filter id="filter1_d_107_3136" x="-30.8554" y="-84.13" width="359.571" height="210.24" filterUnits="userSpaceOnUse" color-interpolation-filters="sRGB">
<feFlood flood-opacity="0" result="BackgroundImageFix"/>
<feColorMatrix in="SourceAlpha" type="matrix" values="0 0 0 0 0 0 0 0 0 0 0 0 0 0 0 0 0 0 127 0" result="hardAlpha"/>
<feOffset dy="3.99978"/>
<feGaussianBlur stdDeviation="9.49949"/>
<feComposite in2="hardAlpha" operator="out"/>
<feColorMatrix type="matrix" values="0 0 0 0 0 0 0 0 0 0 0 0 0 0 0 0 0 0 0.08 0"/>
<feBlend mode="normal" in2="BackgroundImageFix" result="effect1_dropShadow_107_3136"/>
<feBlend mode="normal" in="SourceGraphic" in2="effect1_dropShadow_107_3136" result="shape"/>
</filter>
</defs>
</svg>
