<svg width="14" height="14" viewBox="0 0 14 14" fill="none" xmlns="http://www.w3.org/2000/svg">
<path d="M7.0112 8.68C7.36307 8.68 7.59733 8.4672 7.59733 8.148V7.72333C7.59733 7.29773 7.7728 6.92533 8.12467 6.76573C9.00387 6.34107 9.4724 5.43667 9.29693 4.5332C9.12053 3.68293 8.35893 2.99133 7.42093 2.83173C6.71813 2.72533 6.0144 2.88493 5.48707 3.31053C4.95973 3.73613 4.66667 4.3204 4.66667 4.9588C4.66667 5.27707 4.90093 5.4908 5.2528 5.4908C5.60467 5.4908 5.83893 5.27707 5.83893 4.9588C5.83893 4.6396 6.0144 4.3204 6.2496 4.1608C6.54173 3.948 6.8936 3.8948 7.24547 3.948C7.714 4.0012 8.12467 4.3736 8.18347 4.7992C8.30013 5.22387 8.06587 5.70267 7.59733 5.91547C6.8936 6.28787 6.42507 6.97947 6.42507 7.77653V8.148C6.42507 8.4672 6.65933 8.68 7.0112 8.68V8.68ZM7.93333 10.4953C7.93333 9.8952 7.5068 9.52 6.99533 9.52C6.482 9.52 6.06667 9.8952 6.06667 10.36C6.06667 10.8248 6.482 11.2 6.99533 11.2C7.5068 11.2 7.92213 10.8248 7.93333 10.4953ZM0 7C0 3.13973 3.13973 0 7 0C10.8603 0 14 3.13973 14 7C14 10.8603 10.8603 14 7 14C3.13973 14 0 10.8603 0 7Z" fill="#34526E"/>
</svg>
