<svg width="40" height="40" viewBox="0 0 40 40" fill="none" xmlns="http://www.w3.org/2000/svg">
<rect width="40" height="40" fill="#E1E1E1"/>
<g filter="url(#filter0_d_107_3136)">
<rect x="-30.8691" y="-107.648" width="359.981" height="617.202" rx="9.99946" fill="white"/>
</g>
<path d="M4.54659 36.5944C6.3105 36.5944 7.89241 35.1945 7.89241 31.5827C7.89241 27.9709 6.3105 26.571 4.54659 26.571C2.78269 26.571 1.20077 27.9709 1.20077 31.5827C1.20077 35.1945 2.78269 36.5944 4.54659 36.5944ZM4.54659 35.1945C3.55264 35.1945 2.76869 34.4105 2.76869 31.5827C2.76869 28.7548 3.55264 27.9709 4.54659 27.9709C5.54054 27.9709 6.32449 28.7548 6.32449 31.5827C6.32449 34.4105 5.54054 35.1945 4.54659 35.1945ZM12.0112 36.5944C13.4392 36.5944 14.7131 35.7545 14.9371 34.0326H13.5512C13.3972 34.7885 12.8652 35.2925 12.0252 35.2925C11.0873 35.2925 10.4013 34.4945 10.4013 33.1086C10.4013 31.7227 11.1153 30.9247 12.0532 30.9247C12.7112 30.9247 13.2432 31.2187 13.3692 32.0167H14.7971C14.6571 30.2388 13.3972 29.6228 12.0532 29.6228C10.3733 29.6228 8.91742 30.8407 8.91742 33.1086C8.91742 35.3765 10.2333 36.5944 12.0112 36.5944ZM18.7332 35.3065C18.2852 35.3065 18.0332 35.0685 18.0332 34.6205V30.9527H19.5451V29.7348H18.0332V28.1949H16.5773V29.7348H15.6533V30.9527H16.5773V34.5505C16.5773 35.9365 17.1793 36.5944 18.4532 36.5944C18.9852 36.5944 19.4331 36.5384 19.8391 36.4264V35.1245C19.5171 35.2365 19.1252 35.3065 18.7332 35.3065ZM23.7082 36.5944C25.4021 36.5944 26.844 35.3485 26.844 33.1086C26.844 30.8687 25.4021 29.6228 23.7082 29.6228C22.0143 29.6228 20.5723 30.8687 20.5723 33.1086C20.5723 35.3485 22.0143 36.5944 23.7082 36.5944ZM23.7082 35.2925C22.7842 35.2925 22.0563 34.5365 22.0563 33.1086C22.0563 31.6807 22.7842 30.9247 23.7082 30.9247C24.6321 30.9247 25.3601 31.6807 25.3601 33.1086C25.3601 34.5365 24.6321 35.2925 23.7082 35.2925ZM31.3598 36.5944C32.8018 36.5944 34.2857 35.3065 34.2857 33.1086C34.2857 30.9107 32.9838 29.6228 31.4158 29.6228C30.6739 29.6228 29.9319 30.0008 29.5819 30.5047V26.683H28.126V36.4824H29.5259V35.6985H29.5819C29.9739 36.2864 30.6319 36.5944 31.3598 36.5944ZM31.1639 35.2925C30.2539 35.2925 29.5259 34.4945 29.5259 33.1086C29.5259 31.7227 30.2539 30.9247 31.1639 30.9247C32.0738 30.9247 32.8018 31.7227 32.8018 33.1086C32.8018 34.4945 32.0738 35.2925 31.1639 35.2925ZM41.2572 32.7166C41.2572 30.6867 40.1373 29.6228 38.3034 29.6228C36.6094 29.6228 35.1255 30.9667 35.1255 33.0946C35.1255 35.2925 36.5114 36.5944 38.2894 36.5944C39.8293 36.5944 40.8932 35.8105 41.1732 34.3265H39.7733C39.5213 34.9845 39.0593 35.3205 38.2894 35.3205C37.3794 35.3205 36.6234 34.5925 36.5534 33.3326H41.2572V32.7166ZM39.8293 32.2686H36.6374C36.8894 31.3727 37.5334 30.8687 38.2754 30.8687C39.2133 30.8687 39.7873 31.3727 39.8293 32.1847V32.2686ZM42.5425 36.4824H43.9984V32.9126C43.9984 31.7927 44.6984 30.9387 45.7063 30.9387C46.0563 30.9387 46.3503 30.9807 46.6583 31.0647V29.7068C46.4203 29.6508 46.2383 29.6228 45.8603 29.6228C44.9784 29.6228 44.3344 30.0428 43.9984 30.6447H43.9424V29.7348H42.5425V36.4824ZM51.1653 36.4824H56.793V35.0825H53.0272L55.491 31.9467C56.219 31.0367 56.723 30.1828 56.723 29.1048C56.723 27.5509 55.729 26.571 53.9931 26.571C52.2572 26.571 51.2633 27.7189 51.2493 29.5948H52.6912C52.7192 28.4609 53.2092 27.8869 53.9931 27.8869C54.7491 27.8869 55.211 28.3349 55.211 29.1608C55.211 29.8328 54.9171 30.3368 54.5111 30.8687L51.1653 35.0825V36.4824ZM57.5874 36.4824H63.2151V35.0825H59.4493L61.9132 31.9467C62.6411 31.0367 63.1451 30.1828 63.1451 29.1048C63.1451 27.5509 62.1512 26.571 60.4153 26.571C58.6794 26.571 57.6854 27.7189 57.6714 29.5948H59.1133C59.1413 28.4609 59.6313 27.8869 60.4153 27.8869C61.1712 27.8869 61.6332 28.3349 61.6332 29.1608C61.6332 29.8328 61.3392 30.3368 60.9332 30.8687L57.5874 35.0825V36.4824ZM64.1216 34.9425V36.4824H64.7795L64.3316 37.6864H64.8775L65.6615 36.4824V34.9425H64.1216ZM70.4558 36.4824H76.0835V35.0825H72.3177L74.7815 31.9467C75.5095 31.0367 76.0135 30.1828 76.0135 29.1048C76.0135 27.5509 75.0195 26.571 73.2836 26.571C71.5477 26.571 70.5538 27.7189 70.5398 29.5948H71.9817C72.0097 28.4609 72.4997 27.8869 73.2836 27.8869C74.0396 27.8869 74.5016 28.3349 74.5016 29.1608C74.5016 29.8328 74.2076 30.3368 73.8016 30.8687L70.4558 35.0825V36.4824ZM80.3357 36.5944C82.1137 36.5944 83.5976 35.1105 83.5976 31.5827C83.5976 28.0549 82.1137 26.571 80.3357 26.571C78.5578 26.571 77.0739 28.0549 77.0739 31.5827C77.0739 35.1105 78.5578 36.5944 80.3357 36.5944ZM80.3357 35.1945C79.3838 35.1945 78.6418 34.2705 78.6418 31.5827C78.6418 28.8948 79.3838 27.9709 80.3357 27.9709C81.2877 27.9709 82.0297 28.8948 82.0297 31.5827C82.0297 34.2705 81.2877 35.1945 80.3357 35.1945ZM80.3357 32.4646C80.8257 32.4646 81.2317 32.0727 81.2317 31.5827C81.2317 31.0927 80.8257 30.6867 80.3357 30.6867C79.8458 30.6867 79.4538 31.0927 79.4538 31.5827C79.4538 32.0727 79.8458 32.4646 80.3357 32.4646ZM84.5988 36.4824H90.2265V35.0825H86.4607L88.9246 31.9467C89.6526 31.0367 90.1565 30.1828 90.1565 29.1048C90.1565 27.5509 89.1626 26.571 87.4267 26.571C85.6908 26.571 84.6968 27.7189 84.6828 29.5948H86.1248C86.1528 28.4609 86.6427 27.8869 87.4267 27.8869C88.1827 27.8869 88.6446 28.3349 88.6446 29.1608C88.6446 29.8328 88.3506 30.3368 87.9447 30.8687L84.5988 35.0825V36.4824ZM91.021 36.4824H96.6487V35.0825H92.8829L95.3468 31.9467C96.0747 31.0367 96.5787 30.1828 96.5787 29.1048C96.5787 27.5509 95.5847 26.571 93.8488 26.571C92.1129 26.571 91.119 27.7189 91.105 29.5948H92.5469C92.5749 28.4609 93.0649 27.8869 93.8488 27.8869C94.6048 27.8869 95.0668 28.3349 95.0668 29.1608C95.0668 29.8328 94.7728 30.3368 94.3668 30.8687L91.021 35.0825V36.4824Z" fill="black"/>
<g filter="url(#filter1_d_107_3136)">
<rect x="-12.4473" y="-15.5859" width="321.573" height="261.247" rx="5.99967" fill="white"/>
</g>
<ellipse opacity="0.1" cx="19.9605" cy="19.6181" rx="19.7813" ry="19.4989" fill="#5BE269"/>
<path d="M29.27 19.2871L27.7182 17.7353L21.5659 23.8766L21.5659 10.4824L19.3647 10.4824L19.3647 23.8766L13.2125 17.7353L11.6606 19.2871L20.4653 28.0918L29.27 19.2871Z" fill="#5BE269"/>
<defs>
<filter id="filter0_d_107_3136" x="-102.498" y="-148.579" width="482.772" height="739.994" filterUnits="userSpaceOnUse" color-interpolation-filters="sRGB">
<feFlood flood-opacity="0" result="BackgroundImageFix"/>
<feColorMatrix in="SourceAlpha" type="matrix" values="0 0 0 0 0 0 0 0 0 0 0 0 0 0 0 0 0 0 127 0" result="hardAlpha"/>
<feOffset dx="-10.2327" dy="20.4653"/>
<feGaussianBlur stdDeviation="30.698"/>
<feComposite in2="hardAlpha" operator="out"/>
<feColorMatrix type="matrix" values="0 0 0 0 0 0 0 0 0 0 0 0 0 0 0 0 0 0 0.1 0"/>
<feBlend mode="normal" in2="BackgroundImageFix" result="effect1_dropShadow_107_3136"/>
<feBlend mode="normal" in="SourceGraphic" in2="effect1_dropShadow_107_3136" result="shape"/>
</filter>
<filter id="filter1_d_107_3136" x="-31.4462" y="-30.5851" width="359.571" height="299.245" filterUnits="userSpaceOnUse" color-interpolation-filters="sRGB">
<feFlood flood-opacity="0" result="BackgroundImageFix"/>
<feColorMatrix in="SourceAlpha" type="matrix" values="0 0 0 0 0 0 0 0 0 0 0 0 0 0 0 0 0 0 127 0" result="hardAlpha"/>
<feOffset dy="3.99978"/>
<feGaussianBlur stdDeviation="9.49949"/>
<feComposite in2="hardAlpha" operator="out"/>
<feColorMatrix type="matrix" values="0 0 0 0 0 0 0 0 0 0 0 0 0 0 0 0 0 0 0.08 0"/>
<feBlend mode="normal" in2="BackgroundImageFix" result="effect1_dropShadow_107_3136"/>
<feBlend mode="normal" in="SourceGraphic" in2="effect1_dropShadow_107_3136" result="shape"/>
</filter>
</defs>
</svg>
