<svg width="36" height="36" viewBox="0 0 36 36" fill="none" xmlns="http://www.w3.org/2000/svg">
<g clip-path="url(#clip0_1_41)">
<g opacity="0.186861">
<path d="M36.0001 17.9999C36.0001 27.9409 27.9413 35.9999 18.0001 35.9999C8.05897 35.9999 0 27.9409 0 17.9999C0 8.05882 8.05897 -0.00012207 18.0001 -0.00012207C27.9413 -0.00012207 36.0001 8.05882 36.0001 17.9999Z" fill="#FF6347"/>
</g>
<path d="M29 18.0001C29 24.0752 24.0752 29.0001 18 29.0001C11.9249 29.0001 7 24.0752 7 18.0001C7 11.925 11.9249 7.00012 18 7.00012C24.0752 7.00012 29 11.925 29 18.0001Z" fill="#FF6347"/>
<path d="M21.9904 14.0095L14.0096 21.9903Z" fill="#FF6347"/>
<path d="M21.9904 14.0095L14.0096 21.9903" stroke="white" stroke-width="2.2481" stroke-linecap="round" stroke-linejoin="round"/>
<path d="M21.9904 21.9903L14.0096 14.0095Z" fill="#FF6347"/>
<path d="M21.9904 21.9903L14.0096 14.0095" stroke="white" stroke-width="2.2481" stroke-linecap="round" stroke-linejoin="round"/>
</g>
<defs>
<clipPath id="clip0_1_41">
<rect width="36" height="36" fill="white"/>
</clipPath>
</defs>
</svg>
