<svg width="31" height="31" viewBox="0 0 31 31" fill="none" xmlns="http://www.w3.org/2000/svg">
<rect width="31" height="31" fill="#626262"/>
<g filter="url(#filter0_d_107_3136)">
<rect width="360" height="1149.42" rx="11.4282" transform="matrix(1 0.000377775 -0.000383566 1 -29.9131 -158.695)" fill="white"/>
</g>
<g filter="url(#filter1_d_107_3136)">
<rect x="-11.7251" y="-69.5957" width="321.573" height="338.004" rx="5.99967" fill="white"/>
</g>
<ellipse cx="15.1685" cy="15.655" rx="15" ry="14.7859" fill="#FF0909" fill-opacity="0.1"/>
<path fill-rule="evenodd" clip-rule="evenodd" d="M19.2563 10.8551C19.0105 11.0977 18.2391 11.853 17.5421 12.5336C15.2386 14.7826 10.8567 19.0652 9.96795 19.9362C9.40069 20.4922 9.41178 20.3822 9.87625 20.8471C10.3445 21.3157 10.2198 21.3375 10.8993 20.6689C11.4198 20.1567 12.6191 18.9802 16.9182 14.764C20.0848 11.6586 20.5307 11.2168 20.5361 11.1791C20.5435 11.1281 19.8033 10.4141 19.743 10.4141C19.7163 10.4141 19.5551 10.5602 19.2563 10.8551ZM14.5731 11.5692C11.8279 11.7683 9.26065 13.3041 7.7665 15.6411C7.5898 15.9174 7.58787 15.8808 7.7957 16.1948C8.49464 17.2508 9.97629 18.7002 10.22 18.5665C10.2426 18.5541 10.7705 18.0402 11.3931 17.4246L12.5251 16.3053L12.5089 16.1918C12.29 14.6532 13.5382 13.3075 15.1927 13.2987L15.5853 13.2966L15.9586 12.9289C17.2623 11.6449 17.1494 11.7792 16.9596 11.7383C16.2597 11.5877 15.2779 11.5181 14.5731 11.5692ZM19.2569 13.4918C17.8475 14.856 17.666 15.0344 17.656 15.066C17.6501 15.0846 17.6658 15.1711 17.691 15.2581C18.2532 17.2015 16.3208 19.0759 14.3896 18.4604C14.3094 18.4349 14.2243 18.414 14.2004 18.414C14.1471 18.414 12.767 19.7848 12.767 19.8377C12.767 19.8886 13.0906 19.9824 13.63 20.0879C17.0285 20.7523 20.5649 19.2063 22.5437 16.1912C22.7511 15.8751 22.7506 15.913 22.5526 15.6104C21.986 14.7447 21.2483 13.9654 20.4126 13.3497C20.1503 13.1565 19.8595 12.9672 19.8248 12.9672C19.8105 12.9672 19.555 13.2033 19.2569 13.4918Z" fill="#FF0000"/>
<defs>
<filter id="filter0_d_107_3136" x="-97.0141" y="-196.785" width="474.714" height="1263.83" filterUnits="userSpaceOnUse" color-interpolation-filters="sRGB">
<feFlood flood-opacity="0" result="BackgroundImageFix"/>
<feColorMatrix in="SourceAlpha" type="matrix" values="0 0 0 0 0 0 0 0 0 0 0 0 0 0 0 0 0 0 127 0" result="hardAlpha"/>
<feOffset dx="-9.5235" dy="19.047"/>
<feGaussianBlur stdDeviation="28.5705"/>
<feComposite in2="hardAlpha" operator="out"/>
<feColorMatrix type="matrix" values="0 0 0 0 0 0 0 0 0 0 0 0 0 0 0 0 0 0 0.1 0"/>
<feBlend mode="normal" in2="BackgroundImageFix" result="effect1_dropShadow_107_3136"/>
<feBlend mode="normal" in="SourceGraphic" in2="effect1_dropShadow_107_3136" result="shape"/>
</filter>
<filter id="filter1_d_107_3136" x="-30.7241" y="-84.5949" width="359.571" height="376.002" filterUnits="userSpaceOnUse" color-interpolation-filters="sRGB">
<feFlood flood-opacity="0" result="BackgroundImageFix"/>
<feColorMatrix in="SourceAlpha" type="matrix" values="0 0 0 0 0 0 0 0 0 0 0 0 0 0 0 0 0 0 127 0" result="hardAlpha"/>
<feOffset dy="3.99978"/>
<feGaussianBlur stdDeviation="9.49949"/>
<feComposite in2="hardAlpha" operator="out"/>
<feColorMatrix type="matrix" values="0 0 0 0 0 0 0 0 0 0 0 0 0 0 0 0 0 0 0.08 0"/>
<feBlend mode="normal" in2="BackgroundImageFix" result="effect1_dropShadow_107_3136"/>
<feBlend mode="normal" in="SourceGraphic" in2="effect1_dropShadow_107_3136" result="shape"/>
</filter>
</defs>
</svg>
