<svg width="31" height="31" viewBox="0 0 31 31" fill="none" xmlns="http://www.w3.org/2000/svg">
<path fill-rule="evenodd" clip-rule="evenodd" d="M28.9255 0.121221C28.851 0.148671 28.5703 0.298167 28.3017 0.453448C28.0331 0.608729 27.5241 0.90224 27.1706 1.10573C26.8171 1.30921 26.1535 1.69229 25.6961 1.95707C24.8344 2.45569 17.8838 6.4634 16.1871 7.43981C15.6569 7.74501 14.8742 8.19542 14.4479 8.44073C13.5079 8.9817 9.48781 11.2999 7.79355 12.278C7.11772 12.6681 6.18195 13.2076 5.71407 13.4767C5.24618 13.7458 4.57413 14.1332 4.22061 14.3374C3.26726 14.8883 2.74486 15.1891 1.5929 15.8508C0.216426 16.6414 0.104398 16.7534 0.10799 17.3354C0.111771 17.9467 0.296429 18.1293 1.34249 18.5564C1.76092 18.7272 2.38405 18.9817 2.72716 19.1217C3.07028 19.2619 4.24867 19.7445 5.34581 20.1943C7.66145 21.1436 7.40057 21.0884 7.82327 20.7191C8.1831 20.4047 8.63824 20.0101 9.36262 19.3844C9.61216 19.1688 9.99498 18.8378 10.2133 18.6487C11.0379 17.9346 12.603 16.5817 13.298 15.9822C14.2077 15.1975 14.9964 14.5159 15.5066 14.0736C15.7249 13.8843 16.6096 13.1189 17.4726 12.3728C18.3356 11.6267 19.2203 10.8613 19.4387 10.6721C19.657 10.4828 20.0399 10.1515 20.2894 9.93595C20.5389 9.72037 21.6597 8.75129 22.7801 7.78244C25.5908 5.35174 25.5472 5.3697 23.9802 7.28748C23.0123 8.47196 22.5488 9.03981 20.59 11.4412C20.092 12.0519 19.0986 13.2684 18.3827 14.1446C16.996 15.8416 16.1572 16.8691 14.258 19.1973C13.605 19.9979 12.7294 21.0698 12.3123 21.5792C11.8953 22.0887 11.5118 22.558 11.4603 22.6221C11.4087 22.6862 11.2602 22.8702 11.1302 23.031L10.8939 23.3234V26.3442C10.8939 29.9808 10.8845 29.9296 11.5964 30.1983C12.2608 30.4491 12.4312 30.3358 13.6808 28.8109C16.465 25.4136 16.8247 24.9816 16.8906 24.9563C16.9196 24.9452 17.0496 24.9794 17.1796 25.0322C17.7403 25.2602 18.7936 25.6905 20.0436 26.2022C25.4845 28.4296 25.1019 28.3196 25.6529 27.816C25.9545 27.5404 25.8341 28.1784 27.7207 16.8531C28.6785 11.1033 29.6584 5.22501 29.8981 3.79016C30.2134 1.90368 30.3284 1.13125 30.3136 1.00039C30.2413 0.362442 29.5167 -0.0964822 28.9255 0.121221Z" fill="#838078"/>
</svg>
