<svg width="35" height="35" viewBox="0 0 35 35" xmlns="http://www.w3.org/2000/svg">
<path fill-rule="evenodd" clip-rule="evenodd" d="M32.508 0.675837C32.4256 0.706184 32.1152 0.871464 31.8183 1.04314C31.5213 1.21482 30.9586 1.53931 30.5678 1.76429C30.177 1.98926 29.4434 2.41278 28.9376 2.70551C27.9849 3.25678 20.3004 7.68762 18.4247 8.76712C17.8384 9.10454 16.9731 9.60251 16.5018 9.87371C15.4626 10.4718 11.018 13.0348 9.14492 14.1161C8.39773 14.5475 7.36316 15.1439 6.84588 15.4414C6.32859 15.7389 5.58558 16.1671 5.19475 16.393C4.14074 17.002 3.56318 17.3346 2.2896 18.0662C0.7678 18.9402 0.643944 19.0641 0.647915 19.7075C0.652095 20.3833 0.85625 20.5852 2.01275 21.0574C2.47536 21.2462 3.16428 21.5275 3.54362 21.6824C3.92296 21.8373 5.22576 22.371 6.43874 22.8682C8.99887 23.9178 8.71044 23.8567 9.17777 23.4484C9.57559 23.1008 10.0788 22.6645 10.8796 21.9728C11.1555 21.7345 11.5788 21.3685 11.8202 21.1594C12.7318 20.3699 14.4621 18.8742 15.2306 18.2114C16.2362 17.3439 17.1082 16.5903 17.6723 16.1013C17.9137 15.892 18.8918 15.0458 19.8459 14.2209C20.8 13.396 21.7781 12.5499 22.0195 12.3406C22.2609 12.1314 22.6842 11.7652 22.9601 11.5268C23.2359 11.2885 24.4751 10.2171 25.7137 9.14592C28.8211 6.45859 28.773 6.47845 27.0405 8.59871C25.9704 9.90824 25.458 10.536 23.2924 13.191C22.7418 13.8661 21.6436 15.211 20.852 16.1798C19.319 18.056 18.3916 19.192 16.2919 21.7659C15.5699 22.6511 14.6019 23.8361 14.1408 24.3994C13.6797 24.9626 13.2558 25.4815 13.1988 25.5524C13.1417 25.6232 12.9775 25.8267 12.8338 26.0044L12.5726 26.3277V29.6674C12.5726 33.688 12.5623 33.6314 13.3493 33.9284C14.0838 34.2057 14.2722 34.0804 15.6537 32.3946C18.7319 28.6386 19.1296 28.161 19.2025 28.133C19.2344 28.1208 19.3782 28.1585 19.5219 28.217C20.1419 28.469 21.3064 28.9447 22.6884 29.5105C28.7036 31.973 28.2807 31.8514 28.8898 31.2946C29.2233 30.9899 29.0902 31.6953 31.176 19.1743C32.2349 12.8174 33.3182 6.31848 33.5833 4.73214C33.9318 2.64649 34.059 1.7925 34.0426 1.64783C33.9627 0.942526 33.1616 0.435148 32.508 0.675837Z"/>
</svg>
