<svg width="16" height="16" viewBox="0 0 16 16" fill="none" xmlns="http://www.w3.org/2000/svg">
<path d="M13.5162 8.93857C13.5486 8.69513 13.5703 8.44063 13.5704 8.18611C13.5705 7.93159 13.549 7.67707 13.5168 7.42254L15.1116 6.1395C15.2517 6.01782 15.2948 5.80759 15.198 5.64156L13.6909 2.96304C13.594 2.79702 13.4001 2.73055 13.2277 2.79688L11.353 3.57078C10.9644 3.25912 10.537 3.00217 10.0822 2.80675L9.8029 0.759453C9.78486 0.669948 9.73772 0.589407 9.66922 0.531064C9.60073 0.47272 9.51495 0.440042 9.42599 0.438399L6.40974 0.43726C6.22661 0.43719 6.06497 0.580986 6.03258 0.769095L5.75172 2.81618C5.2992 3.0152 4.86822 3.26955 4.48029 3.57925L2.60621 2.80393C2.43388 2.73747 2.23995 2.80379 2.14294 2.96974L0.633784 5.64713C0.53677 5.81308 0.579778 6.02335 0.719772 6.14513L2.31358 7.42938C2.28117 7.67281 2.25953 7.92732 2.25943 8.18184C2.25933 8.43635 2.28078 8.69088 2.313 8.94541L0.718205 10.2285C0.578119 10.3501 0.534949 10.5604 0.631836 10.7264L2.13893 13.4049C2.23582 13.5709 2.4297 13.6374 2.60208 13.5711L4.47676 12.7972C4.86444 13.1072 5.28446 13.3618 5.7476 13.5612L6.02689 15.6085C6.05914 15.7856 6.22067 15.9295 6.4038 15.9295L9.42005 15.9307C9.60318 15.9308 9.76482 15.787 9.79721 15.5989L10.0781 13.5518C10.5306 13.3527 10.9616 13.0984 11.3495 12.7887L13.2236 13.564C13.3959 13.6305 13.5898 13.5642 13.6869 13.3982L15.196 10.7208C15.293 10.5549 15.25 10.3446 15.11 10.2228L13.5162 8.93857ZM7.91405 10.3972C6.72909 10.3967 5.75997 9.40041 5.76043 8.18316C5.7609 6.96591 6.73079 5.97034 7.91574 5.97079C9.1007 5.97124 10.0698 6.96754 10.0694 8.18479C10.0689 9.40204 9.099 10.3976 7.91405 10.3972Z" fill="#B4B0A8"/>
</svg>
