<svg width="22" height="25" viewBox="0 0 22 25" fill="none" xmlns="http://www.w3.org/2000/svg">
<path d="M5.65787 12.1715C8.31491 12.1725 10.4867 10.1968 10.4881 6.50286C10.4895 2.80894 8.31926 0.831545 5.66222 0.830542C2.97279 0.829526 0.801039 2.80528 0.799622 6.4992C0.798205 10.1931 2.96844 12.1705 5.65787 12.1715ZM2.73717 23.7707L5.75063 23.7718L19.6926 1.09506L16.6791 1.09392L2.73717 23.7707ZM5.65882 9.70892C4.49232 9.70848 3.65026 8.60646 3.65107 6.50028C3.65188 4.39409 4.49478 3.29272 5.66128 3.29316C6.79538 3.29359 7.63743 4.3956 7.63662 6.50178C7.63581 8.60797 6.79292 9.70935 5.65882 9.70892ZM16.7675 24.0352C19.4245 24.0362 21.5963 22.0604 21.5977 18.3665C21.5991 14.6726 19.4289 12.6952 16.7719 12.6942C14.1148 12.6932 11.9431 14.6689 11.9417 18.3629C11.9402 22.0568 14.1105 24.0342 16.7675 24.0352ZM16.7684 21.5726C15.6019 21.5721 14.7599 20.4701 14.7607 18.3639C14.7615 16.2577 15.6044 15.1564 16.7709 15.1568C17.9374 15.1572 18.7795 16.2593 18.7787 18.3654C18.7778 20.4716 17.9349 21.573 16.7684 21.5726Z" fill="#838078"/>
</svg>
