<svg width="30" height="30" viewBox="0 0 30 30" fill="none"
    xmlns="http://www.w3.org/2000/svg">
    <rect width="29.9803" height="29.9803" rx="14.9901" fill="#0B5A95"/>
    <mask id="mask0_0_143" style="mask-type:alpha" maskUnits="userSpaceOnUse" x="7" y="7" width="16" height="16">
        <rect x="7.01785" y="7.01667" width="15.3091" height="15.3091" fill="#838078"/>
    </mask>
    <g mask="url(#mask0_0_143)">
        <path d="M11.7072 14.0971C11.0587 14.0971 10.5005 13.8632 10.0328 13.3954C9.56497 12.9276 9.33109 12.3642 9.33109 11.705C9.33109 11.0565 9.56497 10.4984 10.0328 10.0306C10.5005 9.56283 11.064 9.32894 11.7231 9.32894C12.3716 9.32894 12.9298 9.56283 13.3976 10.0306C13.8653 10.4984 14.0992 11.0618 14.0992 11.721C14.0992 12.3695 13.8653 12.9276 13.3976 13.3954C12.9298 13.8632 12.3663 14.0971 11.7072 14.0971ZM11.7231 12.6459C11.9783 12.6459 12.1962 12.5555 12.377 12.3748C12.5577 12.1941 12.6481 11.9708 12.6481 11.705C12.6481 11.4499 12.5577 11.2319 12.377 11.0512C12.1962 10.8705 11.9783 10.7801 11.7231 10.7801C11.4573 10.7801 11.2341 10.8705 11.0534 11.0512C10.8726 11.2319 10.7823 11.4499 10.7823 11.705C10.7823 11.9708 10.8726 12.1941 11.0534 12.3748C11.2341 12.5555 11.4573 12.6459 11.7231 12.6459ZM17.6235 20.0134C16.975 20.0134 16.4169 19.7795 15.9491 19.3117C15.4813 18.844 15.2474 18.2805 15.2474 17.6214C15.2474 16.9729 15.4813 16.4147 15.9491 15.9469C16.4169 15.4792 16.9803 15.2453 17.6395 15.2453C18.288 15.2453 18.8461 15.4792 19.3139 15.9469C19.7817 16.4147 20.0155 16.9782 20.0155 17.6373C20.0155 18.2858 19.7817 18.844 19.3139 19.3117C18.8461 19.7795 18.2826 20.0134 17.6235 20.0134ZM17.6395 18.5622C17.8946 18.5622 18.1125 18.4719 18.2933 18.2911C18.474 18.1104 18.5644 17.8871 18.5644 17.6214C18.5644 17.3662 18.474 17.1483 18.2933 16.9675C18.1125 16.7868 17.8946 16.6964 17.6395 16.6964C17.3737 16.6964 17.1504 16.7868 16.9697 16.9675C16.7889 17.1483 16.6986 17.3662 16.6986 17.6214C16.6986 17.8871 16.7889 18.1104 16.9697 18.2911C17.1504 18.4719 17.3737 18.5622 17.6395 18.5622ZM9.95302 19.3915C9.81481 19.2533 9.74571 19.0832 9.74571 18.8812C9.74571 18.6792 9.81481 18.5091 9.95302 18.3709L18.373 9.95087C18.5112 9.81266 18.6813 9.74356 18.8833 9.74356C19.0853 9.74356 19.2554 9.81266 19.3936 9.95087C19.5318 10.0891 19.6009 10.2592 19.6009 10.4612C19.6009 10.6632 19.5318 10.8333 19.3936 10.9715L10.9736 19.3915C10.8354 19.5297 10.6653 19.5988 10.4633 19.5988C10.2613 19.5988 10.0912 19.5297 9.95302 19.3915Z" fill="#E7F4FE"/>
    </g>
</svg>
