<svg width="55" height="23" viewBox="0 0 55 23" fill="none" xmlns="http://www.w3.org/2000/svg">
<path fill-rule="evenodd" clip-rule="evenodd" d="M1.03606 18.4003C1.69745 19.5736 2.65887 20.55 3.82181 21.2294C4.98476 21.9089 6.30742 22.2669 7.6543 22.2669C9.00117 22.2669 10.3238 21.9089 11.4868 21.2294C12.6497 20.55 13.6111 19.5736 14.2725 18.4003C14.9513 17.2248 15.3086 15.8914 15.3086 14.534C15.3086 13.1766 14.9513 11.8431 14.2725 10.6676L8.45168 0.465803C8.37198 0.324455 8.25614 0.206832 8.11603 0.124983C7.97592 0.0431337 7.81656 0 7.6543 0C7.49203 0 7.33268 0.0431337 7.19257 0.124983C7.05245 0.206832 6.93662 0.324455 6.85692 0.465803L1.03606 10.6676C0.357327 11.8431 0 13.1766 0 14.534C0 15.8914 0.357327 17.2248 1.03606 18.4003ZM6.01456 5.31927L7.25561 3.14407C7.29546 3.0734 7.35337 3.01459 7.42343 2.97366C7.49349 2.93274 7.57316 2.91117 7.6543 2.91117C7.73543 2.91117 7.81511 2.93274 7.88516 2.97366C7.95522 3.01459 8.01314 3.0734 8.05299 3.14407L12.8275 11.512C13.2561 12.2539 13.5218 13.0786 13.6069 13.9312C13.6921 14.7838 13.5948 15.6448 13.3214 16.4568C13.262 16.18 13.1803 15.9085 13.0771 15.6448C12.4176 13.9607 10.9265 12.6611 8.64417 11.7819C7.07508 11.1797 6.07346 10.2939 5.66647 9.14885C5.14231 7.67361 5.6898 6.06449 6.01456 5.31927ZM3.89831 9.02833L2.48113 11.512C1.95055 12.4308 1.67121 13.4732 1.67121 14.5342C1.67121 15.5953 1.95055 16.6376 2.48113 17.5565C2.91003 18.3163 3.50094 18.9723 4.21191 19.4781C4.92288 19.9838 5.73647 20.3268 6.59492 20.4828C7.45336 20.6387 8.33561 20.6038 9.17903 20.3804C10.0224 20.157 10.8064 19.7507 11.4751 19.1903C11.8446 18.2455 11.8578 17.1986 11.5122 16.2448C11.0279 15.028 9.8619 14.0566 8.04681 13.357C5.99508 12.5694 4.66223 11.34 4.08569 9.7038C4.00803 9.48314 3.94543 9.25747 3.89831 9.02833Z" fill="#6FBCF0"/>
<path d="M23.3981 10.6084C23.4014 10.896 23.4824 11.1774 23.6325 11.4228C23.7825 11.6682 23.9961 11.8685 24.2505 12.0025C24.8961 12.3702 25.5881 12.6495 26.3081 12.833C27.1114 13.0307 27.9149 13.268 28.7184 13.5449C29.5181 13.7992 30.2308 14.2717 30.7764 14.9093C31.3627 15.592 31.6675 16.4721 31.6288 17.3711C31.6472 17.9954 31.5153 18.6149 31.2442 19.1775C30.9731 19.7401 30.5707 20.2293 30.071 20.6039C28.9377 21.4516 27.546 21.8813 26.132 21.82C24.8422 21.8571 23.5683 21.528 22.4578 20.8709C21.4804 20.2865 20.7175 19.4025 20.2824 18.35L22.487 17.0745C22.7144 17.7767 23.1831 18.3757 23.8099 18.7655C24.5068 19.1946 25.3139 19.4111 26.132 19.3884C26.8573 19.4161 27.577 19.2524 28.219 18.9138C28.4841 18.7566 28.7011 18.5296 28.8462 18.2577C28.9913 17.9857 29.059 17.6791 29.042 17.3713C29.0405 17.0872 28.96 16.8091 28.8094 16.5681C28.6589 16.3272 28.4442 16.1328 28.1895 16.0069C27.5521 15.6227 26.8575 15.3424 26.132 15.1765C25.3286 14.9589 24.5252 14.7118 23.7218 14.4349C22.9296 14.1655 22.2207 13.6954 21.6642 13.0705C21.0813 12.3976 20.7765 11.5279 20.8118 10.6383C20.7987 10.0322 20.9243 9.43123 21.179 8.88117C21.4338 8.33111 21.8108 7.84655 22.2815 7.46451C23.336 6.61481 24.6609 6.17263 26.0144 6.21866C27.129 6.19731 28.2277 6.48477 29.189 7.04922C30.1109 7.56325 30.8504 8.35097 31.3053 9.30349L29.1596 10.5196C28.9094 9.90675 28.4682 9.39095 27.9016 9.04886C27.3349 8.70678 26.6729 8.55667 26.0141 8.62084C25.3563 8.60115 24.7087 8.78786 24.1623 9.15479C23.9181 9.30824 23.7188 9.52351 23.5846 9.77879C23.4504 10.0341 23.3861 10.3203 23.3981 10.6084Z" fill="#6FBCF0"/>
<path d="M44.6563 6.60617H47.2136V21.437H44.6563V19.3014C44.1675 20.1155 43.4656 20.7805 42.6264 21.2248C41.7872 21.6691 40.8426 21.8758 39.8946 21.8225C39.128 21.8569 38.3627 21.7294 37.6486 21.4483C36.9345 21.1672 36.2876 20.7389 35.7501 20.1912C34.6658 18.959 34.1066 17.3514 34.1922 15.7123V6.60617H36.7495V15.5639C36.6869 16.5946 37.0357 17.608 37.7195 18.3817C38.0752 18.7184 38.4959 18.9789 38.9558 19.1473C39.4158 19.3156 39.9052 19.3882 40.3942 19.3606C40.9625 19.3848 41.5297 19.2919 42.0606 19.0878C42.5915 18.8837 43.0748 18.5727 43.4806 18.1741C44.3417 17.1393 44.7637 15.8085 44.6563 14.4664V6.60617Z" fill="#6FBCF0"/>
<path d="M52.4022 3.90637C52.0611 3.90858 51.7269 3.80947 51.4422 3.62161C51.1574 3.43374 50.9348 3.16557 50.8026 2.85108C50.6704 2.53659 50.6345 2.18993 50.6995 1.85503C50.7645 1.52012 50.9274 1.21205 51.1677 0.969842C51.3234 0.797816 51.5141 0.661154 51.7271 0.569065C51.94 0.476977 52.1702 0.431599 52.4022 0.43599C52.6295 0.433737 52.8547 0.480218 53.0626 0.572305C53.2705 0.664392 53.4562 0.799946 53.6073 0.969842C53.9274 1.29364 54.107 1.73064 54.107 2.186C54.107 2.64137 53.9274 3.07836 53.6073 3.40216C53.4518 3.56452 53.2646 3.69309 53.0573 3.77985C52.8499 3.8666 52.6269 3.90967 52.4022 3.90637ZM51.1091 21.4362V6.60537H53.6663V21.4362H51.1091Z" fill="#6FBCF0"/>
</svg>
