<svg width="33" height="24" viewBox="0 0 33 24" fill="none" xmlns="http://www.w3.org/2000/svg">
<path fill-rule="evenodd" clip-rule="evenodd" d="M25.5678 0.0504178C25.5447 0.0721571 25.5233 1.13857 25.5203 2.42021C25.5162 4.15316 25.4954 4.76869 25.4391 4.82167C25.3813 4.87614 23.9214 4.88957 19.252 4.87862C14.5826 4.86768 13.1227 4.88111 13.0649 4.93557C12.9571 5.03708 12.95 8.08472 13.0573 8.18674C13.1149 8.24147 14.5746 8.26175 19.2441 8.27269C23.9135 8.28364 25.3733 8.30391 25.4308 8.35865C25.4869 8.41195 25.5048 9.03014 25.5007 10.7722C25.4958 12.8647 25.506 13.1182 25.5959 13.1511C25.6933 13.1867 32.4054 6.95275 32.5699 6.67381C32.6361 6.56148 25.8617 0.0113897 25.6788 0.0109611C25.6409 0.0108722 25.5909 0.0286187 25.5678 0.0504178ZM3.9469 13.4085C0.927112 16.2543 0.495157 16.6834 0.55214 16.781C0.71538 17.0607 7.39812 23.3261 7.4957 23.2909C7.58578 23.2584 7.59713 23.005 7.60204 20.9126C7.60612 19.1704 7.62689 18.5524 7.68322 18.4993C7.74107 18.4448 9.20092 18.4314 13.8703 18.4424C18.5398 18.4533 19.9996 18.4399 20.0575 18.3854C20.1653 18.2839 20.1724 15.2363 20.0651 15.1342C20.0075 15.0795 18.5466 15.0592 13.8734 15.0483C8.84194 15.0365 7.74475 15.0198 7.68738 14.9541C7.63955 14.8993 7.6142 14.1391 7.60671 12.5282C7.59312 9.6263 8.08641 9.50765 3.9469 13.4085Z" fill="#838078"/>
</svg>
