<svg width="25" height="21" viewBox="0 0 25 21" fill="none" xmlns="http://www.w3.org/2000/svg">
<path d="M24.5 10.6126C24.5 10.2871 24.3698 9.9876 24.1094 9.7402L15.4766 1.13343C15.1901 0.846974 14.9167 0.742807 14.6042 0.742807C13.9661 0.742807 13.4714 1.21156 13.4714 1.8626C13.4714 2.1751 13.5755 2.47458 13.7839 2.68291L16.7005 5.65166L21.0755 9.64906L17.9375 9.45375H1.46615C0.789063 9.45375 0.320313 9.93552 0.320313 10.6126C0.320313 11.2897 0.789063 11.7715 1.46615 11.7715H17.9375L21.0885 11.5761L16.7005 15.5735L13.7839 18.5423C13.5755 18.7376 13.4714 19.0501 13.4714 19.3626C13.4714 20.0136 13.9661 20.4824 14.6042 20.4824C14.9167 20.4824 15.1901 20.3652 15.4505 20.1178L24.1094 11.485C24.3698 11.2376 24.5 10.9381 24.5 10.6126Z" fill="black"/>
</svg>
