<svg width="31" height="31" viewBox="0 0 31 31" fill="none" xmlns="http://www.w3.org/2000/svg">
<rect width="31" height="31" fill="#626262"/>
<g filter="url(#filter0_d_107_3136)">
<rect width="360" height="1149.42" rx="11.4282" transform="matrix(1 0.000377775 -0.000383566 1 -29.9131 -797.695)" fill="white"/>
</g>
<g filter="url(#filter1_d_107_3136)">
<rect x="-11.7251" y="-12.6328" width="321.573" height="223.474" rx="5.99967" fill="white"/>
</g>
<ellipse cx="15.1685" cy="15.6511" rx="15" ry="14.7859" fill="#FAFAFA"/>
<path fill-rule="evenodd" clip-rule="evenodd" d="M15.3323 8.22602C15.1762 8.2496 14.9582 8.32488 14.835 8.39776C14.4289 8.63807 8.56351 12.3432 8.53987 12.3744C8.40437 12.5532 8.77123 13.0081 9.08938 13.0558C9.1821 13.0698 9.20225 13.0912 9.22197 13.1966C9.27245 13.4669 9.51215 13.705 9.77786 13.7489C9.81898 13.7557 9.8624 13.7691 9.87431 13.7787C9.89148 13.7926 9.89599 14.3642 9.89599 16.5318C9.89599 18.6996 9.8915 19.271 9.87431 19.2845C9.8624 19.2939 9.81844 19.3068 9.77667 19.3132C9.37041 19.3753 9.20236 19.663 9.20236 20.2963C9.20236 20.695 9.20612 20.6824 9.08085 20.7005C8.81739 20.7386 8.57901 20.9807 8.52615 21.2639C8.50051 21.4013 8.50325 22.1031 8.52953 22.1294C8.54564 22.1455 10.1056 22.1502 15.445 22.1502C20.7845 22.1502 22.3444 22.1455 22.3606 22.1294C22.3882 22.1018 22.3892 21.374 22.3619 21.245C22.3041 20.9726 22.067 20.7378 21.8125 20.701C21.6836 20.6824 21.6877 20.6955 21.6877 20.3022C21.6877 19.6632 21.5206 19.3754 21.1134 19.3132C21.0716 19.3068 21.0277 19.2939 21.0158 19.2845C20.9986 19.271 20.9941 18.6994 20.9941 16.5307C20.9941 14.3602 20.9986 13.7912 21.0158 13.7803C21.0277 13.7728 21.0913 13.7529 21.1571 13.7361C21.4258 13.6674 21.6134 13.4681 21.6712 13.1897C21.6933 13.0836 21.6947 13.0823 21.8508 13.0425C22.1661 12.9618 22.4778 12.5446 22.3502 12.3738C22.3119 12.3225 16.2518 8.41134 16.1056 8.34361C15.8814 8.23969 15.5627 8.19122 15.3323 8.22602ZM13.1179 13.7781C13.1482 13.8084 13.1482 19.2553 13.1179 19.2855C13.0879 19.3155 11.3341 19.3155 11.3041 19.2855C11.2738 19.2553 11.2738 13.8084 11.3041 13.7781C11.3341 13.7481 13.0879 13.7481 13.1179 13.7781ZM16.3433 13.7781C16.3736 13.8084 16.3736 19.2553 16.3433 19.2855C16.3133 19.3155 14.5768 19.3155 14.5468 19.2855C14.5165 19.2553 14.5165 13.8084 14.5468 13.7781C14.5768 13.7481 16.3133 13.7481 16.3433 13.7781ZM19.586 13.7781C19.6163 13.8084 19.6163 19.2553 19.586 19.2855C19.556 19.3155 17.8022 19.3155 17.7722 19.2855C17.7419 19.2553 17.7419 13.8084 17.7722 13.7781C17.8022 13.7481 19.556 13.7481 19.586 13.7781Z" fill="#838078"/>
<defs>
<filter id="filter0_d_107_3136" x="-97.0141" y="-835.785" width="474.714" height="1263.83" filterUnits="userSpaceOnUse" color-interpolation-filters="sRGB">
<feFlood flood-opacity="0" result="BackgroundImageFix"/>
<feColorMatrix in="SourceAlpha" type="matrix" values="0 0 0 0 0 0 0 0 0 0 0 0 0 0 0 0 0 0 127 0" result="hardAlpha"/>
<feOffset dx="-9.5235" dy="19.047"/>
<feGaussianBlur stdDeviation="28.5705"/>
<feComposite in2="hardAlpha" operator="out"/>
<feColorMatrix type="matrix" values="0 0 0 0 0 0 0 0 0 0 0 0 0 0 0 0 0 0 0.1 0"/>
<feBlend mode="normal" in2="BackgroundImageFix" result="effect1_dropShadow_107_3136"/>
<feBlend mode="normal" in="SourceGraphic" in2="effect1_dropShadow_107_3136" result="shape"/>
</filter>
<filter id="filter1_d_107_3136" x="-30.7241" y="-27.632" width="359.571" height="261.472" filterUnits="userSpaceOnUse" color-interpolation-filters="sRGB">
<feFlood flood-opacity="0" result="BackgroundImageFix"/>
<feColorMatrix in="SourceAlpha" type="matrix" values="0 0 0 0 0 0 0 0 0 0 0 0 0 0 0 0 0 0 127 0" result="hardAlpha"/>
<feOffset dy="3.99978"/>
<feGaussianBlur stdDeviation="9.49949"/>
<feComposite in2="hardAlpha" operator="out"/>
<feColorMatrix type="matrix" values="0 0 0 0 0 0 0 0 0 0 0 0 0 0 0 0 0 0 0.08 0"/>
<feBlend mode="normal" in2="BackgroundImageFix" result="effect1_dropShadow_107_3136"/>
<feBlend mode="normal" in="SourceGraphic" in2="effect1_dropShadow_107_3136" result="shape"/>
</filter>
</defs>
</svg>
