<svg width="16" height="16" viewBox="0 0 16 16" fill="none" xmlns="http://www.w3.org/2000/svg">
<path fill-rule="evenodd" clip-rule="evenodd" d="M8.04688 3.05176e-05L11.5108 2.00009L14.9748 3.99997V11.9999L11.5108 13.9998L8.04688 15.9999L4.58284 13.9998L1.1188 11.9999V7.99995V3.99997L4.58284 2.00009L8.04688 3.05176e-05Z" fill="#FF6600"/>
<path fill-rule="evenodd" clip-rule="evenodd" d="M8.04481 4.16138L9.96399 6.08079L11.8834 7.99998L9.96399 9.91916L8.04481 11.8386L6.12558 9.91916L4.20621 7.99998L6.12558 6.08079L8.04481 4.16138Z" fill="#E879F9"/>
<path fill-rule="evenodd" clip-rule="evenodd" d="M1.11871 4.00006L8.04678 4.16144L4.20818 8.00005L1.11871 4.00006Z" fill="#F0ABFC"/>
<path fill-rule="evenodd" clip-rule="evenodd" d="M1.11871 12L8.04678 11.8387L4.20818 8.00006L1.11871 12Z" fill="#C026D3"/>
<path fill-rule="evenodd" clip-rule="evenodd" d="M1.11871 4.00006V12L4.20818 8.00005L1.11871 4.00006Z" fill="#D946EF"/>
<path fill-rule="evenodd" clip-rule="evenodd" d="M14.978 4.00006L8.04996 4.16144L11.8886 8.00005L14.978 4.00006Z" fill="#F0ABFC"/>
<path fill-rule="evenodd" clip-rule="evenodd" d="M14.978 12L8.04996 11.8387L11.8886 8.00006L14.978 12Z" fill="#A21CAF"/>
<path fill-rule="evenodd" clip-rule="evenodd" d="M14.9738 4.00006V12L11.8843 8.00005L14.9738 4.00006Z" fill="#D946EF"/>
<path fill-rule="evenodd" clip-rule="evenodd" d="M1.1188 3.99997L8.04688 4.16135V3.05176e-05L1.1188 3.99997Z" fill="#F5D0FE"/>
<path fill-rule="evenodd" clip-rule="evenodd" d="M14.978 4L8.04996 4.16138V6.10352e-05L14.978 4Z" fill="#FAE8FF"/>
<path fill-rule="evenodd" clip-rule="evenodd" d="M1.11871 12.0001L8.04678 11.8387V16.0001L1.11871 12.0001Z" fill="#701A75"/>
<path fill-rule="evenodd" clip-rule="evenodd" d="M14.978 12.0001L8.04996 11.8387V16.0001L14.978 12.0001Z" fill="#86198F"/>
</svg>
