<svg width="16" height="14" viewBox="0 0 16 14" fill="none" xmlns="http://www.w3.org/2000/svg">
<path d="M16 2.01579C15.4 2.31579 14.8 2.41579 14.1 2.51579C14.8 2.11579 15.3 1.51579 15.5 0.715793C14.9 1.11579 14.2 1.31579 13.4 1.51579C12.8 0.915793 11.9 0.515793 11 0.515793C8.9 0.515793 7.3 2.51579 7.8 4.51579C5.1 4.41579 2.7 3.11579 1 1.11579C0.1 2.61579 0.6 4.51579 2 5.51579C1.5 5.51579 1 5.31579 0.5 5.11579C0.5 6.61579 1.6 8.01579 3.1 8.41579C2.6 8.51579 2.1 8.61579 1.6 8.51579C2 9.81579 3.2 10.8158 4.7 10.8158C3.5 11.7158 1.7 12.2158 0 12.0158C1.5 12.9158 3.2 13.5158 5 13.5158C11.1 13.5158 14.5 8.41579 14.3 3.71579C15 3.31579 15.6 2.71579 16 2.01579Z" fill="#fff"/>
</svg>
