<svg width="31" height="31" viewBox="0 0 31 31" fill="none" xmlns="http://www.w3.org/2000/svg">
<rect width="31" height="31" fill="#626262"/>
<g filter="url(#filter0_d_107_3136)">
<rect width="360" height="1149.42" rx="11.4282" transform="matrix(1 0.000377775 -0.000383566 1 -29.9131 -851.695)" fill="white"/>
</g>
<g filter="url(#filter1_d_107_3136)">
<rect x="-11.7251" y="-66.6328" width="321.573" height="223.474" rx="5.99967" fill="white"/>
</g>
<ellipse cx="15.1685" cy="15.3542" rx="15" ry="14.7859" fill="#1D9BF0" fill-opacity="0.1"/>
<path fill-rule="evenodd" clip-rule="evenodd" d="M17.9297 9.98181C16.2961 10.3251 15.1472 11.9773 15.4431 13.5578C15.4885 13.7998 15.4754 13.8078 15.0929 13.7701C13.0649 13.5705 11.2215 12.712 9.74584 11.2801C9.55095 11.091 9.35757 10.9234 9.31606 10.9076C8.18564 10.4778 8.42235 13.4232 9.60208 14.4662C9.88371 14.7151 9.84838 14.7375 9.35109 14.6253C8.97502 14.5404 8.9091 14.5389 8.76609 14.6118C8.56584 14.714 8.44789 15.018 8.54022 15.1939C8.5543 15.2207 8.58773 15.3058 8.61455 15.383C8.91872 16.2586 9.66957 17.0097 10.5669 17.336C10.9445 17.4733 10.9169 17.5142 10.4094 17.5689C9.03706 17.717 10.5954 19.4439 12.3372 19.7052C12.5536 19.7376 12.4906 19.8213 12.0365 20.1042C11.1034 20.6857 9.85759 21.0656 8.88387 21.0656C7.83669 21.0656 9.14126 21.8524 10.8103 22.2275C16.4118 23.4861 21.6757 19.255 21.676 13.4936L21.676 13.0635L21.7544 12.9885C21.7975 12.9472 21.9257 12.8377 22.0392 12.7451C22.6937 12.211 22.9974 11.7815 22.7948 11.6768C22.6953 11.6253 22.6817 11.6269 22.232 11.7447C21.6348 11.9012 21.4806 11.8888 21.7251 11.7041C22.1298 11.3985 22.6021 10.7948 22.6021 10.5832C22.6021 10.3602 22.4681 10.3562 21.9684 10.5642C21.782 10.6418 21.4915 10.7437 21.323 10.7905C20.8193 10.9304 20.8655 10.9331 20.6616 10.7507C19.9018 10.0709 18.8775 9.78262 17.9297 9.98181Z" fill="#1D9BF0"/>
<defs>
<filter id="filter0_d_107_3136" x="-97.0141" y="-889.785" width="474.714" height="1263.83" filterUnits="userSpaceOnUse" color-interpolation-filters="sRGB">
<feFlood flood-opacity="0" result="BackgroundImageFix"/>
<feColorMatrix in="SourceAlpha" type="matrix" values="0 0 0 0 0 0 0 0 0 0 0 0 0 0 0 0 0 0 127 0" result="hardAlpha"/>
<feOffset dx="-9.5235" dy="19.047"/>
<feGaussianBlur stdDeviation="28.5705"/>
<feComposite in2="hardAlpha" operator="out"/>
<feColorMatrix type="matrix" values="0 0 0 0 0 0 0 0 0 0 0 0 0 0 0 0 0 0 0.1 0"/>
<feBlend mode="normal" in2="BackgroundImageFix" result="effect1_dropShadow_107_3136"/>
<feBlend mode="normal" in="SourceGraphic" in2="effect1_dropShadow_107_3136" result="shape"/>
</filter>
<filter id="filter1_d_107_3136" x="-30.7241" y="-81.632" width="359.571" height="261.472" filterUnits="userSpaceOnUse" color-interpolation-filters="sRGB">
<feFlood flood-opacity="0" result="BackgroundImageFix"/>
<feColorMatrix in="SourceAlpha" type="matrix" values="0 0 0 0 0 0 0 0 0 0 0 0 0 0 0 0 0 0 127 0" result="hardAlpha"/>
<feOffset dy="3.99978"/>
<feGaussianBlur stdDeviation="9.49949"/>
<feComposite in2="hardAlpha" operator="out"/>
<feColorMatrix type="matrix" values="0 0 0 0 0 0 0 0 0 0 0 0 0 0 0 0 0 0 0.08 0"/>
<feBlend mode="normal" in2="BackgroundImageFix" result="effect1_dropShadow_107_3136"/>
<feBlend mode="normal" in="SourceGraphic" in2="effect1_dropShadow_107_3136" result="shape"/>
</filter>
</defs>
</svg>
