<svg width="14" height="15" viewBox="0 0 14 15" fill="none" xmlns="http://www.w3.org/2000/svg">
<path d="M4.13696 3.9252L4.97637 3.80562L4.72029 2.0072L3.88029 2.1262L4.13696 3.9252ZM2.84721 5.93478L2.96679 5.09478L1.16779 4.83812L1.04821 5.6787L2.84721 5.93478ZM2.55904 2.92303L1.95821 3.52386L3.24329 4.80953L3.84354 4.2087L2.55904 2.92303ZM9.87463 12.0026L9.03521 12.1222L9.29071 13.9206L10.1313 13.8016L9.87463 12.0026ZM11.1638 9.99245L11.0436 10.833L12.8432 11.0891L12.9628 10.2491L11.1638 9.99245ZM11.4525 13.0042L12.0522 12.4039L10.7665 11.1183L10.1675 11.7191L11.4525 13.0042ZM12.9925 1.97687C14.3599 3.34537 14.3599 5.56378 12.9931 6.9317L10.7205 9.20436L9.89388 8.37778L12.166 6.1057C13.0771 5.19453 13.0771 3.71345 12.166 2.80287C11.2548 1.8917 9.77371 1.8917 8.86312 2.80287L6.59162 5.07495L5.76562 4.24895L8.03771 1.97687C9.40504 0.608949 11.6235 0.608949 12.9925 1.97687ZM8.24537 11.6783L5.99837 13.9247C4.63104 15.2938 2.41321 15.2926 1.04354 13.9253C-0.323792 12.5568 -0.324376 10.3384 1.04354 8.97045L3.29171 6.72403L4.11654 7.54945L1.87012 9.79587C0.958958 10.707 0.958958 12.1887 1.86954 13.0993C2.78129 14.0099 4.26237 14.0099 5.17354 13.0987L7.41937 10.8523L8.24537 11.6783Z" fill="#838078"/>
</svg>
