<svg width="14" height="13" viewBox="0 0 14 13" fill="none" xmlns="http://www.w3.org/2000/svg">
<path fill-rule="evenodd" clip-rule="evenodd" d="M6.66225 0.184831C4.82943 0.377823 3.56577 2.13741 3.86619 4.07824C4.2166 6.34195 6.03977 7.93673 7.65819 7.39517C8.7467 7.03095 9.76742 5.64969 10.0169 4.20328C10.4073 1.94075 8.75721 -0.0357736 6.66225 0.184831ZM4.01014 7.27553C2.40184 7.90038 1.31116 8.51402 0.999406 8.96942C0.869368 9.15937 0.62161 9.91849 0.522041 10.432C0.369587 11.2183 1.39023 11.9757 3.22044 12.4344C7.71078 13.56 13.747 12.3439 13.3805 10.3875C13.2476 9.67823 12.9924 9.036 12.743 8.78316C12.3357 8.37032 11.1053 7.72457 9.78199 7.22928C9.35875 7.07085 9.41529 7.06898 9.22377 7.24779C8.35154 8.06212 7.44825 8.35442 6.37269 8.17034C5.81359 8.07465 5.24822 7.76802 4.69128 7.25843C4.47993 7.06505 4.55687 7.06311 4.01014 7.27553Z" fill="#fff"/>
</svg>
