<svg width="13" height="12" viewBox="0 0 13 12" fill="none" xmlns="http://www.w3.org/2000/svg">
<path fill-rule="evenodd" clip-rule="evenodd" d="M1.33782 0.649585C0.82456 0.748519 0.316678 1.24546 0.175724 1.78665C0.113323 2.02623 0.113771 9.75395 0.1762 10.0187C0.30408 10.5612 0.740128 10.9909 1.27841 11.105C1.55483 11.1636 11.1429 11.1636 11.4194 11.105C11.9577 10.9909 12.3937 10.5612 12.5216 10.0187C12.584 9.75395 12.5845 2.02623 12.5221 1.78665C12.3778 1.23291 11.8705 0.745775 11.3352 0.64701C11.1461 0.612128 1.51922 0.61462 1.33782 0.649585ZM11.2598 1.5978C11.5246 1.65922 11.5926 1.78038 11.6069 2.21615C11.6191 2.58887 11.6029 2.62442 11.442 2.57826C11.3811 2.56082 9.52728 2.55083 6.34889 2.55083C3.1705 2.55083 1.31665 2.56082 1.25582 2.57826C1.09488 2.62442 1.07867 2.58887 1.0909 2.21615C1.10496 1.78763 1.17514 1.6581 1.42524 1.59906C1.55878 1.56754 11.124 1.5663 11.2598 1.5978ZM11.387 3.5517C11.6929 3.706 11.7192 4.55777 11.4159 4.48776C11.208 4.43978 1.48974 4.43978 1.28188 4.48776C0.978559 4.55777 1.00485 3.706 1.31077 3.5517C1.46122 3.47577 11.2366 3.47577 11.387 3.5517ZM11.387 5.45534C11.5417 5.53337 11.5878 5.64442 11.605 5.98033C11.6263 6.39891 11.7673 6.35804 10.2997 6.35854C8.55219 6.3591 8.20775 6.47763 7.8446 7.2032C7.11869 8.65367 5.57909 8.65367 4.85318 7.2032C4.49082 6.4792 4.14181 6.3591 2.39804 6.35854C0.930436 6.35804 1.07145 6.39891 1.09281 5.98033C1.10997 5.64442 1.15607 5.53337 1.31077 5.45534C1.46122 5.37942 11.2366 5.37942 11.387 5.45534Z" fill="#838078"/>
</svg>
