<svg width="28" height="28" viewBox="0 0 28 28" fill="none" xmlns="http://www.w3.org/2000/svg">
<rect width="28" height="28" fill="#616161"/>
<rect x="-20" y="-268" width="360" height="617" rx="12" fill="white"/>
<ellipse cx="14" cy="14.1332" rx="14" ry="13.8002" fill="#27B005" fill-opacity="0.1"/>
<path fill-rule="evenodd" clip-rule="evenodd" d="M9.01649 8.92678C8.50605 9.02517 8.00095 9.51938 7.86077 10.0576C7.79871 10.2959 7.79916 17.9812 7.86124 18.2445C7.98842 18.784 8.42208 19.2113 8.95741 19.3248C9.23231 19.3831 18.7678 19.3831 19.0427 19.3248C19.5781 19.2113 20.0117 18.784 20.1389 18.2445C20.201 17.9812 20.2014 10.2959 20.1394 10.0576C19.9959 9.50691 19.4914 9.02244 18.959 8.92422C18.771 8.88953 9.1969 8.892 9.01649 8.92678ZM18.8841 9.86979C19.1474 9.93087 19.215 10.0514 19.2292 10.4847C19.2414 10.8554 19.2252 10.8908 19.0652 10.8449C19.0047 10.8275 17.161 10.8176 14.0001 10.8176C10.8391 10.8176 8.99544 10.8275 8.93494 10.8449C8.77488 10.8908 8.75876 10.8554 8.77093 10.4847C8.7849 10.0586 8.8547 9.92976 9.10344 9.87104C9.23624 9.83969 18.749 9.83847 18.8841 9.86979ZM19.0105 11.813C19.3148 11.9664 19.3409 12.8135 19.0393 12.7439C18.8325 12.6962 9.16758 12.6962 8.96086 12.7439C8.6592 12.8135 8.68534 11.9664 8.98959 11.813C9.13921 11.7375 18.8609 11.7375 19.0105 11.813ZM19.0105 13.7062C19.1644 13.7838 19.2102 13.8942 19.2273 14.2283C19.2486 14.6446 19.3888 14.6039 17.9292 14.6044C16.1913 14.605 15.8487 14.7228 15.4876 15.4444C14.7656 16.8869 13.2345 16.8869 12.5126 15.4444C12.1522 14.7244 11.8051 14.605 10.0709 14.6044C8.61134 14.6039 8.75158 14.6446 8.77282 14.2283C8.78989 13.8942 8.83574 13.7838 8.98959 13.7062C9.13921 13.6307 18.8609 13.6307 19.0105 13.7062Z" fill="#27B005"/>
</svg>
