<svg xmlns="http://www.w3.org/2000/svg" width="24" height="24" viewBox="0 0 24 24" fill="none">
<ellipse cx="12" cy="11.8287" rx="12" ry="11.8287" fill="#27C100" fill-opacity="0.1"/>
<path fill-rule="evenodd" clip-rule="evenodd" d="M7.72831 7.36525C7.29079 7.44959 6.85785 7.87319 6.7377 8.33453C6.68451 8.53876 6.68489 15.1262 6.7381 15.3519C6.84712 15.8143 7.21882 16.1806 7.67767 16.2778C7.91331 16.3278 16.0866 16.3278 16.3222 16.2778C16.7811 16.1806 17.1528 15.8143 17.2618 15.3519C17.315 15.1262 17.3154 8.53876 17.2622 8.33453C17.1393 7.8625 16.7068 7.44725 16.2504 7.36306C16.0893 7.33332 7.88295 7.33545 7.72831 7.36525ZM16.1862 8.17355C16.4119 8.2259 16.4699 8.32919 16.4821 8.70065C16.4925 9.01838 16.4787 9.04868 16.3415 9.00933C16.2896 8.99446 14.7093 8.98594 12 8.98594C9.29056 8.98594 7.71027 8.99446 7.65842 9.00933C7.52122 9.04868 7.50741 9.01838 7.51783 8.70065C7.52981 8.33537 7.58964 8.22495 7.80284 8.17462C7.91667 8.14775 16.0704 8.1467 16.1862 8.17355ZM16.2946 9.83913C16.5554 9.97066 16.5778 10.6967 16.3193 10.6371C16.1421 10.5962 7.85782 10.5962 7.68063 10.6371C7.42207 10.6967 7.44448 9.97066 7.70526 9.83913C7.83351 9.77441 16.1664 9.77441 16.2946 9.83913ZM16.2946 11.4619C16.4265 11.5284 16.4658 11.623 16.4804 11.9094C16.4987 12.2662 16.6189 12.2314 15.3678 12.2318C13.8781 12.2323 13.5845 12.3333 13.275 12.9518C12.6562 14.1883 11.3437 14.1883 10.725 12.9518C10.4161 12.3346 10.1185 12.2323 8.63209 12.2318C7.38105 12.2314 7.50125 12.2662 7.51946 11.9094C7.53409 11.623 7.57339 11.5284 7.70526 11.4619C7.83351 11.3972 16.1664 11.3972 16.2946 11.4619Z" fill="#27B005"/>
</svg>