<svg width="24" height="30" viewBox="0 0 24 30" fill="none" xmlns="http://www.w3.org/2000/svg">
<path d="M23.6593 28.5635C23.6602 29.4064 22.5098 29.8291 20.2079 29.8315C18.9111 29.8328 17.9382 29.4934 17.2891 28.8133C17.2241 28.6836 17.1266 28.5054 16.9967 28.2786C16.8992 28.0194 16.7692 27.6953 16.6067 27.3064C16.4766 26.9175 16.1679 26.2694 15.6807 25.3622C15.2258 24.4549 14.7224 23.5477 14.1703 22.6405C13.6182 21.7009 13.0986 20.8909 12.6116 20.2106C12.1246 19.4978 11.8 19.1416 11.6379 19.1417C11.3785 19.142 10.9736 19.499 10.4232 20.2129C9.87285 20.9267 9.32259 21.7702 8.77246 22.7433C8.2223 23.6841 7.70455 24.6248 7.21923 25.5655C6.7663 26.4737 6.47521 27.1387 6.34597 27.5603C6.21683 28.0791 6.05517 28.5007 5.86098 28.8251C5.69922 29.1495 5.48876 29.4091 5.2296 29.6039C4.97041 29.7663 4.64633 29.8801 4.25736 29.9453C3.86835 29.9781 3.38206 29.9948 2.7985 29.9954C1.30718 29.997 0.560995 29.4953 0.559948 28.4902C0.559509 28.0688 1.02884 27.3388 1.96794 26.3004C2.35654 25.8786 2.93935 25.1485 3.71635 24.1102C4.49331 23.0396 5.27025 21.9365 6.04715 20.801C6.82401 19.633 7.48749 18.5463 8.03759 17.5407C8.6201 16.5351 8.91117 15.8539 8.9108 15.4973C8.91043 15.1407 8.6666 14.4925 8.17932 13.5529C7.69201 12.5808 7.10738 11.5601 6.42545 10.491C5.7759 9.38938 5.11021 8.35263 4.42837 7.38073C3.77896 6.40881 3.27574 5.72851 2.91871 5.33984C1.55545 3.78509 0.873598 2.79699 0.873159 2.37552C0.872348 1.59744 2.05528 1.20717 4.42194 1.20471C5.68632 1.20339 6.6593 1.559 7.34086 2.27154C7.43826 2.40112 7.55193 2.59552 7.68188 2.85475C7.81183 3.11397 7.92564 3.43805 8.0233 3.82699C8.12093 4.18351 8.36469 4.76682 8.75458 5.57692C9.17685 6.35456 9.61535 7.1484 10.0701 7.95843C10.5572 8.76842 11.0118 9.48119 11.4339 10.0967C11.8885 10.7122 12.2292 11.0199 12.4561 11.0196C12.6507 11.0194 12.9907 10.7111 13.4764 10.0946C13.9945 9.44567 14.5286 8.69945 15.0789 7.85596C15.6291 7.01246 16.1308 6.16902 16.5838 5.32563C17.0368 4.48223 17.3117 3.84975 17.4085 3.42819C17.6346 2.61745 17.9419 1.98494 18.3305 1.53066C18.7191 1.07637 19.4807 0.848639 20.6154 0.847459C21.815 0.846211 22.5445 0.958922 22.8041 1.18559C23.1285 1.37978 23.291 1.70381 23.2914 2.15769C23.2919 2.61157 22.8387 3.29286 21.9319 4.20157C21.4785 4.68834 20.8796 5.45084 20.135 6.48906C19.3904 7.52727 18.6459 8.59791 17.9013 9.70097C17.1892 10.804 16.5581 11.8421 16.008 12.8153C15.4903 13.756 15.2316 14.4047 15.232 14.7613C15.2323 15.0855 15.4924 15.766 16.0122 16.8029C16.5644 17.8398 17.214 18.9738 17.9609 20.205C18.7402 21.4038 19.5195 22.5701 20.2988 23.704C21.0781 24.8379 21.7111 25.6801 22.198 26.2308C23.1718 27.332 23.6589 28.1096 23.6593 28.5635Z" fill="white"/>
</svg>
