<svg width="14" height="14" viewBox="0 0 14 14" fill="none" xmlns="http://www.w3.org/2000/svg">
<path d="M7 14C10.8294 14 14 10.8225 14 7C14 3.17059 10.8225 0 6.99314 0C3.17059 0 0 3.17059 0 7C0 10.8225 3.17745 14 7 14ZM6.93823 4.56373C6.42353 4.56373 6.01176 4.15196 6.01176 3.63039C6.01176 3.10882 6.42353 2.69706 6.93823 2.69706C7.45294 2.69706 7.85784 3.10882 7.85784 3.63039C7.85784 4.15196 7.45294 4.56373 6.93823 4.56373ZM5.76471 10.9735C5.46961 10.9735 5.24314 10.7608 5.24314 10.4657C5.24314 10.1912 5.46961 9.96471 5.76471 9.96471H6.63627V6.73922H5.88137C5.59314 6.73922 5.36667 6.52647 5.36667 6.23137C5.36667 5.95686 5.59314 5.73039 5.88137 5.73039H7.21275C7.57647 5.73039 7.76863 5.99118 7.76863 6.37549V9.96471H8.6402C8.93529 9.96471 9.16176 10.1912 9.16176 10.4657C9.16176 10.7608 8.93529 10.9735 8.6402 10.9735H5.76471Z" fill="#FFBF44"/>
</svg>
