<svg width="18" height="18" viewBox="0 0 18 18" fill="none"
    xmlns="http://www.w3.org/2000/svg">
    <path d="M8.75749 17.4251C4.22461 17.4251 0.456706 13.6572 0.456706 9.12435C0.456706 4.58333 4.21647 0.823568 8.74935 0.823568C13.2904 0.823568 17.0583 4.58333 17.0583 9.12435C17.0583 13.6572 13.2985 17.4251 8.75749 17.4251ZM8.75749 16.0417C12.5986 16.0417 15.6748 12.9655 15.6748 9.12435C15.6748 5.2832 12.5905 2.20703 8.74935 2.20703C4.9082 2.20703 1.84831 5.2832 1.84831 9.12435C1.84831 12.9655 4.91634 16.0417 8.75749 16.0417ZM8.74935 10.5892C8.34245 10.5892 8.11458 10.3613 8.10644 9.94629L8.00065 5.64128C7.99251 5.22624 8.30176 4.92513 8.74121 4.92513C9.17253 4.92513 9.49805 5.23438 9.48991 5.64941L9.36784 9.94629C9.3597 10.3695 9.13184 10.5892 8.74935 10.5892ZM8.74935 13.234C8.27734 13.234 7.87044 12.8516 7.87044 12.3877C7.87044 11.9238 8.26921 11.5413 8.74935 11.5413C9.22135 11.5413 9.62012 11.9157 9.62012 12.3877C9.62012 12.8597 9.21322 13.234 8.74935 13.234Z" fill="#FDA600"/>
</svg>
