<svg width="36" height="36" viewBox="0 0 36 36" fill="none" xmlns="http://www.w3.org/2000/svg">
<path d="M17.9999 0.000427246C27.9341 0.000427246 36.0002 8.06593 36.0002 18.0002C36.0002 27.9344 27.9341 35.9999 17.9999 35.9999C8.06566 35.9999 0.000183105 27.9344 0.000183105 18.0002C0.000183105 8.06593 8.06566 0.000427246 17.9999 0.000427246Z" fill="#FF9D3B" fill-opacity="0.4"/>
<path d="M17.9998 7.00009C24.0707 7.00009 29 11.929 29 17.9999C29 24.0708 24.0707 28.9997 17.9998 28.9997C11.9289 28.9997 7 24.0708 7 17.9999C7 11.929 11.9289 7.00009 17.9998 7.00009Z" fill="#FF9D3B"/>
<path d="M18.366 13.6098C18.2647 14.8853 18.1409 16.4429 18.0172 18.0007" stroke="white" stroke-width="2.28172" stroke-linecap="round"/>
<path d="M16.5113 25.6308C16.5113 25.6308 17.234 22.0323 17.9567 18.4337" stroke="white" stroke-width="2.28172" stroke-linecap="round"/>
</svg>
