<svg width="18" height="18" viewBox="0 0 18 18" fill="none" xmlns="http://www.w3.org/2000/svg">
<path d="M9.00008 0.666748C4.40008 0.666748 0.666748 4.40008 0.666748 9.00008C0.666748 13.6001 4.40008 17.3334 9.00008 17.3334C13.6001 17.3334 17.3334 13.6001 17.3334 9.00008C17.3334 4.40008 13.6001 0.666748 9.00008 0.666748ZM9.00008 15.6667C5.31675 15.6667 2.33341 12.6834 2.33341 9.00008C2.33341 5.31675 5.31675 2.33341 9.00008 2.33341C12.6834 2.33341 15.6667 5.31675 15.6667 9.00008C15.6667 12.6834 12.6834 15.6667 9.00008 15.6667Z" fill="#FDA600"/>
<path d="M4.83341 10.2501C5.52377 10.2501 6.08341 9.69044 6.08341 9.00008C6.08341 8.30973 5.52377 7.75008 4.83341 7.75008C4.14306 7.75008 3.58341 8.30973 3.58341 9.00008C3.58341 9.69044 4.14306 10.2501 4.83341 10.2501Z" fill="#FDA600"/>
<path d="M9.00008 10.2501C9.69044 10.2501 10.2501 9.69044 10.2501 9.00008C10.2501 8.30973 9.69044 7.75008 9.00008 7.75008C8.30973 7.75008 7.75008 8.30973 7.75008 9.00008C7.75008 9.69044 8.30973 10.2501 9.00008 10.2501Z" fill="#FDA600"/>
<path d="M13.1667 10.2501C13.8571 10.2501 14.4167 9.69044 14.4167 9.00008C14.4167 8.30973 13.8571 7.75008 13.1667 7.75008C12.4764 7.75008 11.9167 8.30973 11.9167 9.00008C11.9167 9.69044 12.4764 10.2501 13.1667 10.2501Z" fill="#FDA600"/>
</svg>
