<svg width="20" height="20" viewBox="0 0 20 20" fill="none" xmlns="http://www.w3.org/2000/svg">
<path d="M9.14633 5.84596C10.74 4.69426 12.216 3.31875 13.1571 1.57682C13.7873 0.410359 14.245 0.582298 15.1582 1.20206C15.729 1.58945 17.2531 3.19072 16.8941 4.19554C16.3287 5.77757 12.7714 7.21525 9.75093 7.44295C9.45387 7.46529 9.16575 7.33143 8.9876 7.09286L8.95671 7.0779C8.6647 6.687 8.75077 6.13175 9.14633 5.84596Z" fill="#FD6806"/>
<path d="M11.0505 4.2748C10.4562 4.84443 9.81193 5.36511 9.14633 5.84615C8.75077 6.13213 8.6647 6.68738 8.95671 7.07847L8.9874 7.09304C9.16556 7.33162 9.45387 7.46567 9.75093 7.44333C11.9904 7.27431 14.5238 6.44026 15.9153 5.3754C13.7253 5.4535 11.7413 4.6078 11.0505 4.2748Z" fill="#E84614"/>
<path d="M12.2305 6.75679C12.2305 6.75679 10.3053 4.17371 8.50494 1.94174C6.66738 -0.336537 5.79628 -0.504438 4.47931 0.888437C3.16254 2.28131 2.51975 4.11271 4.00422 5.00129C5.4887 5.88987 9.95444 8.00064 10.4571 7.71253C10.9601 7.42442 12.2305 6.75679 12.2305 6.75679Z" fill="#FF8A20"/>
<path d="M9.78377 3.55539C8.84313 5.07682 5.25604 5.23538 4.44296 5.25187C6.21833 6.23086 9.99698 7.97642 10.4572 7.71255C10.9601 7.42444 12.2303 6.75681 12.2303 6.75681C12.2303 6.75681 11.1125 5.25684 9.78377 3.55539Z" fill="#FD6806"/>
<path d="M16.2225 19.9995H3.70655C2.53741 19.9995 1.58942 19.0515 1.58942 17.8824V8.83149C1.58942 7.66215 2.53741 6.71456 3.70655 6.71456H16.2225C17.3919 6.71456 18.3397 7.66215 18.3397 8.83149V17.8824C18.3397 19.0515 17.3919 19.9995 16.2225 19.9995Z" fill="#FAB021"/>
<path d="M7.96439 19.9994H11.965V6.71446H7.96439V19.9994Z" fill="#FD6806"/>
<g opacity="0.2">
<path d="M1.53992 9.43794V12.2817L18.29 13.5224V9.43794C18.29 9.18698 18.2439 8.94735 18.1636 8.72401H1.66629C1.58601 8.94735 1.53992 9.18698 1.53992 9.43794Z" fill="#BA0800"/>
</g>
<path d="M18.5142 10.6782H1.35563C0.606733 10.6782 -9.15527e-05 10.0712 -9.15527e-05 9.32271V7.02377C-9.15527e-05 6.27507 0.606733 5.66825 1.35563 5.66825H18.5142C19.2629 5.66825 19.8697 6.27507 19.8697 7.02377V9.32271C19.8697 10.0712 19.2629 10.6782 18.5142 10.6782Z" fill="#FFC93E"/>
<path d="M7.82623 10.6783H12.0438V5.66828H7.82623V10.6783Z" fill="#FF8A20"/>
</svg>
