<svg width="32" height="32" viewBox="0 0 32 32" fill="none" xmlns="http://www.w3.org/2000/svg">
<g opacity="0.615508">
<path d="M15.9418 0.000427246C24.7401 0.000427246 31.884 7.1437 31.884 15.942C31.884 24.7404 24.7401 31.8837 15.9418 31.8837C7.14346 31.8837 0.000183105 24.7404 0.000183105 15.942C0.000183105 7.1437 7.14346 0.000427246 15.9418 0.000427246Z" fill="#FF9D3B" fill-opacity="0.4"/>
</g>
<path d="M16.0666 4.49539C22.2748 4.49539 27.3156 9.53578 27.3156 15.744C27.3156 21.9522 22.2748 26.9926 16.0666 26.9926C9.85835 26.9926 4.81796 21.9522 4.81796 15.744C4.81796 9.53578 9.85835 4.49539 16.0666 4.49539Z" fill="#FF9D3B"/>
<path d="M16.0666 4.49512C22.2748 4.49512 27.3154 9.53569 27.3154 15.7439C27.3154 21.9521 22.2748 26.9927 16.0666 26.9927C9.85841 26.9927 4.81784 21.9521 4.81784 15.7439C4.81784 9.53569 9.85841 4.49512 16.0666 4.49512Z" stroke="#FF9D3B" stroke-width="1.28333" stroke-miterlimit="1" stroke-linecap="round"/>
<path d="M16.441 11.2544C16.3374 12.5587 16.2108 14.1516 16.0843 15.7446" stroke="white" stroke-width="2.33333" stroke-linecap="round"/>
<path d="M14.5443 23.5474C14.5443 23.5474 15.2834 19.8675 16.0225 16.1874" stroke="white" stroke-width="2.33333" stroke-linecap="round"/>
</svg>
